<?xml version="1.0" encoding="UTF-8" standalone="no"?>
<!-- Created with Inkscape (http://www.inkscape.org/) -->

<svg
   version="1.1"
   id="svg1"
   width="500"
   height="500"
   viewBox="0 0 500 500"
   sodipodi:docname="close.svg"
   inkscape:version="1.3 (0e150ed6c4, 2023-07-21)"
   xmlns:inkscape="http://www.inkscape.org/namespaces/inkscape"
   xmlns:sodipodi="http://sodipodi.sourceforge.net/DTD/sodipodi-0.dtd"
   xmlns="http://www.w3.org/2000/svg"
   xmlns:svg="http://www.w3.org/2000/svg">
  <defs
     id="defs1" />
  <sodipodi:namedview
     id="namedview1"
     pagecolor="#ffffff"
     bordercolor="#000000"
     borderopacity="0.25"
     inkscape:showpageshadow="2"
     inkscape:pageopacity="0.0"
     inkscape:pagecheckerboard="0"
     inkscape:deskcolor="#d1d1d1"
     inkscape:zoom="1.184"
     inkscape:cx="249.5777"
     inkscape:cy="250"
     inkscape:window-width="1440"
     inkscape:window-height="830"
     inkscape:window-x="-6"
     inkscape:window-y="-6"
     inkscape:window-maximized="1"
     inkscape:current-layer="g1" />
  <g
     inkscape:groupmode="layer"
     inkscape:label="Image"
     id="g1">
    <g
       id="g2"
       style="fill:#efecdb;fill-opacity:1">
      <path
         style="fill-opacity:1;fill:#efecdb"
         d="m 177.8125,496.31689 c 0.72187,-0.28887 1.58437,-0.25335 1.91667,0.0789 0.33229,0.33229 -0.25834,0.56864 -1.3125,0.52522 -1.16495,-0.048 -1.4019,-0.28494 -0.60417,-0.60416 z m -12,-1 c 0.72187,-0.28887 1.58437,-0.25335 1.91667,0.0789 0.33229,0.33229 -0.25834,0.56864 -1.3125,0.52522 -1.16495,-0.048 -1.4019,-0.28494 -0.60417,-0.60416 z m -12,-1 c 0.72187,-0.28887 1.58437,-0.25335 1.91667,0.0789 0.33229,0.33229 -0.25834,0.56864 -1.3125,0.52522 -1.16495,-0.048 -1.4019,-0.28494 -0.60417,-0.60416 z m -12,-1 c 0.72187,-0.28887 1.58437,-0.25335 1.91667,0.0789 0.33229,0.33229 -0.25834,0.56864 -1.3125,0.52522 -1.16495,-0.048 -1.4019,-0.28494 -0.60417,-0.60416 z m -56,-5 c 0.721875,-0.28887 1.584375,-0.25335 1.916667,0.0789 0.332291,0.33229 -0.258334,0.56864 -1.3125,0.52522 -1.164943,-0.048 -1.4019,-0.28494 -0.604167,-0.60416 z m -13,-1 c 0.721875,-0.28887 1.584375,-0.25335 1.916667,0.0789 0.332291,0.33229 -0.258334,0.56864 -1.3125,0.52522 -1.164943,-0.048 -1.4019,-0.28494 -0.604167,-0.60416 z M 373.54271,466.0691 c -0.31644,-0.512 -0.19299,-1.1672 0.27431,-1.45601 0.46731,-0.28881 0.84965,0.13009 0.84965,0.9309 0,1.68617 -0.31534,1.83349 -1.12396,0.52511 z M 373,409.10765 c 0,-0.67413 -0.51953,-0.9046 -1.15451,-0.51216 -0.74421,0.45995 -0.88179,0.27227 -0.38713,-0.52811 0.54526,-0.88225 1.07722,-0.9318 1.83784,-0.17118 0.58876,0.58876 0.76297,1.37797 0.38713,1.7538 C 373.3075,410.02583 373,409.78178 373,409.10765 Z M 388.232,393 c 0,-1.925 0.2058,-2.7125 0.45733,-1.75 0.25152,0.9625 0.25152,2.5375 0,3.5 -0.25153,0.9625 -0.45733,0.175 -0.45733,-1.75 z m 0.96295,-29.5 c 0.0204,-1.65 0.2445,-2.20394 0.49804,-1.23097 0.25354,0.97297 0.23687,2.32297 -0.0371,3 -0.27393,0.67703 -0.48137,-0.11903 -0.46099,-1.76903 z m 0.884,-20.08333 c 0.048,-1.16495 0.28494,-1.4019 0.60416,-0.60417 0.28887,0.72187 0.25335,1.58438 -0.0789,1.91667 -0.33229,0.33229 -0.56864,-0.25834 -0.52522,-1.3125 z m 3,-62 c 0.048,-1.16495 0.28494,-1.4019 0.60416,-0.60417 0.28887,0.72187 0.25335,1.58438 -0.0789,1.91667 -0.33229,0.33229 -0.56864,-0.25834 -0.52522,-1.3125 z m 2,-25 c 0.048,-1.16495 0.28494,-1.4019 0.60416,-0.60417 0.28887,0.72187 0.25335,1.58438 -0.0789,1.91667 -0.33229,0.33229 -0.56864,-0.25834 -0.52522,-1.3125 z m -201.51466,-2.12354 c -0.54268,-1.4252 -0.42782,-1.54006 0.5598,-0.5598 0.68342,0.67834 0.99067,1.48524 0.68278,1.79313 -0.30789,0.30789 -0.86705,-0.24711 -1.24258,-1.23333 z M 270,241.94098 c 0,-0.58246 0.45,-0.7809 1,-0.44098 0.55,0.33992 1,0.81648 1,1.05902 0,0.24254 -0.45,0.44098 -1,0.44098 -0.55,0 -1,-0.47656 -1,-1.05902 z M 396.15789,240 c 0,-1.375 0.22698,-1.9375 0.50439,-1.25 0.27741,0.6875 0.27741,1.8125 0,2.5 -0.27741,0.6875 -0.50439,0.125 -0.50439,-1.25 z m 1.03706,-19.5 c 0.0204,-1.65 0.2445,-2.20394 0.49804,-1.23097 0.25354,0.97297 0.23687,2.32297 -0.0371,3 -0.27393,0.67703 -0.48137,-0.11903 -0.46099,-1.76903 z M 394,199 c -0.90129,-0.58246 -1.02463,-0.97549 -0.30902,-0.98469 0.65504,-0.008 1.4691,0.43469 1.80902,0.98469 0.7673,1.24153 0.42112,1.24153 -1.5,0 z m 4.07895,-0.58333 c 0.048,-1.16495 0.28494,-1.4019 0.60416,-0.60417 0.28887,0.72187 0.25335,1.58437 -0.0789,1.91667 -0.33229,0.33229 -0.56864,-0.25834 -0.52522,-1.3125 z M 399.28601,165.5 c 0.008,-2.75 0.20172,-3.75631 0.43157,-2.23625 0.22986,1.52006 0.22371,3.77006 -0.0136,5 -0.23736,1.22994 -0.42542,-0.0137 -0.41792,-2.76375 z M 119.8125,160.31689 c 0.72187,-0.28887 1.58437,-0.25335 1.91667,0.0789 0.33229,0.33229 -0.25834,0.56864 -1.3125,0.52522 -1.16495,-0.048 -1.4019,-0.28494 -0.60417,-0.60416 z m -2,-4 c 0.72187,-0.28887 1.58437,-0.25335 1.91667,0.0789 0.33229,0.33229 -0.25834,0.56864 -1.3125,0.52522 -1.16495,-0.048 -1.4019,-0.28494 -0.60417,-0.60416 z m 16.9375,-0.97917 c 0.6875,-0.27741 1.8125,-0.27741 2.5,0 0.6875,0.27741 0.125,0.50439 -1.25,0.50439 -1.375,0 -1.9375,-0.22698 -1.25,-0.50439 z M 303.28601,14.5 c 0.008,-2.75 0.20172,-3.756313 0.43157,-2.23625 0.22986,1.520062 0.22371,3.770062 -0.0136,5 C 303.46657,18.493687 303.27851,17.25 303.28601,14.5 Z"
         id="path8" />
      <path
         style="fill-opacity:1;fill:#efecdb"
         d="m 210.8125,499.31689 c 0.72187,-0.28887 1.58437,-0.25335 1.91667,0.0789 0.33229,0.33229 -0.25834,0.56864 -1.3125,0.52522 -1.16495,-0.048 -1.4019,-0.28494 -0.60417,-0.60416 z m -42,-4 c 0.72187,-0.28887 1.58437,-0.25335 1.91667,0.0789 0.33229,0.33229 -0.25834,0.56864 -1.3125,0.52522 -1.16495,-0.048 -1.4019,-0.28494 -0.60417,-0.60416 z m -12,-1 c 0.72187,-0.28887 1.58437,-0.25335 1.91667,0.0789 0.33229,0.33229 -0.25834,0.56864 -1.3125,0.52522 -1.16495,-0.048 -1.4019,-0.28494 -0.60417,-0.60416 z m -12,-1 c 0.72187,-0.28887 1.58437,-0.25335 1.91667,0.0789 0.33229,0.33229 -0.25834,0.56864 -1.3125,0.52522 -1.16495,-0.048 -1.4019,-0.28494 -0.60417,-0.60416 z m -12,-1 c 0.72187,-0.28887 1.58437,-0.25335 1.91667,0.0789 0.33229,0.33229 -0.25834,0.56864 -1.3125,0.52522 -1.16495,-0.048 -1.4019,-0.28494 -0.60417,-0.60416 z m -33,-3 c 0.72187,-0.28887 1.58437,-0.25335 1.91667,0.0789 0.33229,0.33229 -0.25834,0.56864 -1.3125,0.52522 -1.164946,-0.048 -1.401903,-0.28494 -0.60417,-0.60416 z m -11,-1 c 0.721875,-0.28887 1.584375,-0.25335 1.916667,0.0789 0.332291,0.33229 -0.258334,0.56864 -1.3125,0.52522 -1.164943,-0.048 -1.4019,-0.28494 -0.604167,-0.60416 z m -13,-1 c 0.721875,-0.28887 1.584375,-0.25335 1.916667,0.0789 0.332291,0.33229 -0.258334,0.56864 -1.3125,0.52522 -1.164943,-0.048 -1.4019,-0.28494 -0.604167,-0.60416 z m 251.80059,-70.49987 c 0.28881,-0.4673 0.94401,-0.59075 1.45601,-0.27431 1.30838,0.80862 1.16106,1.12396 -0.52511,1.12396 -0.80081,0 -1.21971,-0.38234 -0.9309,-0.84965 z M 388.27236,386 c 0,-2.475 0.19502,-3.4875 0.43337,-2.25 0.23836,1.2375 0.23836,3.2625 0,4.5 -0.23835,1.2375 -0.43337,0.225 -0.43337,-2.25 z M 341.5,381 c 0.33992,-0.55 0.81648,-1 1.05902,-1 0.24254,0 0.44098,0.45 0.44098,1 0,0.55 -0.47656,1 -1.05902,1 -0.58246,0 -0.7809,-0.45 -0.44098,-1 z m 47.732,-23 c 0,-1.925 0.2058,-2.7125 0.45733,-1.75 0.25152,0.9625 0.25152,2.5375 0,3.5 -0.25153,0.9625 -0.45733,0.175 -0.45733,-1.75 z m 0.92589,-18 c 0,-1.375 0.22698,-1.9375 0.50439,-1.25 0.27741,0.6875 0.27741,1.8125 0,2.5 -0.27741,0.6875 -0.50439,0.125 -0.50439,-1.25 z m 0.4064,-39.70687 c -0.54268,-1.4252 -0.42782,-1.54006 0.5598,-0.5598 0.68342,0.67834 0.99067,1.48524 0.68278,1.79313 -0.30789,0.30789 -0.86705,-0.24711 -1.24258,-1.23333 z m 1.51466,-9.87646 c 0.048,-1.16495 0.28494,-1.4019 0.60416,-0.60417 0.28887,0.72187 0.25335,1.58438 -0.0789,1.91667 -0.33229,0.33229 -0.56864,-0.25834 -0.52522,-1.3125 z M 218.50708,275.01145 c -0.35034,-0.56686 0.0511,-0.7345 0.94098,-0.39301 1.73242,0.66479 2.04939,1.38156 0.61096,1.38156 -0.51754,0 -1.21592,-0.44485 -1.55194,-0.98855 z m 175.57187,-7.59478 c 0.048,-1.16495 0.28494,-1.4019 0.60416,-0.60417 0.28887,0.72187 0.25335,1.58438 -0.0789,1.91667 -0.33229,0.33229 -0.56864,-0.25834 -0.52522,-1.3125 z m -42.51466,-1.7098 c 0.37553,-0.98622 0.93469,-1.54122 1.24258,-1.23333 0.30789,0.30789 6.4e-4,1.11479 -0.68278,1.79313 -0.98762,0.98026 -1.10248,0.8654 -0.5598,-0.5598 z M 395.15789,253 c 0,-1.375 0.22698,-1.9375 0.50439,-1.25 0.27741,0.6875 0.27741,1.8125 0,2.5 -0.27741,0.6875 -0.50439,0.125 -0.50439,-1.25 z M 239.54271,237.0691 c -0.31644,-0.512 -0.19299,-1.1672 0.27431,-1.45601 0.46731,-0.28881 0.84965,0.13009 0.84965,0.9309 0,1.68617 -0.31534,1.83349 -1.12396,0.52511 z M 396.15789,236 c 0,-1.375 0.22698,-1.9375 0.50439,-1.25 0.27741,0.6875 0.27741,1.8125 0,2.5 -0.27741,0.6875 -0.50439,0.125 -0.50439,-1.25 z m 1.03706,-20.5 c 0.0204,-1.65 0.2445,-2.20394 0.49804,-1.23097 0.25354,0.97297 0.23687,2.32297 -0.0371,3 -0.27393,0.67703 -0.48137,-0.11903 -0.46099,-1.76903 z M 383,204.94098 c 0,-0.58246 0.45,-0.7809 1,-0.44098 0.55,0.33992 1,0.81648 1,1.05902 0,0.24254 -0.45,0.44098 -1,0.44098 -0.55,0 -1,-0.47656 -1,-1.05902 z m -34.43571,-1.64785 c -0.54268,-1.4252 -0.42782,-1.54006 0.5598,-0.5598 0.68342,0.67834 0.99067,1.48524 0.68278,1.79313 -0.30789,0.30789 -0.86705,-0.24711 -1.24258,-1.23333 z M 398.27236,190 c 0,-2.475 0.19502,-3.4875 0.43337,-2.25 0.23836,1.2375 0.23836,3.2625 0,4.5 -0.23835,1.2375 -0.43337,0.225 -0.43337,-2.25 z m -77.81348,0.93347 c -0.36253,-0.58659 -0.44468,-1.281 -0.18255,-1.54313 0.26212,-0.26213 0.74306,0.21781 1.06875,1.06653 0.67618,1.76211 0.0999,2.07206 -0.8862,0.4766 z M 399.29966,156 c 0,-3.025 0.18747,-4.2625 0.41659,-2.75 0.22913,1.5125 0.22913,3.9875 0,5.5 -0.22912,1.5125 -0.41659,0.275 -0.41659,-2.75 z M 130.75,155.33772 c 0.6875,-0.27741 1.8125,-0.27741 2.5,0 0.6875,0.27741 0.125,0.50439 -1.25,0.50439 -1.375,0 -1.9375,-0.22698 -1.25,-0.50439 z m 214.81429,-13.63085 c 0.37553,-0.98622 0.93469,-1.54122 1.24258,-1.23333 0.30789,0.30789 6.4e-4,1.11479 -0.68278,1.79313 -0.98762,0.98026 -1.10248,0.8654 -0.5598,-0.5598 z m 38.89459,-4.7734 c -1.02606,-1.66021 -0.10511,-1.89043 1.33055,-0.33261 0.70918,0.76953 0.84824,1.39914 0.30901,1.39914 -0.53922,0 -1.27702,-0.47994 -1.63956,-1.06653 z M 283.5,130 c -0.33992,-0.55 -0.14148,-1 0.44098,-1 0.58246,0 1.05902,0.45 1.05902,1 0,0.55 -0.19844,1 -0.44098,1 -0.24254,0 -0.7191,-0.45 -1.05902,-1 z m 91,-3 c 0.33992,-0.55 0.81648,-1 1.05902,-1 0.24254,0 0.44098,0.45 0.44098,1 0,0.55 -0.47656,1 -1.05902,1 -0.58246,0 -0.7809,-0.45 -0.44098,-1 z M 356,99.940983 c 0,-0.582459 0.45,-0.780902 1,-0.440983 0.55,0.339919 1,0.81648 1,1.05902 0,0.24254 -0.45,0.44098 -1,0.44098 -0.55,0 -1,-0.47656 -1,-1.059017 z m 19,-6 c 0,-0.582459 0.45,-0.780902 1,-0.440983 0.55,0.339919 1,0.816476 1,1.059017 C 377,94.801558 376.55,95 376,95 c -0.55,0 -1,-0.476558 -1,-1.059017 z M 354.5,87 c 0.33992,-0.55 0.81648,-1 1.05902,-1 0.24254,0 0.44098,0.45 0.44098,1 0,0.55 -0.47656,1 -1.05902,1 -0.58246,0 -0.7809,-0.45 -0.44098,-1 z M 136,46.622445 c 0,-0.207656 0.7875,-0.995156 1.75,-1.75 1.58606,-1.243871 1.62143,-1.208501 0.37756,0.377555 C 136.82119,46.915748 136,47.445479 136,46.622445 Z m 10,-10 c 0,-0.207656 0.7875,-0.995156 1.75,-1.75 1.58606,-1.243871 1.62143,-1.208501 0.37756,0.377555 C 146.82119,36.915748 146,37.445479 146,36.622445 Z M 302,9 C 301.09871,8.4175404 300.97537,8.0245136 301.69098,8.0153128 302.34602,8.0068907 303.16008,8.45 303.5,9 c 0.7673,1.241525 0.42112,1.241525 -1.5,0 z"
         id="path7" />
      <path
         style="fill-opacity:1;fill:#efecdb"
         d="m 423.87244,454.25 c -1.24387,-1.58606 -1.2085,-1.62143 0.37756,-0.37756 1.66575,1.30637 2.19548,2.12756 1.37244,2.12756 -0.20765,0 -0.99515,-0.7875 -1.75,-1.75 z M 371,404.94098 c 0,-0.58246 0.45,-0.7809 1,-0.44098 0.55,0.33992 1,0.81648 1,1.05902 0,0.24254 -0.45,0.44098 -1,0.44098 -0.55,0 -1,-0.47656 -1,-1.05902 z M 346.5,376 c 2.14824,-2.2 4.1309,-4 4.4059,-4 0.275,0 -1.25766,1.8 -3.4059,4 -2.14824,2.2 -4.1309,4 -4.4059,4 -0.275,0 1.25766,-1.8 3.4059,-4 z m -25.99292,-2.98855 c -0.35034,-0.56686 0.0511,-0.7345 0.94098,-0.39301 1.73242,0.66479 2.04939,1.38156 0.61096,1.38156 -0.51754,0 -1.21592,-0.44485 -1.55194,-0.98855 z m -13.29651,-5.61231 C 306.50139,366.62961 306.36233,366 306.90156,366 c 1.03844,0 2.54172,1.90221 1.94858,2.46567 -0.19258,0.18294 -0.93038,-0.297 -1.63957,-1.06653 z m -125.45434,-46.0635 c 0.69093,-0.27855 0.9589,-0.98755 0.59549,-1.57556 -0.39382,-0.63721 -0.18776,-0.77678 0.51008,-0.34549 1.37672,0.85086 0.55006,2.62054 -1.17082,2.50646 -0.85244,-0.0565 -0.83389,-0.22291 0.0652,-0.58541 z M 341,284.94098 c 0,-0.58246 0.45,-0.7809 1,-0.44098 0.55,0.33992 1,0.81648 1,1.05902 0,0.24254 -0.45,0.44098 -1,0.44098 -0.55,0 -1,-0.47656 -1,-1.05902 z m -33.43571,-4.64785 c -0.54268,-1.4252 -0.42782,-1.54006 0.5598,-0.5598 0.68342,0.67834 0.99067,1.48524 0.68278,1.79313 -0.30789,0.30789 -0.86705,-0.24711 -1.24258,-1.23333 z M 201,280.05902 c 0,-0.51754 0.44485,-1.21592 0.98855,-1.55194 0.56686,-0.35034 0.7345,0.0511 0.39301,0.94098 C 201.71677,281.18048 201,281.49745 201,280.05902 Z m 142.61309,-13.242 c 0.28881,-0.4673 0.94401,-0.59075 1.45601,-0.27431 1.30838,0.80862 1.16106,1.12396 -0.52511,1.12396 -0.80081,0 -1.21971,-0.38234 -0.9309,-0.84965 z m -15.01008,-5.65035 c -0.28327,-0.45834 0.12038,-0.83334 0.89699,-0.83334 0.77661,0 1.18026,0.375 0.89699,0.83334 C 330.11373,261.625 329.71008,262 329.5,262 c -0.21008,0 -0.61373,-0.375 -0.89699,-0.83333 z m -40.03872,-9.87354 c -0.54268,-1.4252 -0.42782,-1.54006 0.5598,-0.5598 0.68342,0.67834 0.99067,1.48524 0.68278,1.79313 -0.30789,0.30789 -0.86705,-0.24711 -1.24258,-1.23333 z M 324,221.94098 c 0,-0.58246 0.45,-0.7809 1,-0.44098 0.55,0.33992 1,0.81648 1,1.05902 0,0.24254 -0.45,0.44098 -1,0.44098 -0.55,0 -1,-0.47656 -1,-1.05902 z m 10.56429,-29.23411 c 0.37553,-0.98622 0.93469,-1.54122 1.24258,-1.23333 0.30789,0.30789 6.4e-4,1.11479 -0.68278,1.79313 -0.98762,0.98026 -1.10248,0.8654 -0.5598,-0.5598 z m 11.94279,-2.69542 c -0.35034,-0.56686 0.0511,-0.7345 0.94098,-0.39301 1.73242,0.66479 2.04939,1.38156 0.61096,1.38156 -0.51754,0 -1.21592,-0.44485 -1.55194,-0.98855 z m -22,-5 c -0.35034,-0.56686 0.0511,-0.7345 0.94098,-0.39301 1.73242,0.66479 2.04939,1.38156 0.61096,1.38156 -0.51754,0 -1.21592,-0.44485 -1.55194,-0.98855 z M 279,181 c -0.90129,-0.58246 -1.02463,-0.97549 -0.30902,-0.98469 0.65504,-0.008 1.4691,0.43469 1.80902,0.98469 0.7673,1.24153 0.42112,1.24153 -1.5,0 z m 84.5,-4 c -0.78846,-1.27575 0.2594,-3.00461 1.80902,-2.98469 0.78303,0.0101 0.71893,0.31431 -0.18714,0.8882 -0.75796,0.48009 -1.0689,1.37319 -0.69098,1.98469 0.37792,0.61149 0.46213,1.1118 0.18713,1.1118 -0.275,0 -0.77811,-0.45 -1.11803,-1 z m -145,-1 c -0.78846,-1.27575 0.2594,-3.00461 1.80902,-2.98469 0.78303,0.0101 0.71893,0.31431 -0.18714,0.8882 -0.75796,0.48009 -1.0689,1.37319 -0.69098,1.98469 0.37792,0.61149 0.46213,1.1118 0.18713,1.1118 -0.275,0 -0.77811,-0.45 -1.11803,-1 z M 359,152.60699 c 0,-0.21616 0.69837,-0.661 1.55194,-0.98855 0.88992,-0.34149 1.29132,-0.17385 0.94098,0.39301 C 360.90566,152.96166 359,153.4169 359,152.60699 Z m -81.44721,-22.52158 c -0.32198,-0.52097 -0.15917,-1.21065 0.3618,-1.53262 0.52097,-0.32198 1.21065,-0.15917 1.53262,0.3618 0.32198,0.52097 0.15917,1.21065 -0.3618,1.53262 -0.52097,0.32198 -1.21065,0.15917 -1.53262,-0.3618 z M 361.87244,45.25 c -1.24387,-1.586056 -1.2085,-1.621426 0.37756,-0.377555 0.9625,0.754844 1.75,1.542344 1.75,1.75 0,0.823034 -0.82119,0.293303 -2.12756,-1.372445 z M 142,40.5 c 1.86578,-1.925 3.61733,-3.5 3.89233,-3.5 0.275,0 -1.02655,1.575 -2.89233,3.5 -1.86578,1.925 -3.61733,3.5 -3.89233,3.5 -0.275,0 1.02655,-1.575 2.89233,-3.5 z M 353.87244,37.25 C 352.62857,35.663944 352.66394,35.628574 354.25,36.872445 355.91575,38.178814 356.44548,39 355.62244,39 c -0.20765,0 -0.99515,-0.7875 -1.75,-1.75 z"
         id="path6" />
      <path
         style="fill-opacity:1;fill:#efecdb"
         d="m 206.5,498.89146 c -3.85,-0.46513 -20.275,-1.98922 -36.5,-3.38688 -33.72568,-2.9052 -82.514719,-7.19757 -91.75,-8.072 L 72,486.84081 72,472.6017 72,458.3626 84,439.62395 96,420.8853 96,284.44265 C 96,209.39919 96.250101,148 96.55578,148 c 0.305679,0 4.69318,2.94976 9.75,6.55503 l 9.19422,6.55502 10,-0.75587 c 18.25763,-1.38006 16.17391,-2.22577 20.76663,8.42844 2.2008,5.10544 4.17772,9.10636 4.39316,8.89093 0.21543,-0.21544 -0.85569,-5.46487 -2.38027,-11.66541 l -2.77196,-11.27371 -14.10048,0.68552 -14.10048,0.68552 -9.6533,-12.22039 c -5.30931,-6.72122 -9.643561,-13.15745 -9.631658,-14.30274 0.0119,-1.14529 0.884515,-5.98422 1.939138,-10.75318 6.31811,-28.570232 20.25065,-54.638382 40.3624,-75.519107 11.45783,-11.895929 26.15635,-23.506806 32.68462,-25.818741 8.14038,-2.882849 30.30009,-9.3333457 45.52262,-13.2512329 L 233.5,0.38729358 245,1.6669619 c 18.58581,2.0681449 53.31136,6.3560652 55.75,6.8840233 2.21394,0.4793116 2.25,0.7320704 2.25,15.7703788 l 0,15.28326 -13.8882,9.426646 c -12.07796,8.197941 -13.78792,9.690076 -13.11882,11.447688 2.69363,7.075782 10.30449,24.556908 10.5741,24.2873 0.17893,-0.178934 -1.02428,-5.665724 -2.6738,-12.192867 -1.64953,-6.527143 -2.63782,-12.204874 -2.19621,-12.61718 0.44161,-0.412306 6.36711,-4.142398 13.16778,-8.289094 l 12.36486,-7.539446 5.00534,-15.313835 c 2.75294,-8.42261 5.2042,-15.529282 5.44725,-15.792606 0.80741,-0.874767 12.69341,5.913357 21.76406,12.429519 16.20905,11.644223 29.9086,26.341964 40.95936,43.94378 5.00047,7.964822 5.4113,9.018786 3.93598,10.097563 -2.03966,1.491441 -0.81085,3.863857 1.66585,3.216185 1.83814,-0.480686 3.99245,2.762297 3.99245,6.010035 0,0.893314 0.62252,2.33464 1.38338,3.202947 1.35446,1.545737 3.83117,8.229231 7.01995,18.943571 1.03217,3.4681 1.59667,9.18019 1.59667,16.15638 0,10.29922 -0.0912,10.76769 -2,10.26854 -1.32091,-0.34543 -2,-0.0307 -2,0.92695 0,2.18336 1.1538,2.90055 2.65799,1.65218 1.07998,-0.8963 1.34201,-0.418 1.34201,2.44966 0,1.95988 -0.47185,3.85505 -1.04856,4.21147 -0.59867,0.37 -0.68743,1.14616 -0.20688,1.80902 1.31977,1.82041 -1.33488,78.40065 -3.80138,109.66097 -0.49906,6.325 -1.10359,14.04836 -1.3434,17.16302 -1.58651,20.6054 -1.92254,23.8376 -2.47876,23.84292 -0.34156,0.003 -0.7284,4.58814 -0.85964,10.18862 -0.13125,5.60048 -0.58238,10.52644 -1.00253,10.94659 -1.20894,1.20894 -20.64502,-2.1799 -21.55854,-3.7589 C 366.79133,314.8111 363,314.48734 363,315.98087 c 0,0.59086 -1.83522,0.72932 -4.61556,0.34824 -4.20255,-0.57603 -4.56807,-0.46247 -4.08495,1.26913 0.29183,1.04597 2.01921,11.5073 3.83861,23.2474 l 3.30801,21.34563 -10.47305,9.86342 c -5.76018,5.42488 -10.12368,9.88185 -9.69665,9.90437 0.42703,0.0225 6.86246,-4.03236 14.30095,-9.01084 11.28548,-7.5532 13.42218,-9.37432 12.90621,-11 -0.45638,-1.4379 -0.1423,-1.95655 1.19904,-1.98002 1.67251,-0.0293 1.68525,-0.13232 0.15975,-1.29271 -1.58622,-1.20658 -2.40246,-4.84877 -3.28887,-14.67549 -0.22325,-2.475 -0.72268,-7.50253 -1.10984,-11.1723 l -0.70392,-6.6723 3.88014,0.50464 c 2.13407,0.27754 7.93013,1.03095 12.88013,1.67424 l 9,1.16962 -0.0857,4.49805 c -0.0471,2.47393 -0.69656,20.56655 -1.44319,40.20583 -1.21653,31.99985 -1.19746,35.89389 0.1837,37.5 0.84765,0.98572 1.78779,2.46722 2.0892,3.29222 0.6066,1.66037 32.03488,38.83372 34.34834,40.62718 1.98996,1.54269 0.83131,12.74937 -1.23612,11.95602 C 423.6103,467.29696 423,467.46115 423,467.94805 c 0,0.48691 0.49068,1.04884 1.09041,1.24875 0.76162,0.25388 0.53547,4.10665 -0.75,12.7776 l -1.84041,12.41413 -15.5,2.75559 -15.5,2.75559 -56.16563,-0.009 c -49.07086,-0.008 -56.23855,-0.19883 -56.74293,-1.51324 -0.31752,-0.82744 -1.03783,-1.21983 -1.60069,-0.87196 -0.56286,0.34786 -0.76448,1.05138 -0.44804,1.56338 0.72047,1.16575 -59.19919,1.01158 -69.04271,-0.17764 z M 264,490.5 c 0,-0.825 -0.675,-1.5 -1.5,-1.5 -0.825,0 -1.5,0.675 -1.5,1.5 0,0.825 0.675,1.5 1.5,1.5 0.825,0 1.5,-0.675 1.5,-1.5 z m 73,0.059 c 0,-1.95514 -1.93837,-3.02065 -3.2,-1.75902 -0.56415,0.56415 -0.72339,1.51494 -0.35385,2.11287 0.98021,1.58602 3.55385,1.32977 3.55385,-0.35385 z m 5.80833,-1.63402 c -0.19708,-0.59125 -0.78583,-1.075 -1.30833,-1.075 -0.5225,0 -1.11125,0.48375 -1.30833,1.075 -0.19709,0.59125 0.39166,1.075 1.30833,1.075 0.91667,0 1.50542,-0.48375 1.30833,-1.075 z M 314,488.55902 c 0,-0.24254 -0.45,-0.7191 -1,-1.05902 -0.55,-0.33992 -1,-0.14148 -1,0.44098 0,0.58246 0.45,1.05902 1,1.05902 0.55,0 1,-0.19844 1,-0.44098 z M 374.5,483 c 0.33992,-0.55 -0.0835,-1 -0.94098,-1 -0.85746,0 -1.55902,0.45 -1.55902,1 0,0.55 0.42344,1 0.94098,1 0.51754,0 1.2191,-0.45 1.55902,-1 z m 42.5,0 c 0,-0.55 -0.19844,-1 -0.44098,-1 -0.24254,0 -0.7191,0.45 -1.05902,1 -0.33992,0.55 -0.14148,1 0.44098,1 0.58246,0 1.05902,-0.45 1.05902,-1 z m -23,-1 c 0,-0.55 -0.45,-1 -1,-1 -0.55,0 -1,0.45 -1,1 0,0.55 0.45,1 1,1 0.55,0 1,-0.45 1,-1 z m -81,-2 c 0,-0.55 -0.45,-1 -1,-1 -0.55,0 -1,0.45 -1,1 0,0.55 0.45,1 1,1 0.55,0 1,-0.45 1,-1 z m -21,-4 c 0,-0.55 -0.45,-1 -1,-1 -0.55,0 -1,0.45 -1,1 0,0.55 0.45,1 1,1 0.55,0 1,-0.45 1,-1 z m 51.42997,-0.88669 c 0.30141,-0.48768 -0.082,-1.40954 -0.85195,-2.04856 -1.55873,-1.29363 -3.15488,0.19286 -2.07802,1.93525 0.7652,1.23812 2.20049,1.29363 2.92997,0.11331 z M 324,470.44098 c 0,-0.85746 -0.45734,-1.27636 -1.01631,-0.9309 -0.55897,0.34546 -0.75742,1.04702 -0.44098,1.55902 0.85723,1.38704 1.45729,1.12841 1.45729,-0.62812 z m 64.41821,-3.04797 C 389.2882,467.05917 390,466.40238 390,465.93348 390,464.68559 384.72429,460 383.31924,460 c -2.07513,0 -2.69786,2.24998 -0.97202,3.51195 0.90903,0.66469 1.65278,1.68393 1.65278,2.26496 0,0.58103 0.5625,1.2834 1.25,1.56081 0.6875,0.27741 1.3257,0.53991 1.41821,0.58333 0.0925,0.0434 0.88002,-0.19419 1.75,-0.52804 z M 375.15,465.5 c 0,-0.5225 -0.48375,-1.11125 -1.075,-1.30833 -0.59125,-0.19709 -1.075,0.39166 -1.075,1.30833 0,0.91667 0.48375,1.50542 1.075,1.30833 0.59125,-0.19708 1.075,-0.78583 1.075,-1.30833 z M 271,463.5 c 0,-0.825 -0.675,-1.5 -1.5,-1.5 -1.56157,0 -1.98397,1.1827 -0.83333,2.33333 C 269.8173,465.48397 271,465.06157 271,463.5 Z m 59,-1.5 c 0,-0.55 -0.70156,-1 -1.55902,-1 -0.85746,0 -1.2809,0.45 -0.94098,1 0.33992,0.55 1.04148,1 1.55902,1 0.51754,0 0.94098,-0.45 0.94098,-1 z m 69.77083,-1.8125 C 399.98854,459.53437 399.45417,459 398.58333,459 397.7125,459 397,459.7125 397,460.58333 c 0,1.76593 2.15276,1.45839 2.77083,-0.39583 z M 403,460 c 0,-0.55 -0.19844,-1 -0.44098,-1 -0.24254,0 -0.7191,0.45 -1.05902,1 -0.33992,0.55 -0.14148,1 0.44098,1 0.58246,0 1.05902,-0.45 1.05902,-1 z m 11,0 c 0,-0.55 -0.19844,-1 -0.44098,-1 -0.24254,0 -0.7191,0.45 -1.05902,1 -0.33992,0.55 -0.14148,1 0.44098,1 0.58246,0 1.05902,-0.45 1.05902,-1 z m -105.5,-2 c 0.33992,-0.55 0.14148,-1 -0.44098,-1 -0.58246,0 -1.05902,0.45 -1.05902,1 0,0.55 0.19844,1 0.44098,1 0.24254,0 0.7191,-0.45 1.05902,-1 z m 110,-7 c 0.33992,-0.55 -0.0835,-1 -0.94098,-1 -0.85746,0 -1.55902,0.45 -1.55902,1 0,0.55 0.42344,1 0.94098,1 0.51754,0 1.2191,-0.45 1.55902,-1 z m -6,-5 c 0.33992,-0.55 -0.11008,-1 -1,-1 -0.88992,0 -1.33992,0.45 -1,1 0.33992,0.55 0.78992,1 1,1 0.21008,0 0.66008,-0.45 1,-1 z M 392,430 c 0,-0.55 -0.45,-1 -1,-1 -0.55,0 -1,0.45 -1,1 0,0.55 0.45,1 1,1 0.55,0 1,-0.45 1,-1 z m -22,-3.5 c 0,-0.825 -0.45,-1.5 -1,-1.5 -0.55,0 -1,0.675 -1,1.5 0,0.825 0.45,1.5 1,1.5 0.55,0 1,-0.675 1,-1.5 z m -40.19167,-8.575 c -0.19708,-0.59125 -0.78583,-1.075 -1.30833,-1.075 -0.5225,0 -1.11125,0.48375 -1.30833,1.075 -0.19709,0.59125 0.39166,1.075 1.30833,1.075 0.91667,0 1.50542,-0.48375 1.30833,-1.075 z M 350,418.55902 c 0,-0.24254 -0.45,-0.7191 -1,-1.05902 -0.55,-0.33992 -1,-0.14148 -1,0.44098 0,0.58246 0.45,1.05902 1,1.05902 0.55,0 1,-0.19844 1,-0.44098 z m 16.80254,-2.50581 c 1.29607,-1.75303 1.7745,-3.19658 1.181,-3.56338 -0.54872,-0.33913 -1.29805,0.19943 -1.66519,1.19679 -0.36714,0.99736 -1.26396,2.17324 -1.99294,2.61307 -0.72897,0.43983 -1.32541,1.22733 -1.32541,1.75 0,1.79906 1.62854,0.94401 3.80254,-1.99648 z M 385,417 c 0,-0.55 -0.45,-1 -1,-1 -0.55,0 -1,0.45 -1,1 0,0.55 0.45,1 1,1 0.55,0 1,-0.45 1,-1 z M 280,409.94098 C 280,409.42344 279.325,409 278.5,409 c -1.54641,0 -1.9867,1.17996 -0.86052,2.30615 0.79893,0.79893 2.36052,-0.10419 2.36052,-1.36517 z m 94,-1.02431 c 0,-2.43705 -2.33677,-2.09257 -2.82332,0.4162 -0.19138,0.98676 0.31876,1.66713 1.25,1.66713 C 373.35431,411 374,410.145 374,408.91667 Z M 270.5,409 c 0.33992,-0.55 0.14148,-1 -0.44098,-1 -0.58246,0 -1.05902,0.45 -1.05902,1 0,0.55 0.19844,1 0.44098,1 0.24254,0 0.7191,-0.45 1.05902,-1 z m 51.5,-2 c 0,-0.55 -0.19844,-1 -0.44098,-1 -0.24254,0 -0.7191,0.45 -1.05902,1 -0.33992,0.55 -0.14148,1 0.44098,1 0.58246,0 1.05902,-0.45 1.05902,-1 z m 51,-1.44098 c 0,-0.24254 -0.45,-0.7191 -1,-1.05902 -0.55,-0.33992 -1,-0.14148 -1,0.44098 0,0.58246 0.45,1.05902 1,1.05902 0.55,0 1,-0.19844 1,-0.44098 z M 384,402 c 0,-0.55 -0.45,-1 -1,-1 -0.55,0 -1,0.45 -1,1 0,0.55 0.45,1 1,1 0.55,0 1,-0.45 1,-1 z m 3,-2 c 0,-0.55 -0.45,-1 -1,-1 -0.55,0 -1,0.45 -1,1 0,0.55 0.45,1 1,1 0.55,0 1,-0.45 1,-1 z m -136,-6 c 0,-0.55 -0.19844,-1 -0.44098,-1 -0.24254,0 -0.7191,0.45 -1.05902,1 -0.33992,0.55 -0.14148,1 0.44098,1 0.58246,0 1.05902,-0.45 1.05902,-1 z m 130,-3.11803 c 0,-0.55 -0.45,-0.72189 -1,-0.38197 -0.55,0.33992 -1,1.06803 -1,1.61803 0,0.55 0.45,0.72189 1,0.38197 0.55,-0.33992 1,-1.06803 1,-1.61803 z M 386.5,392 c -0.33992,-0.55 -1.06803,-1 -1.61803,-1 -0.55,0 -0.72189,0.45 -0.38197,1 0.33992,0.55 1.06803,1 1.61803,1 0.55,0 0.72189,-0.45 0.38197,-1 z m -80.89583,-2.72917 c -1.01652,-1.01651 -1.85525,0.51389 -1.02122,1.86338 0.63003,1.01942 0.86558,1.02021 1.2043,0.004 0.2316,-0.69479 0.14921,-1.53513 -0.18308,-1.86742 z M 285,386 c 0,-0.55 -0.45,-1 -1,-1 -0.55,0 -1,0.45 -1,1 0,0.55 0.45,1 1,1 0.55,0 1,-0.45 1,-1 z m 51.42997,-0.88669 c 0.30141,-0.48768 -0.082,-1.40954 -0.85195,-2.04856 -1.55873,-1.29363 -3.15488,0.19286 -2.07802,1.93525 0.7652,1.23812 2.20049,1.29363 2.92997,0.11331 z M 342,385 c 0,-0.55 -0.45,-1 -1,-1 -0.55,0 -1,0.45 -1,1 0,0.55 0.45,1 1,1 0.55,0 1,-0.45 1,-1 z m 14.75029,-4.74947 c 0.54676,-1.64213 -2.58648,-2.81434 -3.93038,-1.47044 -0.5751,0.5751 -0.7279,1.55977 -0.33954,2.18815 0.88355,1.42961 3.71332,0.95397 4.26992,-0.71771 z M 263,377.55902 c 0,-0.24254 -0.45,-0.7191 -1,-1.05902 -0.55,-0.33992 -1,-0.14148 -1,0.44098 0,0.58246 0.45,1.05902 1,1.05902 0.55,0 1,-0.19844 1,-0.44098 z M 369,377 c 0,-0.55 -0.45,-1 -1,-1 -0.55,0 -1,0.45 -1,1 0,0.55 0.45,1 1,1 0.55,0 1,-0.45 1,-1 z m 5.5,-2 c 0.33992,-0.55 0.14148,-1 -0.44098,-1 -0.58246,0 -1.05902,0.45 -1.05902,1 0,0.55 0.19844,1 0.44098,1 0.24254,0 0.7191,-0.45 1.05902,-1 z m 12.5,-1 c 0,-0.55 -0.45,-1 -1,-1 -0.55,0 -1,0.45 -1,1 0,0.55 0.45,1 1,1 0.55,0 1,-0.45 1,-1 z m -64,-0.94098 c 0,-1.17986 -1.95035,-2.442 -2.66667,-1.72569 C 319.61702,372.04965 320.87916,374 322.05902,374 322.57656,374 323,373.57656 323,373.05902 Z m -73.25014,-6.64249 c -0.95295,-0.95296 -2.86349,0.5906 -2.1533,1.7397 0.42212,0.683 0.98146,0.66575 1.69964,-0.0524 0.58876,-0.58876 0.79291,-1.34803 0.45366,-1.68727 z m 59.02097,1.39597 C 308.15276,365.95828 306,365.65074 306,367.41667 306,368.2875 306.7125,369 307.58333,369 c 0.87084,0 1.40521,-0.53438 1.1875,-1.1875 z m 65.0375,-20.8875 c -0.19708,-0.59125 -0.78583,-1.075 -1.30833,-1.075 -0.5225,0 -1.11125,0.48375 -1.30833,1.075 -0.19709,0.59125 0.39166,1.075 1.30833,1.075 0.91667,0 1.50542,-0.48375 1.30833,-1.075 z M 351,345 c 0,-0.55 -0.45,-1 -1,-1 -0.55,0 -1,0.45 -1,1 0,0.55 0.45,1 1,1 0.55,0 1,-0.45 1,-1 z m -108,-5.44098 c 0,-0.79254 -0.48921,-1.74333 -1.08713,-2.11287 -1.41202,-0.87268 -3.3394,1.0547 -2.46672,2.46672 0.98021,1.58602 3.55385,1.32977 3.55385,-0.35385 z m 145.44721,-0.64443 c -0.32197,-0.52097 -1.01165,-0.68378 -1.53262,-0.3618 -0.52097,0.32197 -0.68378,1.01165 -0.3618,1.53262 0.32197,0.52097 1.01165,0.68378 1.53262,0.3618 0.52097,-0.32197 0.68378,-1.01165 0.3618,-1.53262 z M 296,339 c 0,-0.55 -0.19844,-1 -0.44098,-1 -0.24254,0 -0.7191,0.45 -1.05902,1 -0.33992,0.55 -0.14148,1 0.44098,1 0.58246,0 1.05902,-0.45 1.05902,-1 z m 53.80833,-0.075 c -0.19708,-0.59125 -0.78583,-1.075 -1.30833,-1.075 -0.5225,0 -1.11125,0.48375 -1.30833,1.075 -0.19709,0.59125 0.39166,1.075 1.30833,1.075 0.91667,0 1.50542,-0.48375 1.30833,-1.075 z M 232.5,337 c 0.33992,-0.55 0.14148,-1 -0.44098,-1 -0.58246,0 -1.05902,0.45 -1.05902,1 0,0.55 0.19844,1 0.44098,1 0.24254,0 0.7191,-0.45 1.05902,-1 z M 336,323 c 0,-0.55 -0.19844,-1 -0.44098,-1 -0.24254,0 -0.7191,0.45 -1.05902,1 -0.33992,0.55 -0.14148,1 0.44098,1 0.58246,0 1.05902,-0.45 1.05902,-1 z m -16,-1 c 0,-0.55 -0.45,-1 -1,-1 -0.55,0 -1,0.45 -1,1 0,0.55 0.45,1 1,1 0.55,0 1,-0.45 1,-1 z m -136.925,-1.275 c -0.12369,-1.1957 -1.49529,-0.96414 -1.925,0.325 -0.22,0.66 0.14,1.02 0.8,0.8 0.66,-0.22 1.16625,-0.72625 1.125,-1.125 z M 192,321 c 0,-0.55 -0.45,-1 -1,-1 -0.55,0 -1,0.45 -1,1 0,0.55 0.45,1 1,1 0.55,0 1,-0.45 1,-1 z m 33,0 c 0,-0.55 -0.42344,-1 -0.94098,-1 -0.51754,0 -1.2191,0.45 -1.55902,1 -0.33992,0.55 0.0835,1 0.94098,1 0.85746,0 1.55902,-0.45 1.55902,-1 z m 69,0 c 0,-0.55 -0.45,-1 -1,-1 -0.55,0 -1,0.45 -1,1 0,0.55 0.45,1 1,1 0.55,0 1,-0.45 1,-1 z m 23,0.55902 c 0,-0.24254 -0.45,-0.7191 -1,-1.05902 -0.55,-0.33992 -1,-0.14148 -1,0.44098 0,0.58246 0.45,1.05902 1,1.05902 0.55,0 1,-0.19844 1,-0.44098 z M 225,316.5 c 0,-0.83333 -0.88889,-1.5 -2,-1.5 -1.11111,0 -2,0.66667 -2,1.5 0,0.83333 0.88889,1.5 2,1.5 1.11111,0 2,-0.66667 2,-1.5 z m 46,-4.5 c 0,-0.55 -0.47656,-1 -1.05902,-1 -0.58246,0 -0.7809,0.45 -0.44098,1 0.33992,0.55 0.81648,1 1.05902,1 0.24254,0 0.44098,-0.45 0.44098,-1 z m 7.74986,-1.58347 c -0.95295,-0.95296 -2.86349,0.5906 -2.1533,1.7397 0.42212,0.683 0.98146,0.66575 1.69964,-0.0524 0.58876,-0.58876 0.79291,-1.34803 0.45366,-1.68727 z m 10.80399,-0.50366 c 1.03052,-1.66742 -1.28721,-3.57951 -2.66672,-2.2 C 285.73321,308.86679 286.45541,311 288,311 c 0.48508,0 1.18431,-0.48921 1.55385,-1.08713 z M 202.77083,306.8125 C 202.15276,304.95828 200,304.65074 200,306.41667 200,307.2875 200.7125,308 201.58333,308 c 0.87084,0 1.40521,-0.53438 1.1875,-1.1875 z M 249,307.16667 c 0,-1.30208 -1.18877,-2.16804 -2.15579,-1.57039 C 245.80999,306.23547 246.70176,308 248.05902,308 248.57656,308 249,307.625 249,307.16667 Z M 369.5,306 c 0.33992,-0.55 0.14148,-1 -0.44098,-1 -0.58246,0 -1.05902,0.45 -1.05902,1 0,0.55 0.19844,1 0.44098,1 0.24254,0 0.7191,-0.45 1.05902,-1 z m -215.69167,-3.075 c -0.19708,-0.59125 -0.78583,-1.075 -1.30833,-1.075 -0.5225,0 -1.11125,0.48375 -1.30833,1.075 -0.19709,0.59125 0.39166,1.075 1.30833,1.075 0.91667,0 1.50542,-0.48375 1.30833,-1.075 z M 369,302 c 0,-0.55 -0.45,-1 -1,-1 -0.55,0 -1,0.45 -1,1 0,0.55 0.45,1 1,1 0.55,0 1,-0.45 1,-1 z m 9,0 c 0,-0.55 -0.45,-1 -1,-1 -0.55,0 -1,0.45 -1,1 0,0.55 0.45,1 1,1 0.55,0 1,-0.45 1,-1 z m -64.39583,-4.72917 c -1.01652,-1.01651 -1.85525,0.51389 -1.02122,1.86338 0.63003,1.01942 0.86558,1.02021 1.2043,0.004 0.2316,-0.69479 0.14921,-1.53513 -0.18308,-1.86742 z M 265.5,297 c 0.33992,-0.55 -0.11008,-1 -1,-1 -0.88992,0 -1.33992,0.45 -1,1 0.33992,0.55 0.78992,1 1,1 0.21008,0 0.66008,-0.45 1,-1 z m 88.36534,-2.55103 c 0.31608,-1.6311 0.14754,-1.70455 -1.25,-0.54469 -1.91126,1.5862 -2.14923,3.44015 -0.36534,2.84619 0.6875,-0.22891 1.4144,-1.26459 1.61534,-2.3015 z M 200,295 c 0,-0.55 -0.45,-1 -1,-1 -0.55,0 -1,0.45 -1,1 0,0.55 0.45,1 1,1 0.55,0 1,-0.45 1,-1 z m 103,-2.01905 c 0,-0.56179 1.02432,-0.76197 2.28278,-0.44611 2.79596,0.70174 15.27708,-1.20376 18.60811,-2.8409 3.40075,-1.67142 6.03224,-5.61364 6.30397,-9.44394 0.1268,-1.7875 0.63994,-3.25 1.14029,-3.25 0.50036,0 0.44097,-0.56484 -0.13198,-1.25519 -1.52704,-1.83998 -1.85033,-14.02909 -0.38504,-14.51752 0.65003,-0.21668 1.18187,-0.8546 1.18187,-1.41761 0,-0.56301 -0.67411,-0.76498 -1.49801,-0.44882 -0.94569,0.3629 -2.10185,-0.42724 -3.13575,-2.14301 -5.39956,-8.96063 -13.0566,-19.62152 -18.40019,-25.61859 -5.08852,-5.71079 -6.07669,-7.39206 -5.73062,-9.75 0.23,-1.56709 0.0104,-2.84926 -0.48808,-2.84926 -0.99407,0 -0.2296,-4.92267 1.4365,-9.25 0.94346,-2.45045 1.59021,-2.76362 5.93747,-2.875 2.68327,-0.0687 5.65534,-0.18125 6.6046,-0.25 2.43371,-0.17626 4.25116,5.11082 2.23783,6.51001 -1.2833,0.89184 -1.28266,0.96805 0.005,0.61814 0.81875,-0.22246 2.38351,0.95801 3.53517,2.66694 4.27046,6.33695 7.71105,3.606 6.54609,-5.19592 -0.81222,-6.13669 -3.31048,-9.99343 -8.12129,-12.53736 -2.85339,-1.50886 -4.82518,-1.70898 -11.7476,-1.19227 -4.57527,0.34152 -8.95366,0.86461 -9.72976,1.16242 -1.94973,0.74818 -5.45156,6.63303 -5.45156,9.16138 0,1.14526 -0.7875,2.52661 -1.75,3.06969 -1.40166,0.79087 -1.50119,1.23867 -0.5,2.24969 0.6875,0.69425 1.25,3.17611 1.25,5.51523 0,5.79543 1.35547,8.46506 9.31545,18.34705 6.7442,8.37265 13.5968,19.08387 15.77328,24.65502 0.61129,1.56474 1.14525,6.12863 1.18657,10.14199 0.0989,9.60579 -1.42447,11.31445 -10.65535,11.95133 l -6.52644,0.45028 0.57528,-3.54502 c 0.80308,-4.94884 -0.26701,-8.34423 -3.24464,-10.29526 -2.32231,-1.52163 -2.68232,-1.52874 -4.12946,-0.0816 -2.05468,2.05468 -2.83773,12.99804 -1.21107,16.92513 0.81027,1.95617 2.13686,3.09223 4.05995,3.47684 1.57104,0.31421 2.85643,1.19004 2.85643,1.94629 0,0.75625 0.45,1.375 1,1.375 0.55,0 1,-0.45857 1,-1.01905 z m 47,-1.06428 c 0,-2.43705 -2.33677,-2.09257 -2.82332,0.4162 -0.19138,0.98676 0.31876,1.66713 1.25,1.66713 0.92763,0 1.57332,-0.855 1.57332,-2.08333 z m -201.41491,-5.6355 c 0.55557,-3.70484 0.32516,-4.54063 -1.72185,-6.24591 -1.29978,-1.0828 -2.73032,-1.98369 -3.17898,-2.00199 C 141.69154,277.952 139,280.24052 139,282.01613 c 0,2.35446 -2.27599,2.93538 -10.67224,2.72399 l -6.17225,-0.1554 -0.69019,-9.20592 c -0.37961,-5.06326 -0.43516,-9.61858 -0.12344,-10.12295 0.31171,-0.50436 0.56192,-8.30576 0.55602,-17.33644 -0.0259,-39.65237 0.0969,-41.1404 3.52614,-42.70285 3.11234,-1.41807 11.59556,-0.5088 13.79118,1.47821 0.98163,0.88836 1.78478,2.39561 1.78478,3.34943 0,2.74219 3.44217,6.38384 5.34424,5.65394 1.25961,-0.48335 1.65576,-1.93402 1.65576,-6.06316 0,-4.95658 -0.30545,-5.69598 -3.51834,-8.51694 -3.3802,-2.96785 -4.62768,-3.48085 -10.75697,-4.42353 -2.49011,-0.38298 -8.25746,0.33744 -14.4565,1.80581 -5.36732,1.27137 -7.31462,12.03477 -8.14127,44.99968 -0.60427,24.09687 -0.16287,38.66066 1.31265,43.30959 1.1514,3.62775 5.20714,4.91592 15.9989,5.08151 5.46616,0.0839 10.07258,0.28661 10.23649,0.45053 0.16391,0.16391 2.31643,-0.17027 4.78337,-0.74263 4.29383,-0.99622 4.51274,-1.22329 5.12676,-5.31783 z m 43.58862,4.6263 c 2.92946,-0.60089 6.33879,-1.28446 7.57629,-1.51905 3.0714,-0.58223 2.88994,-3.77581 -0.29705,-5.2279 C 198.05207,283.52223 193.77707,283 189.95295,283 H 183 v -5.05902 c 0,-3.11803 0.38367,-4.82189 1,-4.44098 0.55,0.33992 1,0.17898 1,-0.35765 0,-0.53663 -0.44955,-1.12568 -0.99899,-1.30902 -0.55724,-0.18593 -1.25205,-6.13312 -1.57125,-13.449 -0.49503,-11.34583 -0.36022,-13.19704 0.99899,-13.71862 1.99306,-0.76481 2.03421,-4.0366 0.0712,-5.66571 -1.2389,-1.02819 -1.5,-4.6179 -1.5,-20.62244 C 182,202.32633 181.75682,199 180.58333,199 c -0.77916,0 -1.62521,-0.5625 -1.8801,-1.25 -0.33787,-0.91131 -0.97009,-0.76628 -2.33333,0.53527 -1.70604,1.62882 -1.89552,3.85894 -2.16222,25.44853 -0.18591,15.04977 -0.68549,24.13699 -1.37244,24.96473 -0.59908,0.72184 -0.65925,1.30147 -0.13512,1.30147 0.57416,0 0.77187,6.86766 0.50382,17.50008 l -0.44119,17.50009 2.66952,3.49991 c 2.33345,3.05932 3.22,3.49992 7.04233,3.49992 2.40505,0 6.76965,-0.49164 9.69911,-1.09253 z m 61.61829,0.40517 c 10.60946,-0.81075 11.03882,-1.53262 13.28986,-22.34373 2.09855,-19.40141 2.56588,-49.85018 0.88535,-57.6862 -0.80655,-3.7608 -2.10628,-5.9842 -5.37141,-9.18869 -3.70303,-3.63425 -5.13442,-4.34053 -10.2016,-5.03368 -3.24181,-0.44346 -6.93599,-0.41345 -8.2093,0.0667 -1.2733,0.48014 -3.8608,0.87298 -5.75,0.87298 -2.67405,0 -4.32092,0.88602 -7.4349,4 -3.35883,3.35883 -4.01365,4.68125 -4.08519,8.25 -0.0468,2.3375 -0.0688,18.29775 -0.0487,35.46721 0.0358,30.64446 0.0786,31.29467 2.33519,35.43851 5.33564,9.79817 9.07483,11.3426 24.59073,10.15692 z M 239.67765,283.75 c -2.59734,-1.90465 -3.72272,-11.34892 -3.57481,-30 0.0929,-11.71519 0.47314,-16.7546 1.26499,-16.76531 0.67152,-0.009 0.57809,-0.36637 -0.22963,-0.87811 -1.05564,-0.66883 -1.27941,-3.41935 -0.99535,-12.23469 0.2975,-9.23241 0.75346,-12.03037 2.42359,-14.87189 l 2.05715,-3.5 7.34446,0.19197 c 4.88872,0.12779 7.83249,0.68 8.80401,1.65152 2.21846,2.21846 3.30928,16.49842 2.22721,29.15651 -0.51719,6.05 -1.23387,17.975 -1.59262,26.5 -0.35876,8.525 -1.02559,16.48543 -1.48185,17.68985 -1.38097,3.64544 -12.57405,5.75366 -16.24715,3.06015 z m 13.07221,-8.33347 c -0.95295,-0.95296 -2.86349,0.5906 -2.1533,1.7397 0.42212,0.683 0.98146,0.66575 1.69964,-0.0524 0.58876,-0.58876 0.79291,-1.34803 0.45366,-1.68727 z m -11.30265,-39.50194 c -0.32197,-0.52097 -1.01165,-0.68378 -1.53262,-0.3618 -0.52097,0.32197 -0.68378,1.01165 -0.3618,1.53262 0.32197,0.52097 1.01165,0.68378 1.53262,0.3618 0.52097,-0.32197 0.68378,-1.01165 0.3618,-1.53262 z M 253,232.5 c 0,-0.825 -0.675,-1.5 -1.5,-1.5 -0.825,0 -1.5,0.675 -1.5,1.5 0,0.825 0.675,1.5 1.5,1.5 0.825,0 1.5,-0.675 1.5,-1.5 z m -7,-2 c 1.01957,-1.22851 0.95124,-1.5 -0.37756,-1.5 -0.89234,0 -1.62244,0.675 -1.62244,1.5 0,0.825 0.1699,1.5 0.37756,1.5 0.20765,0 0.93775,-0.675 1.62244,-1.5 z m 11.15,-12 c 0,-0.5225 -0.48375,-1.11125 -1.075,-1.30833 -0.59125,-0.19709 -1.075,0.39166 -1.075,1.30833 0,0.91667 0.48375,1.50542 1.075,1.30833 0.59125,-0.19708 1.075,-0.78583 1.075,-1.30833 z M 378,289.98754 c 9.91372,-1.40826 12.21297,-2.26896 11.44029,-4.28255 -1.03466,-2.69629 -6.83439,-4.20862 -15.05793,-3.9265 l -8.11763,0.27849 -0.67744,-4.23644 c -0.37259,-2.33005 -0.3705,-8.41787 0.005,-13.5285 0.52302,-7.12527 1.01934,-9.29204 2.1284,-9.29204 0.79548,0 1.24008,-0.5625 0.98799,-1.25 -0.25208,-0.6875 -0.88263,-1.16482 -1.40123,-1.0607 -0.51859,0.10411 -0.75658,-1.08016 -0.52886,-2.63171 0.38969,-2.65512 0.77592,-2.8599 6.5679,-3.4824 8.32618,-0.89486 12.34791,-2.29724 12.92584,-4.50724 1.01117,-3.86672 0.30375,-4.09731 -12.77198,-4.16304 l -7,-0.0352 v -15.61795 -15.61794 l 3.5,-0.91479 c 1.925,-0.50313 6.05749,-0.7317 9.18332,-0.50792 5.82548,0.41703 6.74675,-0.2363 6.80303,-4.82448 0.0387,-3.15738 -26.19467,-4.57836 -29.19174,-1.58122 -0.97186,0.97189 -1.29461,6.20594 -1.29461,20.99461 0,11.97686 -0.39204,19.98799 -1,20.43466 -0.60715,0.44606 -0.47546,0.7407 0.33522,0.75 1.08664,0.0125 1.20784,3.04073 0.65098,16.26531 -0.37633,8.9375 -0.80441,17.73356 -0.95129,19.54681 -0.26758,3.30334 0.95888,7.79561 3.24614,11.88993 1.34149,2.40135 5.51515,3.35616 11.21895,2.56659 1.925,-0.26648 5.975,-0.83609 9,-1.26579 z M 331.5,286 c 0.33992,-0.55 0.14148,-1 -0.44098,-1 -0.58246,0 -1.05902,0.45 -1.05902,1 0,0.55 0.19844,1 0.44098,1 0.24254,0 0.7191,-0.45 1.05902,-1 z m 11.5,-0.44098 c 0,-0.24254 -0.45,-0.7191 -1,-1.05902 -0.55,-0.33992 -1,-0.14148 -1,0.44098 0,0.58246 0.45,1.05902 1,1.05902 0.55,0 1,-0.19844 1,-0.44098 z M 338,284 c 0,-0.55 -0.675,-1 -1.5,-1 -0.825,0 -1.5,0.45 -1.5,1 0,0.55 0.675,1 1.5,1 0.825,0 1.5,-0.45 1.5,-1 z m -29.24971,-2.74947 c 0.54676,-1.64213 -2.58648,-2.81434 -3.93038,-1.47044 -0.5751,0.5751 -0.7279,1.55977 -0.33954,2.18815 0.88355,1.42961 3.71332,0.95397 4.26992,-0.71771 z M 204,280.55902 c 0,-0.79254 -0.41891,-1.69988 -0.9309,-2.01631 -1.18889,-0.73478 -2.38461,1.13777 -1.5691,2.45729 0.91956,1.48787 2.5,1.20909 2.5,-0.44098 z M 272,279.5 c 0,-0.825 -0.675,-1.5 -1.5,-1.5 -1.56157,0 -1.98397,1.1827 -0.83333,2.33333 C 270.8173,281.48397 272,281.06157 272,279.5 Z m -51,-3.05902 c 0,-1.65007 -1.58044,-1.92885 -2.5,-0.44098 -0.81551,1.31952 0.38021,3.19207 1.5691,2.45729 0.51199,-0.31643 0.9309,-1.22377 0.9309,-2.01631 z M 140.5,276 c 0.33992,-0.55 0.14148,-1 -0.44098,-1 -0.58246,0 -1.05902,0.45 -1.05902,1 0,0.55 0.19844,1 0.44098,1 0.24254,0 0.7191,-0.45 1.05902,-1 z M 353,275 c 0,-0.55 -0.45,-1 -1,-1 -0.55,0 -1,0.45 -1,1 0,0.55 0.45,1 1,1 0.55,0 1,-0.45 1,-1 z m -133.45888,-1.06653 c 0.92034,-1.48915 -0.14673,-2.29879 -2.06137,-1.56407 -0.88358,0.33906 -1.32643,1.06965 -0.98412,1.62354 0.81058,1.31154 2.21511,1.28411 3.04549,-0.0595 z m -86.24063,-3.59279 C 133.01753,269.60331 132.15917,269 131.39301,269 c -1.68258,0 -1.72772,0.50607 -0.28552,3.20084 0.8355,1.56116 1.30395,1.75147 1.90748,0.77494 0.43999,-0.71193 0.56848,-1.89772 0.28552,-2.6351 z M 376,270 c 0,-0.55 -0.45,-1 -1,-1 -0.55,0 -1,0.45 -1,1 0,0.55 0.45,1 1,1 0.55,0 1,-0.45 1,-1 z m -30.55279,-3.08541 c -0.32197,-0.52097 -1.01165,-0.68378 -1.53262,-0.3618 -0.52097,0.32197 -0.68378,1.01165 -0.3618,1.53262 0.32197,0.52097 1.01165,0.68378 1.53262,0.3618 0.52097,-0.32197 0.68378,-1.01165 0.3618,-1.53262 z M 352.5,265.16667 c 0,-1.80866 -1.9573,-1.47847 -2.3455,0.39568 -0.21599,1.04271 0.15888,1.49986 1,1.21948 0.74002,-0.24667 1.3455,-0.9735 1.3455,-1.61516 z M 222.77083,258.1875 C 222.98854,257.53437 222.45417,257 221.58333,257 220.7125,257 220,257.7125 220,258.58333 c 0,1.76593 2.15276,1.45839 2.77083,-0.39583 z M 194.5,254.9863 c 0,-2.1435 -2.90567,-1.8339 -3.32712,0.35451 -0.25736,1.3364 0.14991,1.74367 1.48631,1.48631 1.01244,-0.19498 1.84081,-1.02335 1.84081,-1.84082 z m 116.32332,-1.65343 C 310.33677,250.8241 308,250.47962 308,252.91667 308,254.145 308.64569,255 309.57332,255 c 0.93124,0 1.44138,-0.68037 1.25,-1.66713 z m 77.78085,-1.06204 c -1.01652,-1.01651 -1.85525,0.51389 -1.02122,1.86338 0.63003,1.01942 0.86558,1.02021 1.2043,0.004 0.2316,-0.69479 0.14921,-1.53513 -0.18308,-1.86742 z m -183.8652,-1.22447 c 0.8301,-1.3292 0.88572,-2.16028 0.17402,-2.60014 -1.26371,-0.78101 -1.4699,-0.5794 -2.35615,2.30378 -0.8505,2.76688 0.52279,2.95339 2.18213,0.29636 z M 290,252.05902 c 0,-1.35037 -1.82294,-2.28649 -3.01631,-1.54894 -0.55897,0.34546 -0.75742,1.04702 -0.44098,1.55902 0.75067,1.21461 3.45729,1.20672 3.45729,-0.0101 z m 95.42997,-0.94571 c 0.73818,-1.1944 -2.08302,-3.44577 -3.34249,-2.66737 -0.55007,0.33996 -0.74664,1.2787 -0.43682,2.08609 0.62138,1.61927 2.91935,1.97272 3.77931,0.58128 z M 335,250 c 0,-0.55 -0.45,-1 -1,-1 -0.55,0 -1,0.45 -1,1 0,0.55 0.45,1 1,1 0.55,0 1,-0.45 1,-1 z m -63,-2 c 0,-0.55 -0.19844,-1 -0.44098,-1 -0.24254,0 -0.7191,0.45 -1.05902,1 -0.33992,0.55 -0.14148,1 0.44098,1 0.58246,0 1.05902,-0.45 1.05902,-1 z m 19,0 c 0,-0.55 -0.45,-1 -1,-1 -0.55,0 -1,0.45 -1,1 0,0.55 0.45,1 1,1 0.55,0 1,-0.45 1,-1 z m 49,-3.55902 c 0,-0.85746 -0.45,-1.2809 -1,-0.94098 -0.55,0.33992 -1,1.04148 -1,1.55902 0,0.51754 0.45,0.94098 1,0.94098 0.55,0 1,-0.70156 1,-1.55902 z M 272,242 c 0,-0.55 -0.45,-1 -1,-1 -0.55,0 -1,0.45 -1,1 0,0.55 0.45,1 1,1 0.55,0 1,-0.45 1,-1 z m 64.74986,-1.58347 c -0.95295,-0.95296 -2.86349,0.5906 -2.1533,1.7397 0.42212,0.683 0.98146,0.66575 1.69964,-0.0524 0.58876,-0.58876 0.79291,-1.34803 0.45366,-1.68727 z m -4.94153,-1.49153 c -0.19708,-0.59125 -0.78583,-1.075 -1.30833,-1.075 -0.5225,0 -1.11125,0.48375 -1.30833,1.075 -0.19709,0.59125 0.39166,1.075 1.30833,1.075 0.91667,0 1.50542,-0.48375 1.30833,-1.075 z m -1.84013,-3.675 c -0.0444,-1.04732 -2.55264,-4.25 -3.32844,-4.25 -0.84641,0 -0.82479,3.48164 0.0269,4.33333 0.90725,0.90725 3.34093,0.84583 3.30153,-0.0833 z M 375.5,234 c 0.33992,-0.55 0.14148,-1 -0.44098,-1 -0.58246,0 -1.05902,0.45 -1.05902,1 0,0.55 0.19844,1 0.44098,1 0.24254,0 0.7191,-0.45 1.05902,-1 z M 197.81184,228.73852 C 198.04039,227.55174 197.50738,227 196.13234,227 c -2.29335,0 -3.56338,1.49355 -2.59812,3.05537 0.97327,1.57479 3.89389,0.67569 4.27762,-1.31685 z M 161,226.05902 c 0,-1.35037 -1.82294,-2.28649 -3.01631,-1.54894 -0.55897,0.34546 -0.75742,1.04702 -0.44098,1.55902 0.75067,1.21461 3.45729,1.20672 3.45729,-0.0101 z m 165,-3.5 c 0,-0.24254 -0.45,-0.7191 -1,-1.05902 -0.55,-0.33992 -1,-0.14148 -1,0.44098 0,0.58246 0.45,1.05902 1,1.05902 0.55,0 1,-0.19844 1,-0.44098 z M 341,219 c 0,-0.55 -0.47656,-1 -1.05902,-1 -0.58246,0 -0.7809,0.45 -0.44098,1 0.33992,0.55 0.81648,1 1.05902,1 0.24254,0 0.44098,-0.45 0.44098,-1 z m -175,-6.07332 c 0,-2.56265 -3.30983,-2.27193 -3.81184,0.3348 -0.2311,1.2 0.30742,1.73852 1.73852,1.73852 C 165.35777,215 166,214.35777 166,212.92668 Z M 206,213 c 0,-0.55 -0.19844,-1 -0.44098,-1 -0.24254,0 -0.7191,0.45 -1.05902,1 -0.33992,0.55 -0.14148,1 0.44098,1 0.58246,0 1.05902,-0.45 1.05902,-1 z m 143,0 c 0,-0.55 -0.45,-1 -1,-1 -0.55,0 -1,0.45 -1,1 0,0.55 0.45,1 1,1 0.55,0 1,-0.45 1,-1 z m 41.15,-3.5 c 0,-0.5225 -0.48375,-1.11125 -1.075,-1.30833 -0.59125,-0.19709 -1.075,0.39166 -1.075,1.30833 0,0.91667 0.48375,1.50542 1.075,1.30833 0.59125,-0.19708 1.075,-0.78583 1.075,-1.30833 z m -12.59615,-0.58713 c 1.03052,-1.66742 -1.28721,-3.57951 -2.66672,-2.2 C 373.73321,207.86679 374.45541,210 376,210 c 0.48508,0 1.18431,-0.48921 1.55385,-1.08713 z m -183.88968,-1.48009 c 0.83346,-2.17196 -1.28244,-4.21451 -2.79695,-2.7 C 189.58718,206.01282 190.38017,209 192,209 c 0.58452,0 1.3334,-0.70525 1.66417,-1.56722 z M 395.75047,206.75 C 395.12044,204.85781 392,204.5888 392,206.42668 c 0,0.92763 0.855,1.57332 2.08333,1.57332 1.22198,0 1.91126,-0.51682 1.66714,-1.25 z M 350,204.05902 c 0,-0.51754 -0.45,-1.2191 -1,-1.55902 -0.55,-0.33992 -1,0.0835 -1,0.94098 0,0.85746 0.45,1.55902 1,1.55902 0.55,0 1,-0.42344 1,-0.94098 z m -63,-2.61804 C 287,200.64844 286.1,200 285,200 c -2.18273,0 -2.76735,2.55808 -0.75,3.28172 1.69174,0.60684 2.75,-0.10151 2.75,-1.84074 z M 214,202 c 0,-0.55 -0.45,-1 -1,-1 -0.55,0 -1,0.45 -1,1 0,0.55 0.45,1 1,1 0.55,0 1,-0.45 1,-1 z m 78.74986,-2.58347 c -0.95295,-0.95296 -2.86349,0.5906 -2.1533,1.7397 0.42212,0.683 0.98146,0.66575 1.69964,-0.0524 0.58876,-0.58876 0.79291,-1.34803 0.45366,-1.68727 z M 263.5,200 c 0.33992,-0.55 0.14148,-1 -0.44098,-1 -0.58246,0 -1.05902,0.45 -1.05902,1 0,0.55 0.19844,1 0.44098,1 0.24254,0 0.7191,-0.45 1.05902,-1 z m 132.25047,-0.75 C 395.99459,198.51682 395.30531,198 394.08333,198 392.855,198 392,198.64569 392,199.57332 c 0,1.83788 3.12044,1.56887 3.75047,-0.32332 z M 303,196 c 0,-0.55 -0.45,-1 -1,-1 -0.55,0 -1,0.45 -1,1 0,0.55 0.45,1 1,1 0.55,0 1,-0.45 1,-1 z m 77,-1.55902 C 380,193.64844 379.325,193 378.5,193 c -1.50623,0 -2.05568,2.11099 -0.86052,3.30615 C 378.57272,197.23939 380,196.11163 380,194.44098 Z M 369,195 c 0,-0.55 -0.92656,-1 -2.05902,-1 -1.13246,0 -1.7809,0.45 -1.44098,1 0.33992,0.55 1.26648,1 2.05902,1 0.79254,0 1.44098,-0.45 1.44098,-1 z m -45,-1 c 0,-0.55 -0.45,-1 -1,-1 -0.55,0 -1,0.45 -1,1 0,0.55 0.45,1 1,1 0.55,0 1,-0.45 1,-1 z m 12,-2.05902 C 336,191.42344 335.325,191 334.5,191 c -1.54641,0 -1.9867,1.17996 -0.86052,2.30615 0.79893,0.79893 2.36052,-0.10419 2.36052,-1.36517 z m -54.5,-0.95468 c 0,-2.1435 -2.90567,-1.8339 -3.32712,0.35451 -0.25736,1.3364 0.14991,1.74367 1.48631,1.48631 1.01244,-0.19498 1.84081,-1.02335 1.84081,-1.84082 z m 67.15492,-0.44317 C 348.32924,189.69441 347.58281,189 346.9962,189 c -0.73956,0 -0.72434,0.63946 0.0496,2.08565 1.2413,2.31939 2.53936,1.88174 1.60908,-0.54252 z M 236,190.44098 c 0,-0.85746 -0.45734,-1.27636 -1.01631,-0.9309 -0.55897,0.34546 -0.75742,1.04702 -0.44098,1.55902 0.85723,1.38704 1.45729,1.12841 1.45729,-0.62812 z m 87.55385,0.47189 c 1.03052,-1.66742 -1.28721,-3.57951 -2.66672,-2.2 C 319.73321,189.86679 320.45541,192 322,192 c 0.48508,0 1.18431,-0.48921 1.55385,-1.08713 z M 379,190.5 c 0,-0.825 -0.42344,-1.5 -0.94098,-1.5 -1.26098,0 -2.1641,1.56159 -1.36517,2.36052 C 377.82004,192.4867 379,192.04641 379,190.5 Z m -191.55279,-3.58541 c -0.32197,-0.52097 -1.01165,-0.68378 -1.53262,-0.3618 -0.52097,0.32197 -0.68378,1.01165 -0.3618,1.53262 0.32197,0.52097 1.01165,0.68378 1.53262,0.3618 0.52097,-0.32197 0.68378,-1.01165 0.3618,-1.53262 z M 382,187 c 0,-0.55 -0.45,-1 -1,-1 -0.55,0 -1,0.45 -1,1 0,0.55 0.45,1 1,1 0.55,0 1,-0.45 1,-1 z m -180,-1 c 0,-0.55 -0.45,-1 -1,-1 -0.55,0 -1,0.45 -1,1 0,0.55 0.45,1 1,1 0.55,0 1,-0.45 1,-1 z m 99,-1 c 0,-0.55 -0.45,-1 -1,-1 -0.55,0 -1,0.45 -1,1 0,0.55 0.45,1 1,1 0.55,0 1,-0.45 1,-1 z m 26,-0.5 c 0,-0.825 -0.42344,-1.5 -0.94098,-1.5 -1.26098,0 -2.1641,1.56159 -1.36517,2.36052 C 325.82004,186.4867 327,186.04641 327,184.5 Z m -9.50493,-0.49813 c 1.44391,-0.54897 2.38394,-1.38862 2.08897,-1.86589 -0.82824,-1.34012 -5.58404,-0.0791 -5.58404,1.4806 0,1.65105 0.12859,1.66523 3.49507,0.38529 z M 391.63837,182.5 c 0.31659,-0.825 0.28593,-2.25489 -0.0681,-3.17754 -0.5722,-1.49115 -0.8104,-1.51088 -2.14373,-0.17754 -0.84149,0.84149 -1.2174,2.23644 -0.85627,3.17754 0.79895,2.08201 2.3039,2.1691 3.06813,0.17754 z M 274,182 c 0,-0.55 -0.45,-1 -1,-1 -0.55,0 -1,0.45 -1,1 0,0.55 0.45,1 1,1 0.55,0 1,-0.45 1,-1 z m 6.15,-0.5 c 0,-0.5225 -0.48375,-1.11125 -1.075,-1.30833 -0.59125,-0.19709 -1.075,0.39166 -1.075,1.30833 0,0.91667 0.48375,1.50542 1.075,1.30833 0.59125,-0.19708 1.075,-0.78583 1.075,-1.30833 z M 377,180.93261 c 0,-1.68221 -0.4192,-1.93853 -2.25,-1.37577 -2.88973,0.88826 -3.08549,1.09132 -2.29112,2.37663 1.2085,1.95539 4.54112,1.22088 4.54112,-1.00086 z M 219,181 c 0,-0.55 -0.45,-1 -1,-1 -0.55,0 -1,0.45 -1,1 0,0.55 0.45,1 1,1 0.55,0 1,-0.45 1,-1 z m 44.8125,-3.9375 c 0.25,-0.75 -0.125,-1.125 -0.875,-0.875 -0.72188,0.24062 -1.50937,1.02812 -1.75,1.75 -0.25,0.75 0.125,1.125 0.875,0.875 0.72187,-0.24063 1.50937,-1.02813 1.75,-1.75 z M 225.08179,177 C 225.5868,177 226,176.27622 226,175.39159 c 0,-1.2016 -0.61137,-1.45496 -2.41724,-1.00172 -1.50318,0.37728 -2.59034,0.13466 -2.875,-0.64159 -0.36012,-0.98202 -0.75105,-0.96729 -1.83276,0.069 -1.16168,1.11295 -1.06917,1.54301 0.59631,2.77207 1.08421,0.80011 2.58352,1.21981 3.33178,0.93268 C 223.55136,177.23493 224.57677,177 225.08179,177 Z M 325.5,177 c -0.33992,-0.55 -1.04148,-1 -1.55902,-1 -0.51754,0 -0.94098,0.45 -0.94098,1 0,0.55 0.70156,1 1.55902,1 0.85746,0 1.2809,-0.45 0.94098,-1 z m 40.5,-1.55902 c 0,-1.65007 -1.58044,-1.92885 -2.5,-0.44098 -0.81551,1.31952 0.38021,3.19207 1.5691,2.45729 0.51199,-0.31643 0.9309,-1.22377 0.9309,-2.01631 z M 381,177 c 0,-0.55 -0.45,-1 -1,-1 -0.55,0 -1,0.45 -1,1 0,0.55 0.45,1 1,1 0.55,0 1,-0.45 1,-1 z m -165,-2 c 0,-0.55 -0.45,-1 -1,-1 -0.55,0 -1,0.45 -1,1 0,0.55 0.45,1 1,1 0.55,0 1,-0.45 1,-1 z m 20,0 c 0,-0.55 -0.45,-1 -1,-1 -0.55,0 -1,0.45 -1,1 0,0.55 0.45,1 1,1 0.55,0 1,-0.45 1,-1 z m 99.55385,-0.0871 c 1.03052,-1.66742 -1.28721,-3.57951 -2.66672,-2.2 C 331.73321,173.86679 332.45541,176 334,176 c 0.48508,0 1.18431,-0.48921 1.55385,-1.08713 z M 240,172 c 0,-0.55 -0.45,-1 -1,-1 -0.55,0 -1,0.45 -1,1 0,0.55 0.45,1 1,1 0.55,0 1,-0.45 1,-1 z m 140,0.18856 c 0,-0.44629 -1.00908,-1.89456 -2.2424,-3.21837 -1.9818,-2.12721 -2.28193,-2.20165 -2.58257,-0.64052 -0.1871,0.97152 0.20208,2.41979 0.86484,3.21837 1.28914,1.55332 3.96013,1.98533 3.96013,0.64052 z m -121,-2.62954 c 0,-0.24254 -0.45,-0.7191 -1,-1.05902 -0.55,-0.33992 -1,-0.14148 -1,0.44098 0,0.58246 0.45,1.05902 1,1.05902 0.55,0 1,-0.19844 1,-0.44098 z M 363,166 c 0,-0.55 -0.47656,-1 -1.05902,-1 -0.58246,0 -0.7809,0.45 -0.44098,1 0.33992,0.55 0.81648,1 1.05902,1 0.24254,0 0.44098,-0.45 0.44098,-1 z m 0,-5 c 0,-0.55 -0.45,-1 -1,-1 -0.55,0 -1,0.45 -1,1 0,0.55 0.45,1 1,1 0.55,0 1,-0.45 1,-1 z m 9,-2.58333 c 0,-0.87084 -0.53438,-1.40521 -1.1875,-1.1875 C 368.95828,157.84724 368.65074,160 370.41667,160 371.2875,160 372,159.2875 372,158.41667 Z M 345,158 c 0,-0.55 -0.47656,-1 -1.05902,-1 -0.58246,0 -0.7809,0.45 -0.44098,1 0.33992,0.55 0.81648,1 1.05902,1 0.24254,0 0.44098,-0.45 0.44098,-1 z m 8,-2.5 c 0,-0.825 -0.45,-1.5 -1,-1.5 -0.55,0 -1,0.675 -1,1.5 0,0.825 0.45,1.5 1,1.5 0.55,0 1,-0.675 1,-1.5 z m 15,-0.55902 C 368,154.42344 367.325,154 366.5,154 c -1.54641,0 -1.9867,1.17996 -0.86052,2.30615 C 366.43841,157.10508 368,156.20196 368,154.94098 Z M 242.5,154 c 0.33992,-0.55 0.14148,-1 -0.44098,-1 -0.58246,0 -1.05902,0.45 -1.05902,1 0,0.55 0.19844,1 0.44098,1 0.24254,0 0.7191,-0.45 1.05902,-1 z m 118.65,-2.5 c 0,-0.5225 -0.48375,-1.11125 -1.075,-1.30833 -0.59125,-0.19709 -1.075,0.39166 -1.075,1.30833 0,0.91667 0.48375,1.50542 1.075,1.30833 0.59125,-0.19708 1.075,-0.78583 1.075,-1.30833 z m 14.85,1.05902 c 0,-1.05548 -1.91911,-1.49891 -2.48992,-0.57533 -0.34546,0.55897 0.0734,1.01631 0.9309,1.01631 C 375.29844,153 376,152.80156 376,152.55902 Z M 264,145.5 c 0,-0.825 -0.42344,-1.5 -0.94098,-1.5 -1.26098,0 -2.1641,1.56159 -1.36517,2.36052 C 262.82004,147.4867 264,147.04641 264,145.5 Z m 84,0.5 c 0,-0.55 -0.45,-1 -1,-1 -0.55,0 -1,0.45 -1,1 0,0.55 0.45,1 1,1 0.55,0 1,-0.45 1,-1 z m -81,-1 c 0,-0.55 -0.45,-1 -1,-1 -0.55,0 -1,0.45 -1,1 0,0.55 0.45,1 1,1 0.55,0 1,-0.45 1,-1 z m 67.87812,0.0965 c 0.75796,-0.48009 1.06815,-1.37441 0.68931,-1.98739 -0.7934,-1.28375 -4.56743,0.30776 -4.56743,1.92608 0,1.19499 2.0374,1.2272 3.87812,0.0613 z M 311,144 c 0,-0.55 -0.45,-1 -1,-1 -0.55,0 -1,0.45 -1,1 0,0.55 0.45,1 1,1 0.55,0 1,-0.45 1,-1 z m 35.75047,-2.75 C 346.99459,140.51682 346.30531,140 345.08333,140 343.855,140 343,140.64569 343,141.57332 c 0,1.83788 3.12044,1.56887 3.75047,-0.32332 z M 395,142.55902 c 0,-1.05548 -1.91911,-1.49891 -2.48992,-0.57533 -0.34546,0.55897 0.0734,1.01631 0.9309,1.01631 C 394.29844,143 395,142.80156 395,142.55902 Z M 264,139.5 c 1.04007,-1.2532 0.89568,-1.5 -0.87756,-1.5 -1.21995,0 -2.12244,0.63782 -2.12244,1.5 0,0.825 0.3949,1.5 0.87756,1.5 0.48265,0 1.43775,-0.675 2.12244,-1.5 z m 56,-2 c 0,-0.825 -0.45,-1.5 -1,-1.5 -0.55,0 -1,0.675 -1,1.5 0,0.825 0.45,1.5 1,1.5 0.55,0 1,-0.675 1,-1.5 z m 18.55385,-0.58713 c 1.03052,-1.66742 -1.28721,-3.57951 -2.66672,-2.2 C 334.73321,135.86679 335.45541,138 337,138 c 0.48508,0 1.18431,-0.48921 1.55385,-1.08713 z M 379,137.55902 c 0,-0.24254 -0.45,-0.7191 -1,-1.05902 -0.55,-0.33992 -1,-0.14148 -1,0.44098 0,0.58246 0.45,1.05902 1,1.05902 0.55,0 1,-0.19844 1,-0.44098 z m 8.82332,-1.89189 C 388.01039,134.70256 387.50849,134 386.63234,134 c -1.85773,0 -2.97896,1.63015 -2.09972,3.05279 0.90454,1.46356 2.90118,0.62281 3.2907,-1.38566 z M 328.5,133 c 0.33992,-0.55 0.14148,-1 -0.44098,-1 -0.58246,0 -1.05902,0.45 -1.05902,1 0,0.55 0.19844,1 0.44098,1 0.24254,0 0.7191,-0.45 1.05902,-1 z m 60.95729,-0.9309 c 0.73955,-1.1966 -1.14162,-2.38223 -2.4736,-1.55902 C 385.86533,131.20126 386.59952,133 388,133 c 0.48508,0 1.14086,-0.41891 1.45729,-0.9309 z M 304,131 c 0,-0.55 -0.45,-1 -1,-1 -0.55,0 -1,0.45 -1,1 0,0.55 0.45,1 1,1 0.55,0 1,-0.45 1,-1 z m -24.55279,-2.08541 c -0.32197,-0.52097 -1.01165,-0.68378 -1.53262,-0.3618 -0.52097,0.32197 -0.68378,1.01165 -0.3618,1.53262 0.32197,0.52097 1.01165,0.68378 1.53262,0.3618 0.52097,-0.32197 0.68378,-1.01165 0.3618,-1.53262 z M 285,130 c 0,-0.55 -0.45,-1 -1,-1 -0.55,0 -1,0.45 -1,1 0,0.55 0.45,1 1,1 0.55,0 1,-0.45 1,-1 z m 73.5,-1 c 0.33992,-0.55 -0.11008,-1 -1,-1 -0.88992,0 -1.33992,0.45 -1,1 0.33992,0.55 0.78992,1 1,1 0.21008,0 0.66008,-0.45 1,-1 z m 17.5,-2 c 0,-0.55 -0.45,-1 -1,-1 -0.55,0 -1,0.45 -1,1 0,0.55 0.45,1 1,1 0.55,0 1,-0.45 1,-1 z m -9.5,-2 c 0.33992,-0.55 0.14148,-1 -0.44098,-1 -0.58246,0 -1.05902,0.45 -1.05902,1 0,0.55 0.19844,1 0.44098,1 0.24254,0 0.7191,-0.45 1.05902,-1 z m 22.30833,-1.075 c -0.19708,-0.59125 -0.78583,-1.075 -1.30833,-1.075 -0.5225,0 -1.11125,0.48375 -1.30833,1.075 -0.19709,0.59125 0.39166,1.075 1.30833,1.075 0.91667,0 1.50542,-0.48375 1.30833,-1.075 z M 302,122 c 0,-0.55 -0.45,-1 -1,-1 -0.55,0 -1,0.45 -1,1 0,0.55 0.45,1 1,1 0.55,0 1,-0.45 1,-1 z m 94,-0.83333 c 0,-1.30208 -1.18877,-2.16804 -2.15579,-1.57039 C 392.80999,120.23547 393.70176,122 395.05902,122 395.57656,122 396,121.625 396,121.16667 Z m -10.625,-1.96442 c 0.79065,-1.27929 -1.04345,-3.52519 -2.2632,-2.77135 -1.60541,0.9922 -1.36774,3.5691 0.32918,3.5691 0.79254,0 1.66285,-0.35899 1.93402,-0.79775 z M 394,110 c 0,-0.55 -0.45,-1 -1,-1 -0.55,0 -1,0.45 -1,1 0,0.55 0.45,1 1,1 0.55,0 1,-0.45 1,-1 z m -16,-5.5 c 0,-1.375 -0.35185,-2.5 -0.78189,-2.5 -0.43004,0 -0.875,1.125 -0.9888,2.5 -0.1138,1.375 0.23805,2.5 0.78189,2.5 0.54384,0 0.9888,-1.125 0.9888,-2.5 z m -3,-0.5 c 0,-0.55 -0.64844,-1 -1.44098,-1 -0.79254,0 -1.7191,0.45 -2.05902,1 -0.33992,0.55 0.30852,1 1.44098,1 1.13246,0 2.05902,-0.45 2.05902,-1 z m 10,-1.91821 C 385,99.802521 383.62795,98 381.89301,98 c -2.13568,0 -2.49928,1.993728 -0.69301,3.8 1.41653,1.41653 3.8,1.59328 3.8,0.28179 z m -51,-1.52277 c 0,-0.24254 -0.45,-0.719101 -1,-1.05902 -0.55,-0.339919 -1,-0.141476 -1,0.440983 0,0.582457 0.45,1.059017 1,1.059017 0.55,0 1,-0.19844 1,-0.44098 z M 354.5,100 c 0.33992,-0.55 0.14148,-1 -0.44098,-1 C 353.47656,99 353,99.45 353,100 c 0,0.55 0.19844,1 0.44098,1 0.24254,0 0.7191,-0.45 1.05902,-1 z m 3.5,0 c 0,-0.55 -0.45,-1 -1,-1 -0.55,0 -1,0.45 -1,1 0,0.55 0.45,1 1,1 0.55,0 1,-0.45 1,-1 z m -5,-4.5 c 0,-0.825 -0.42344,-1.5 -0.94098,-1.5 -1.26098,0 -2.1641,1.561589 -1.36517,2.36052 C 351.82004,97.486704 353,97.04641 353,95.5 Z M 377,94 c 0,-0.55 -0.45,-1 -1,-1 -0.55,0 -1,0.45 -1,1 0,0.55 0.45,1 1,1 0.55,0 1,-0.45 1,-1 z m -9.5,-4 c 0.33992,-0.55 0.14148,-1 -0.44098,-1 C 366.47656,89 366,89.45 366,90 c 0,0.55 0.19844,1 0.44098,1 0.24254,0 0.7191,-0.45 1.05902,-1 z M 356,87 c 0,-0.55 -0.45,-1 -1,-1 -0.55,0 -1,0.45 -1,1 0,0.55 0.45,1 1,1 0.55,0 1,-0.45 1,-1 z m 8,-8 c 0,-0.55 -0.45,-1 -1,-1 -0.55,0 -1,0.45 -1,1 0,0.55 0.45,1 1,1 0.55,0 1,-0.45 1,-1 z"
         id="path5" />
      <path
         style="fill-opacity:1;fill:#efecdb"
         d="m 306.25,292.31067 c 0.9625,-0.25152 2.5375,-0.25152 3.5,0 0.9625,0.25153 0.175,0.45733 -1.75,0.45733 -1.925,0 -2.7125,-0.2058 -1.75,-0.45733 z m -180,-1 c 0.9625,-0.25152 2.5375,-0.25152 3.5,0 0.9625,0.25153 0.175,0.45733 -1.75,0.45733 -1.925,0 -2.7125,-0.2058 -1.75,-0.45733 z m 115.5625,0.006 c 0.72187,-0.28887 1.58437,-0.25335 1.91667,0.0789 0.33229,0.33229 -0.25834,0.56864 -1.3125,0.52522 -1.16495,-0.048 -1.4019,-0.28494 -0.60417,-0.60416 z m 5,0 c 0.72187,-0.28887 1.58437,-0.25335 1.91667,0.0789 0.33229,0.33229 -0.25834,0.56864 -1.3125,0.52522 -1.16495,-0.048 -1.4019,-0.28494 -0.60417,-0.60416 z m 134,-2 c 0.72187,-0.28887 1.58438,-0.25335 1.91667,0.0789 0.33229,0.33229 -0.25834,0.56864 -1.3125,0.52522 -1.16495,-0.048 -1.4019,-0.28494 -0.60417,-0.60416 z m -256,-5 c 0.72187,-0.28887 1.58437,-0.25335 1.91667,0.0789 0.33229,0.33229 -0.25834,0.56864 -1.3125,0.52522 -1.16495,-0.048 -1.4019,-0.28494 -0.60417,-0.60416 z m 68.4375,-1.00622 c 0.9625,-0.25152 2.5375,-0.25152 3.5,0 0.9625,0.25153 0.175,0.45733 -1.75,0.45733 -1.925,0 -2.7125,-0.2058 -1.75,-0.45733 z M 316,282.62244 c 0,-0.20765 0.7875,-0.99515 1.75,-1.75 1.58606,-1.24387 1.62143,-1.2085 0.37756,0.37756 C 316.82119,282.91575 316,283.44548 316,282.62244 Z M 302.27236,278 c 0,-2.475 0.19502,-3.4875 0.43337,-2.25 0.23836,1.2375 0.23836,3.2625 0,4.5 -0.23835,1.2375 -0.43337,0.225 -0.43337,-2.25 z m 74.54014,3.31689 c 0.72187,-0.28887 1.58438,-0.25335 1.91667,0.0789 0.33229,0.33229 -0.25834,0.56864 -1.3125,0.52522 -1.16495,-0.048 -1.4019,-0.28494 -0.60417,-0.60416 z M 173.15789,270 c 0,-1.375 0.22698,-1.9375 0.50439,-1.25 0.27741,0.6875 0.27741,1.8125 0,2.5 -0.27741,0.6875 -0.50439,0.125 -0.50439,-1.25 z m -63.07894,-2.58333 c 0.048,-1.16495 0.28494,-1.4019 0.60416,-0.60417 0.28887,0.72187 0.25335,1.58438 -0.0789,1.91667 -0.3323,0.33229 -0.56864,-0.25834 -0.52522,-1.3125 z m 72.116,-2.91667 c 0.0204,-1.65 0.2445,-2.20394 0.49804,-1.23097 0.25354,0.97297 0.23687,2.32297 -0.0371,3 -0.27393,0.67703 -0.48137,-0.11903 -0.46099,-1.76903 z m 183,-1 c 0.0204,-1.65 0.2445,-2.20394 0.49804,-1.23097 0.25354,0.97297 0.23687,2.32297 -0.0371,3 -0.27393,0.67703 -0.48137,-0.11903 -0.46099,-1.76903 z M 355.15789,260 c 0,-1.375 0.22698,-1.9375 0.50439,-1.25 0.27741,0.6875 0.27741,1.8125 0,2.5 -0.27741,0.6875 -0.50439,0.125 -0.50439,-1.25 z m -86.88553,-9 c 0,-2.475 0.19502,-3.4875 0.43337,-2.25 0.23836,1.2375 0.23836,3.2625 0,4.5 -0.23835,1.2375 -0.43337,0.225 -0.43337,-2.25 z m -94.19341,-2.58333 c 0.048,-1.16495 0.28494,-1.4019 0.60416,-0.60417 0.28887,0.72187 0.25335,1.58437 -0.0789,1.91667 -0.3323,0.33229 -0.56864,-0.25834 -0.52522,-1.3125 z m 52,0 c 0.048,-1.16495 0.28494,-1.4019 0.60416,-0.60417 0.28887,0.72187 0.25335,1.58437 -0.0789,1.91667 -0.3323,0.33229 -0.56864,-0.25834 -0.52522,-1.3125 z m -105,-2 c 0.048,-1.16495 0.28494,-1.4019 0.60416,-0.60417 0.28887,0.72187 0.25335,1.58437 -0.0789,1.91667 -0.3323,0.33229 -0.56864,-0.25834 -0.52522,-1.3125 z M 258.15789,245 c 0,-1.375 0.22698,-1.9375 0.50439,-1.25 0.27741,0.6875 0.27741,1.8125 0,2.5 -0.27741,0.6875 -0.50439,0.125 -0.50439,-1.25 z m 113.65461,1.31689 c 0.72187,-0.28887 1.58438,-0.25335 1.91667,0.0789 0.33229,0.33229 -0.25834,0.56864 -1.3125,0.52522 -1.16495,-0.048 -1.4019,-0.28494 -0.60417,-0.60416 z m 12.75179,-4.02376 c -0.54268,-1.4252 -0.42782,-1.54006 0.5598,-0.5598 0.68342,0.67834 0.99067,1.48524 0.68278,1.79313 -0.30789,0.30789 -0.86705,-0.24711 -1.24258,-1.23333 z M 174.19495,240.5 c 0.0204,-1.65 0.2445,-2.20394 0.49804,-1.23097 0.25354,0.97297 0.23687,2.32297 -0.0371,3 -0.27393,0.67703 -0.48137,-0.11903 -0.46099,-1.76903 z m 139.67749,-2.25 c -1.24387,-1.58606 -1.2085,-1.62143 0.37756,-0.37756 1.66575,1.30637 2.19548,2.12756 1.37244,2.12756 -0.20765,0 -0.99515,-0.7875 -1.75,-1.75 z m -4,-5 c -1.24387,-1.58606 -1.2085,-1.62143 0.37756,-0.37756 1.66575,1.30637 2.19548,2.12756 1.37244,2.12756 -0.20765,0 -0.99515,-0.7875 -1.75,-1.75 z M 268.32007,223 c 0,-3.575 0.1815,-5.0375 0.40333,-3.25 0.22182,1.7875 0.22182,4.7125 0,6.5 -0.22183,1.7875 -0.40333,0.325 -0.40333,-3.25 z M 112.232,218 c 0,-1.925 0.2058,-2.7125 0.45733,-1.75 0.25152,0.9625 0.25152,2.5375 0,3.5 -0.25153,0.9625 -0.45733,0.175 -0.45733,-1.75 z m 62.11741,-6 c 0,-4.675 0.17226,-6.5875 0.3828,-4.25 0.21053,2.3375 0.21053,6.1625 0,8.5 -0.21054,2.3375 -0.3828,0.425 -0.3828,-4.25 z m 180.9868,0 c 0,-4.125 0.17651,-5.8125 0.39226,-3.75 0.21574,2.0625 0.21574,5.4375 0,7.5 -0.21575,2.0625 -0.39226,0.375 -0.39226,-3.75 z m -129.25726,3.41667 c 0.048,-1.16495 0.28494,-1.4019 0.60416,-0.60417 0.28887,0.72187 0.25335,1.58437 -0.0789,1.91667 -0.3323,0.33229 -0.56864,-0.25834 -0.52522,-1.3125 z M 142.87244,214.25 c -1.24387,-1.58606 -1.2085,-1.62143 0.37756,-0.37756 1.66575,1.30637 2.19548,2.12756 1.37244,2.12756 -0.20765,0 -0.99515,-0.7875 -1.75,-1.75 z m -5.31357,-8.7818 C 136.49125,204.66069 136.09865,204 136.68643,204 c 0.58777,0 1.62888,0.675 2.31357,1.5 1.5572,1.87632 1.06734,1.86551 -1.44113,-0.0318 z m 108.71016,-0.16119 c 0.97297,-0.25354 2.32297,-0.23687 3,0.0371 0.67703,0.27393 -0.11903,0.48137 -1.76903,0.46099 -1.65,-0.0204 -2.20394,-0.2445 -1.23097,-0.49804 z M 130.8125,204.31689 c 0.72187,-0.28887 1.58437,-0.25335 1.91667,0.0789 0.33229,0.33229 -0.25834,0.56864 -1.3125,0.52522 -1.16495,-0.048 -1.4019,-0.28494 -0.60417,-0.60416 z m 250.69458,-5.30544 c -0.35034,-0.56686 0.0511,-0.7345 0.94098,-0.39301 1.73242,0.66479 2.04939,1.38156 0.61096,1.38156 -0.51754,0 -1.21592,-0.44485 -1.55194,-0.98855 z m -72.69458,-1.69456 c 0.72187,-0.28887 1.58438,-0.25335 1.91667,0.0789 0.33229,0.33229 -0.25834,0.56864 -1.3125,0.52522 -1.16495,-0.048 -1.4019,-0.28494 -0.60417,-0.60416 z m 55.4375,-0.0519 c 2.6125,-0.206 6.8875,-0.206 9.5,0 2.6125,0.206 0.475,0.37454 -4.75,0.37454 -5.225,0 -7.3625,-0.16854 -4.75,-0.37454 z"
         id="path4" />
      <path
         style="fill-opacity:1;fill:#efecdb"
         d="m 356.07895,285.41667 c 0.048,-1.16495 0.28494,-1.4019 0.60416,-0.60417 0.28887,0.72187 0.25335,1.58438 -0.0789,1.91667 -0.33229,0.33229 -0.56864,-0.25834 -0.52522,-1.3125 z M 173.15789,284 c 0,-1.375 0.22698,-1.9375 0.50439,-1.25 0.27741,0.6875 0.27741,1.8125 0,2.5 -0.27741,0.6875 -0.50439,0.125 -0.50439,-1.25 z m 120.03706,-1.5 c 0.0204,-1.65 0.2445,-2.20394 0.49804,-1.23097 0.25354,0.97297 0.23687,2.32297 -0.0371,3 -0.27393,0.67703 -0.48137,-0.11903 -0.46099,-1.76903 z m -181.94277,-5 c 0.0111,-2.2 0.21589,-2.98225 0.45508,-1.73834 0.23919,1.24391 0.23011,3.04391 -0.0202,4 -0.25029,0.95609 -0.446,-0.0617 -0.4349,-2.26166 z m 207.90571,0.5 c 0,-1.375 0.22698,-1.9375 0.50439,-1.25 0.27741,0.6875 0.27741,1.8125 0,2.5 -0.27741,0.6875 -0.50439,0.125 -0.50439,-1.25 z m -82.96294,-1.5 c 0.0204,-1.65 0.2445,-2.20394 0.49804,-1.23097 0.25354,0.97297 0.23687,2.32297 -0.0371,3 -0.27393,0.67703 -0.48137,-0.11903 -0.46099,-1.76903 z m -9.116,-1.08333 c 0.048,-1.16495 0.28494,-1.4019 0.60416,-0.60417 0.28887,0.72187 0.25335,1.58438 -0.0789,1.91667 -0.3323,0.33229 -0.56864,-0.25834 -0.52522,-1.3125 z M 364.25218,272.5 c 0.0111,-2.2 0.21589,-2.98225 0.45508,-1.73834 0.23919,1.24391 0.23011,3.04391 -0.0202,4 -0.25029,0.95609 -0.446,-0.0617 -0.4349,-2.26166 z m -35.17323,-2.08333 c 0.048,-1.16495 0.28494,-1.4019 0.60416,-0.60417 0.28887,0.72187 0.25335,1.58438 -0.0789,1.91667 -0.33229,0.33229 -0.56864,-0.25834 -0.52522,-1.3125 z m -63,-3 c 0.048,-1.16495 0.28494,-1.4019 0.60416,-0.60417 0.28887,0.72187 0.25335,1.58438 -0.0789,1.91667 -0.33229,0.33229 -0.56864,-0.25834 -0.52522,-1.3125 z m 53,-1 c 0.048,-1.16495 0.28494,-1.4019 0.60416,-0.60417 0.28887,0.72187 0.25335,1.58438 -0.0789,1.91667 -0.33229,0.33229 -0.56864,-0.25834 -0.52522,-1.3125 z m 36,-3 c 0.048,-1.16495 0.28494,-1.4019 0.60416,-0.60417 0.28887,0.72187 0.25335,1.58438 -0.0789,1.91667 -0.33229,0.33229 -0.56864,-0.25834 -0.52522,-1.3125 z M 121.32814,257.5 c 0.004,-3.85 0.18518,-5.30246 0.40166,-3.2277 0.21647,2.07477 0.21284,5.22477 -0.008,7 -0.22091,1.77524 -0.39803,0.0777 -0.39359,-3.7723 z m 145.86681,3 c 0.0204,-1.65 0.2445,-2.20394 0.49804,-1.23097 0.25354,0.97297 0.23687,2.32297 -0.0371,3 -0.27393,0.67703 -0.48137,-0.11903 -0.46099,-1.76903 z m -156,-1 c 0.0204,-1.65 0.2445,-2.20394 0.49804,-1.23097 0.25354,0.97297 0.23687,2.32297 -0.037,3 -0.27393,0.67703 -0.48137,-0.11903 -0.46099,-1.76903 z M 356.33621,245 c 0,-4.125 0.17651,-5.8125 0.39226,-3.75 0.21574,2.0625 0.21574,5.4375 0,7.5 -0.21575,2.0625 -0.39226,0.375 -0.39226,-3.75 z m 9.82168,5 c 0,-1.375 0.22698,-1.9375 0.50439,-1.25 0.27741,0.6875 0.27741,1.8125 0,2.5 -0.27741,0.6875 -0.50439,0.125 -0.50439,-1.25 z M 111.38536,239 c 0,-6.875 0.15977,-9.6875 0.35504,-6.25 0.19527,3.4375 0.19527,9.0625 0,12.5 -0.19527,3.4375 -0.35504,0.625 -0.35504,-6.25 z M 376.75,245.33772 c 0.6875,-0.27741 1.8125,-0.27741 2.5,0 0.6875,0.27741 0.125,0.50439 -1.25,0.50439 -1.375,0 -1.9375,-0.22698 -1.25,-0.50439 z M 121.29966,236 c 0,-3.025 0.18747,-4.2625 0.41659,-2.75 0.22913,1.5125 0.22913,3.9875 0,5.5 -0.22912,1.5125 -0.41659,0.275 -0.41659,-2.75 z m 244.85823,-4 c 0,-1.375 0.22698,-1.9375 0.50439,-1.25 0.27741,0.6875 0.27741,1.8125 0,2.5 -0.27741,0.6875 -0.50439,0.125 -0.50439,-1.25 z m -11.07894,-3.58333 c 0.048,-1.16495 0.28494,-1.4019 0.60416,-0.60417 0.28887,0.72187 0.25335,1.58437 -0.0789,1.91667 -0.33229,0.33229 -0.56864,-0.25834 -0.52522,-1.3125 z m -234,-6 c 0.048,-1.16495 0.28494,-1.4019 0.60416,-0.60417 0.28887,0.72187 0.25335,1.58437 -0.0789,1.91667 -0.3323,0.33229 -0.56864,-0.25834 -0.52522,-1.3125 z M 181.36523,214.5 c 0.003,-5.5 0.17053,-7.62242 0.37317,-4.71648 0.20265,2.90594 0.20052,7.40594 -0.005,10 -0.20525,2.59406 -0.37104,0.21648 -0.36844,-5.28352 z m 111.79266,6.5 c 0,-1.375 0.22698,-1.9375 0.50439,-1.25 0.27741,0.6875 0.27741,1.8125 0,2.5 -0.27741,0.6875 -0.50439,0.125 -0.50439,-1.25 z m -171.90571,-5.5 c 0.0111,-2.2 0.21589,-2.98225 0.45508,-1.73834 0.23919,1.24391 0.23011,3.04391 -0.0202,4 -0.25029,0.95609 -0.446,-0.0617 -0.4349,-2.26166 z m 145.82677,-4.08333 c 0.048,-1.16495 0.28494,-1.4019 0.60416,-0.60417 0.28887,0.72187 0.25335,1.58437 -0.0789,1.91667 -0.33229,0.33229 -0.56864,-0.25834 -0.52522,-1.3125 z M 328.15789,211 c 0,-1.375 0.22698,-1.9375 0.50439,-1.25 0.27741,0.6875 0.27741,1.8125 0,2.5 -0.27741,0.6875 -0.50439,0.125 -0.50439,-1.25 z m -18.88886,-4.69299 c 0.97297,-0.25354 2.32297,-0.23687 3,0.0371 0.67703,0.27393 -0.11903,0.48137 -1.76903,0.46099 -1.65,-0.0204 -2.20394,-0.2445 -1.23097,-0.49804 z m -68.5357,-1.4311 c 0.67834,-0.68342 1.48524,-0.99067 1.79313,-0.68278 0.30789,0.30789 -0.24711,0.86705 -1.23333,1.24258 -1.4252,0.54268 -1.54006,0.42782 -0.5598,-0.5598 z m 128.07917,0.44098 c 0.72187,-0.28887 1.58438,-0.25335 1.91667,0.0789 0.33229,0.33229 -0.25834,0.56864 -1.3125,0.52522 -1.16495,-0.048 -1.4019,-0.28494 -0.60417,-0.60416 z m 10.9375,-0.97917 c 0.6875,-0.27741 1.8125,-0.27741 2.5,0 0.6875,0.27741 0.125,0.50439 -1.25,0.50439 -1.375,0 -1.9375,-0.22698 -1.25,-0.50439 z M 323.87244,201.25 c -1.24387,-1.58606 -1.2085,-1.62143 0.37756,-0.37756 1.66575,1.30637 2.19548,2.12756 1.37244,2.12756 -0.20765,0 -0.99515,-0.7875 -1.75,-1.75 z m 32.20651,0.16667 c 0.048,-1.16495 0.28494,-1.4019 0.60416,-0.60417 0.28887,0.72187 0.25335,1.58437 -0.0789,1.91667 -0.33229,0.33229 -0.56864,-0.25834 -0.52522,-1.3125 z M 301.75,198.33772 c 0.6875,-0.27741 1.8125,-0.27741 2.5,0 0.6875,0.27741 0.125,0.50439 -1.25,0.50439 -1.375,0 -1.9375,-0.22698 -1.25,-0.50439 z m 10.51903,-1.03071 c 0.97297,-0.25354 2.32297,-0.23687 3,0.0371 0.67703,0.27393 -0.11903,0.48137 -1.76903,0.46099 -1.65,-0.0204 -2.20394,-0.2445 -1.23097,-0.49804 z"
         id="path3" />
      <path
         style="fill-opacity:1;fill:#0f0f0f"
         d="m 116.56404,290.47074 c -4.64842,-2.31801 -5.01293,-5.01992 -4.78075,-35.43747 0.32609,-42.72169 1.81992,-53.79131 7.55319,-55.9711 1.23238,-0.46855 5.64319,-1.17075 9.8018,-1.56044 7.97085,-0.74693 10.43566,-0.0508 15.65208,4.42087 2.60552,2.23351 4.03079,10.55637 2.23947,13.0774 -0.9074,1.27704 -1.43476,1.08294 -3.54783,-1.30576 C 142.1169,212.15107 141,210.08331 141,209.09922 141,205.82862 137.72319,204 131.86239,204 c -10.61128,0 -10.86525,0.96892 -10.85138,41.39922 0.006,17.65543 0.28141,33.73578 0.61191,35.73412 0.54253,3.28042 0.95429,3.67973 4.23899,4.11088 6.57421,0.86293 12.07606,-0.46421 13.44941,-3.24422 0.76663,-1.55186 2.24544,-2.61771 3.89924,-2.81038 5.07622,-0.59138 7.39883,7.39989 3.17063,10.90898 -1.81275,1.50445 -26.91811,1.81778 -29.81715,0.37214 z m 59.38397,-1.7458 c -2.72907,-3.68083 -2.76054,-4.80965 -1.58165,-56.72494 0.68982,-30.37739 1.02852,-34 3.17895,-34 0.80008,0 1.45469,0.47656 1.45469,1.05902 0,0.58246 0.45,0.7809 1,0.44098 0.55,-0.33992 1.0171,-0.25398 1.038,0.19098 0.0209,0.44496 0.2213,12.50902 0.44534,26.80902 0.22404,14.3 0.70291,32.975 1.06417,41.5 l 0.65683,15.5 3.64783,0.0819 c 9.16406,0.20564 11.77982,0.58157 13.59408,1.95369 2.59177,1.96014 1.13617,3.28399 -4.37175,3.97603 -2.39909,0.30143 -4.71613,0.76694 -5.14898,1.03445 -0.43285,0.26752 -3.44188,0.69282 -6.68673,0.94512 -5.70517,0.4436 -5.97858,0.35238 -8.29078,-2.76621 z m 68.2362,2.19225 c -7.42488,-0.73467 -10.54654,-2.72274 -14.1216,-8.99353 l -2.522,-4.42366 -0.36775,-34.14352 c -0.32333,-30.01965 -0.17082,-34.54892 1.26277,-37.5 1.93213,-3.97734 5.88396,-7.0915 9.47856,-7.46938 16.67697,-1.75315 18.79447,-1.40887 24.50291,3.98391 4.06742,3.84251 4.41359,4.57997 4.98931,10.62899 1.30414,13.70255 1.48897,27.93572 0.50645,39 -0.56167,6.325 -1.19381,14.12231 -1.40475,17.32735 -0.80979,12.30402 -1.68297,16.48863 -3.86398,18.51776 -2.77087,2.57791 -10.48311,3.86137 -18.45992,3.07208 z m 10.96804,-7.66944 c 2.72726,-2.72726 5.75466,-65.43415 3.55008,-73.53312 -0.92482,-3.39751 -3.3479,-4.40039 -11.74384,-4.86061 L 240.5,204.5 238.2679,209 c -2.16158,4.35781 -2.23558,5.51309 -2.34204,36.56184 -0.0935,27.26609 0.12877,32.63315 1.48592,35.88127 l 1.59586,3.81941 7.54941,-0.48449 c 4.15217,-0.26647 8.02002,-0.9551 8.5952,-1.53028 z m 44.53859,7.42819 c -4.9968,-1.63887 -5.65729,-2.90086 -5.67553,-10.84415 -0.018,-7.84124 0.57656,-9.83179 2.93669,-9.83179 3.02693,0 4.91102,3.24186 5.23748,9.01187 L 302.5,284.5 309,284.15953 c 4.95586,-0.25958 7.05555,-0.85348 8.83858,-2.5 2.14293,-1.97886 2.31026,-2.82884 2,-10.15953 -0.47705,-11.27171 -4.25482,-18.76361 -18.1529,-36 -6.21398,-7.70658 -7.29714,-9.86265 -8.16177,-16.24638 -0.84204,-6.2169 0.8649,-13.95428 3.92513,-17.79217 1.94702,-2.44179 2.80511,-2.66422 12.29571,-3.18718 l 10.20262,-0.5622 3.87093,3.89397 c 3.32188,3.34165 3.96712,4.72655 4.54915,9.76398 1.24594,10.78345 -3.62314,11.11924 -7.48911,0.51647 l -2.22327,-6.09752 -6.44843,0.41061 c -7.41804,0.47234 -8.75826,1.62761 -9.77816,8.42877 -1.09647,7.31179 0.12594,10.27476 8.19832,19.87165 14.93066,17.7504 19.06593,26.02066 19.25069,38.5 0.15478,10.45424 -1.00048,13.51194 -6.08514,16.10594 -4.91081,2.50531 -18.54242,3.39328 -24.10151,1.57 z M 358.83267,289.25 c -3.77183,-4.46809 -4.24931,-9.38895 -2.88478,-29.73074 0.71513,-10.66072 0.9524,-21.10127 0.52728,-23.2012 -0.95363,-4.71052 -0.65518,-30.99577 0.3967,-34.93802 l 0.76845,-2.88004 11.28671,-0.28375 c 7.26449,-0.18263 11.76757,0.11532 12.63603,0.83609 0.74213,0.61591 1.77189,0.85868 2.28835,0.53949 1.22638,-0.75794 2.17479,1.74774 1.2363,3.26626 -0.40199,0.65042 -4.35056,1.45613 -8.82842,1.80143 -4.45564,0.3436 -8.54172,0.89827 -9.08018,1.2326 -1.03704,0.64391 -1.4725,8.67785 -1.29003,23.7997 l 0.11092,9.19182 6.79555,-0.56972 c 6.26002,-0.52482 7.02837,-0.36933 9.75,1.97311 1.62495,1.39856 2.68243,2.81562 2.34997,3.14904 -0.33246,0.33342 -4.28246,1.25288 -8.77778,2.04323 -4.49532,0.79035 -8.6108,1.7074 -9.14552,2.03787 -0.53472,0.33048 -0.98611,2.71181 -1.0031,5.29185 -0.017,2.58004 -0.46818,8.06129 -1.00266,12.18055 -0.53448,4.11927 -0.68761,9.63177 -0.34029,12.25 L 365.25766,282 h 8.33724 C 382.07114,282 389,284.03422 389,286.52272 389,287.89864 372.61614,291 365.34745,291 c -3.56815,0 -5.46837,-0.51044 -6.51478,-1.75 z"
         id="path2" />
    </g>
  </g>
</svg>
