<?xml version="1.0" encoding="UTF-8" standalone="no"?>
<!-- Created with Inkscape (http://www.inkscape.org/) -->

<svg
   version="1.1"
   id="svg1"
   width="522.89362"
   height="522.89362"
   viewBox="0 0 522.89362 522.89362"
   sodipodi:docname="left.svg"
   inkscape:version="1.3 (0e150ed6c4, 2023-07-21)"
   xmlns:inkscape="http://www.inkscape.org/namespaces/inkscape"
   xmlns:sodipodi="http://sodipodi.sourceforge.net/DTD/sodipodi-0.dtd"
   xmlns="http://www.w3.org/2000/svg"
   xmlns:svg="http://www.w3.org/2000/svg">
  <defs
     id="defs1" />
  <sodipodi:namedview
     id="namedview1"
     pagecolor="#ffffff"
     bordercolor="#000000"
     borderopacity="0.25"
     inkscape:showpageshadow="2"
     inkscape:pageopacity="0.0"
     inkscape:pagecheckerboard="0"
     inkscape:deskcolor="#d1d1d1"
     inkscape:zoom="1.1321615"
     inkscape:cx="261.44681"
     inkscape:cy="300.31052"
     inkscape:window-width="1440"
     inkscape:window-height="830"
     inkscape:window-x="-6"
     inkscape:window-y="-6"
     inkscape:window-maximized="1"
     inkscape:current-layer="g1" />
  <g
     inkscape:groupmode="layer"
     inkscape:label="Image"
     id="g1">
    <path
       style="fill:#ea3322;fill-opacity:1"
       d="m 378.53484,521.02775 c 6.48179,-2.24058 10.76208,-5.60973 22.19098,-17.46724 11.66587,-12.10338 14.4156,-17.70704 13.74689,-28.01481 -0.26013,-4.00971 -1.28035,-8.89889 -2.26717,-10.86485 -0.98682,-1.96596 -46.67165,-48.49671 -101.52184,-103.40166 l -99.72761,-99.8272 99.26558,-99.32174 C 418.63975,53.650829 414.65955,58.066131 414.68169,46.251077 414.70104,35.930882 412.02974,31.438182 397.08088,16.649261 384.62153,4.3232182 383.0612,3.1165104 377.49983,1.5059282 370.37402,-0.55771696 363.85241,-0.07057043 356.73524,3.0569882 352.76602,4.8012139 330.19646,26.876768 232.6954,124.38182 100.84389,256.23874 108.32865,247.98977 108.32865,261.44681 c 0,4.88839 0.6423,7.98438 2.43656,11.74468 1.97002,4.12864 25.58064,28.21447 123.30917,125.79104 118.02216,117.83864 121.00342,120.72271 126.41968,122.29788 7.07633,2.05795 11.53712,1.99548 18.04078,-0.25266 z"
       id="path1" />
  </g>
</svg>
