<?xml version="1.0" encoding="UTF-8" standalone="no"?>
<!-- Created with Inkscape (http://www.inkscape.org/) -->

<svg
   version="1.1"
   id="svg1"
   width="729.836"
   height="358.03"
   viewBox="0 0 729.836 358.03"
   sodipodi:docname="logo-banner.svg"
   inkscape:version="1.3 (0e150ed6c4, 2023-07-21)"
   xmlns:inkscape="http://www.inkscape.org/namespaces/inkscape"
   xmlns:sodipodi="http://sodipodi.sourceforge.net/DTD/sodipodi-0.dtd"
   xmlns="http://www.w3.org/2000/svg"
   xmlns:svg="http://www.w3.org/2000/svg">
  <defs
     id="defs1" />
  <sodipodi:namedview
     id="namedview1"
     pagecolor="#ffffff"
     bordercolor="#000000"
     borderopacity="0.25"
     inkscape:showpageshadow="2"
     inkscape:pageopacity="0.0"
     inkscape:pagecheckerboard="0"
     inkscape:deskcolor="#d1d1d1"
     inkscape:zoom="0.67583334"
     inkscape:cx="321.8249"
     inkscape:cy="387.66954"
     inkscape:window-width="1440"
     inkscape:window-height="830"
     inkscape:window-x="-6"
     inkscape:window-y="-6"
     inkscape:window-maximized="1"
     inkscape:current-layer="g1"
     showgrid="false" />
  <g
     inkscape:groupmode="layer"
     inkscape:label="Image"
     id="g1">
    <ellipse
       style="fill:#ff422f"
       id="path2"
       cx="363.99506"
       cy="174.59926"
       rx="36.991367"
       ry="25.154131" />
    <path
       style="fill:#000000"
       d="m 4.2462767,356.84577 c -3.09992,-1.39894 -3.24999996,-1.72288 -3.24999996,-7.01495 0,-6.49545 1.88349996,-7.52481 3.84469996,-2.10119 1.27807,3.53443 1.99901,3.97622 8.3115903,5.09331 2.92807,0.51816 4.07329,0.23003 5.75,-1.44668 4.33715,-4.33715 1.75451,-8.4507 -8.23866,-13.12229 C 3.3545467,334.837 0.00683674,331.01512 1.6742572e-5,326.0796 -0.00698326,321.32758 2.1805767,318.22285 7.3967467,315.57962 c 4.1761503,-2.11622 5.9022503,-2.44242 10.4437303,-1.9737 2.99238,0.30884 5.79076,0.92493 6.2186,1.36908 1.03019,1.06945 -0.067,10.30755 -1.22424,10.30755 -0.49573,0 -1.18061,-0.7875 -1.52194,-1.75 -1.42616,-4.02145 -3.52115,-5.25 -8.95256,-5.25 -4.7920703,0 -5.3865103,0.24127 -5.9300403,2.40686 -0.98562,3.92704 1.20366,6.38716 9.3559403,10.51339 8.28883,4.19533 9.84124,5.89402 10.77121,11.78608 1.5105,9.57023 -12.51188,18.27917 -22.3111703,13.85689 z m 136.5045433,0.44241 c -6.06386,-0.7623 -7.2506,-2.01703 -6.87166,-7.26536 0.43778,-6.06324 1.07895,-6.44421 3.51993,-2.09145 1.72595,3.07773 2.95675,4.01792 6.12844,4.68144 5.30362,1.10951 9.01582,-0.38951 9.92385,-4.00733 0.6029,-2.40214 0.21187,-3.23877 -2.62329,-5.61266 -1.8325,-1.53436 -5.59321,-3.86222 -8.35715,-5.17302 -6.59495,-3.12767 -8.60449,-5.50949 -9.21451,-10.92155 -0.65408,-5.80297 2.06479,-9.81057 8.26121,-12.17701 3.55831,-1.35893 5.5893,-1.53161 9.73737,-0.82788 l 5.24127,0.88919 v 4.91667 c 0,5.47879 -1.90201,7.28636 -3.43216,3.26175 -1.11627,-2.936 -2.18006,-3.68882 -6.63121,-4.69271 -5.85564,-1.32066 -9.58132,3.61386 -6.14059,8.13299 0.67783,0.89028 4.47685,3.25256 8.44226,5.24951 7.98132,4.01933 10.2617,6.98813 10.2617,13.35962 0,4.49158 -1.97687,7.69173 -6.05392,9.80005 -5.10426,2.63952 -7.32098,3.09004 -12.19154,2.47775 z m 75.24546,0.0739 c -6.86295,-1.39072 -11.0404,-5.10829 -13.4662,-11.98375 -1.9087,-5.40982 -1.9839,-15.11324 -0.15018,-19.37792 1.72756,-4.0178 8.05905,-9.99008 12.40118,-11.69761 4.42885,-1.74164 14.71207,-0.77159 18.1183,1.70915 8.31608,6.05657 9.64808,25.44161 2.30876,33.60038 -2.90535,3.22973 -9.56022,7.38361 -12.71186,7.93456 -1.65,0.28844 -4.575,0.20528 -6.5,-0.18481 z m 11.49659,-6.32953 c 6.88209,-5.93712 5.64076,-27.66262 -1.80835,-31.64926 -1.26047,-0.67458 -4.47319,-1.08572 -7.13938,-0.91363 -6.17533,0.39859 -8.21215,2.92709 -9.72829,12.0767 -0.95732,5.77726 -0.86542,7.34504 0.67208,11.46433 2.15942,5.78554 4.05857,8.12631 8.00735,9.86935 4.35916,1.92417 7.04802,1.69622 9.99659,-0.84749 z m 420.70266,6.28507 c -1.81541,-0.44178 -3.46172,-0.96789 -3.65847,-1.16915 -0.19675,-0.20126 -0.51142,-2.84092 -0.69926,-5.86592 -0.40557,-6.5315 1.23276,-7.3691 3.91196,-2 1.3938,2.79315 2.55434,3.66768 5.74652,4.33026 2.47399,0.51351 5.04913,0.42758 6.75,-0.22525 2.26969,-0.87115 2.75,-1.66225 2.75,-4.52937 0,-3.97218 -3.13198,-6.87077 -11.22333,-10.38699 -7.51338,-3.26505 -10.75557,-10.71038 -7.48509,-17.18865 1.82771,-3.62038 8.32059,-6.82391 14.02416,-6.91939 7.39487,-0.12378 8.68426,0.98303 8.68426,7.45457 0,6.04813 -1.49682,7.20668 -3.1572,2.44371 -1.28566,-3.68804 -3.50939,-4.97889 -8.57706,-4.97889 -4.34323,0 -6.26574,1.38861 -6.26574,4.52569 0,2.89284 3.6019,6.05308 10.75428,9.43563 3.29295,1.55732 6.72036,3.87823 7.61645,5.15759 1.83481,2.61955 2.16884,10.00438 0.58627,12.96143 -2.6794,5.00651 -12.93254,8.61561 -19.75775,6.95473 z M 42.423657,356.3766 c -0.99445,-0.99445 -0.26184,-2.06558 2.24988,-3.28948 2.9561,-1.44045 3.09243,-2.7532 2.55224,-24.57601 -0.21827,-8.81794 -0.35178,-9.32715 -2.7295,-10.41051 -1.375,-0.6265 -2.5,-1.74185 -2.5,-2.47857 0,-1.01943 2.1363,-1.33948 8.94098,-1.33948 9.17901,0 12.03255,1.14368 7.73692,3.1009 -2.99575,1.36495 -3.6779,5.36865 -3.6779,21.58642 0,11.06369 0.0802,11.48253 2.65674,13.87036 1.4612,1.3542 2.4737,2.63505 2.25,2.84633 -0.58597,0.55343 -16.96921,1.20019 -17.47936,0.69004 z m 402.080153,0.19973 c -8.91149,-0.37531 -13.16342,-1.78649 -8.81163,-2.92451 2.83779,-0.74209 3.34036,-4.35531 2.89758,-20.83191 -0.31972,-11.89732 -0.52279,-13.07846 -2.47091,-14.37197 -1.16741,-0.77513 -2.12257,-2.02945 -2.12257,-2.78736 0,-1.10709 2.83931,-1.37803 14.44098,-1.37803 8.97277,0 14.6858,0.39611 15.0875,1.04609 0.92158,1.49114 -0.52484,10.95391 -1.67434,10.95391 -0.527,0 -1.4321,-1.3595 -2.01134,-3.02111 -1.26149,-3.6187 -3.50659,-4.97889 -8.21804,-4.97889 -4.19325,0 -4.73188,0.72156 -5.33504,7.14684 -0.62951,6.70592 0.66876,8.10112 7.14754,7.68126 4.82108,-0.31244 5.06274,-0.20877 5.06274,2.1719 0,1.98312 -0.4135,2.40709 -2,2.05063 -1.1,-0.24715 -3.8,-0.47215 -6,-0.5 l -4,-0.0506 -0.29582,5.06438 c -0.41663,7.13245 0.91858,10.07987 4.82606,10.65337 5.9279,0.87003 8.01118,-0.14856 10.05481,-4.91615 1.04432,-2.4363 2.3524,-4.14927 2.90685,-3.8066 0.55446,0.34267 1.0081,3.29648 1.0081,6.56402 0,5.49109 -0.17039,5.94181 -2.25,5.95199 -1.2375,0.006 -3.825,0.15736 -5.75,0.33624 -1.925,0.17889 -7.54661,0.15482 -12.49247,-0.0535 z m 62.96614,-0.33639 c -0.43011,-0.69592 0.3949,-2.07484 2.01363,-3.36556 l 2.74226,-2.18661 -0.73865,-15.76072 c -0.70687,-15.08267 -0.8405,-15.82746 -3.10619,-17.31199 -1.30215,-0.8532 -2.11985,-1.95206 -1.81712,-2.44189 0.30274,-0.48984 7.11004,-0.89062 15.12734,-0.89062 h 14.57691 l -0.63593,4.63957 c -0.34975,2.55177 -0.63592,5.25177 -0.63592,6 0,2.49839 -2.0907,1.39869 -3.1572,-1.66068 -1.26246,-3.62147 -3.50671,-4.97889 -8.23175,-4.97889 -3.18499,0 -3.57892,0.31181 -4.13435,3.27251 -0.33766,1.79988 -0.47055,5.28738 -0.29531,7.75 l 0.31861,4.47749 5.95139,0.10417 c 5.91398,0.10352 7.31094,0.96685 6.20939,3.83745 -0.41403,1.07895 -1.42975,1.17301 -4.70936,0.43613 -7.17722,-1.61261 -8.12219,-0.76542 -7.76208,6.95889 0.30042,6.44373 0.41778,6.71051 3.56066,8.09383 1.7875,0.78675 3.25,1.79925 3.25,2.25 0,0.45074 -3.3382,0.81953 -7.41821,0.81953 -4.08002,0 -8.0845,0.25568 -8.89885,0.56817 -0.81435,0.3125 -1.80852,0.0376 -2.20927,-0.61078 z m 184.77633,0.30885 c -3.9875,-0.19462 -7.25,-0.73239 -7.25,-1.19504 0,-0.46265 1.12355,-1.57736 2.49677,-2.47712 2.47299,-1.62037 2.49629,-1.77141 2.44728,-15.86501 -0.0582,-16.7369 -0.31042,-18.11934 -3.57736,-19.60785 -4.27288,-1.94686 -1.56676,-3.12122 7.19233,-3.12122 6.83643,0 8.44098,0.28514 8.44098,1.5 0,0.825 -0.41786,1.5 -0.92857,1.5 -3.2921,0 -5.08137,6.62952 -3.44114,12.75 0.56723,2.11662 1.12325,2.25 9.37935,2.25 9.95136,0 9.99036,-0.0316 9.99036,-8.10323 0,-4.31877 -0.31913,-5.08505 -2.53899,-6.09649 -2.54202,-1.15822 -3.07903,-4.39293 -0.69731,-4.20028 0.67996,0.055 4.6113,0.1675 8.7363,0.25 14.63539,0.68187 2.99836,1.34278 2.20695,9.89424 -0.26991,3.16567 -0.55166,10.37838 -0.6261,16.02825 0.36425,13.78411 10.84494,20.34672 -11.71357,16.01277 -0.29421,-0.47605 0.62779,-1.78014 2.04889,-2.89798 2.33419,-1.83607 2.58383,-2.70175 2.58383,-8.95986 0,-3.81008 -0.3375,-6.97439 -0.75,-7.03179 -0.4125,-0.0574 -4.44621,-0.23564 -8.9638,-0.39608 -5.84685,-0.20764 -8.52681,0.0854 -9.29999,1.01706 -0.6084,0.73308 -0.95422,4.0853 -0.78619,7.62096 0.26558,5.58837 0.58665,6.4546 2.79998,7.55416 2.75007,1.36621 3.36547,3.73833 1,3.85462 -0.825,0.0406 -4.7625,-0.0855 -8.75,-0.28011 z M 75.996277,354.89918 c 0,-0.76085 0.85394,-1.60668 1.89765,-1.87961 1.63831,-0.42843 1.97578,-1.77683 2.46935,-9.86664 0.48755,-7.99114 0.39806,-17.97065 -0.20307,-22.64513 -0.09016,-0.70111 -1.28893,-1.70248 -2.66393,-2.22525 -1.375,-0.52277 -2.5,-1.63664 -2.5,-2.47525 0,-1.20704 1.32966,-1.52475 6.38131,-1.52475 7.32883,0 5.90039,-1.32113 19.735483,18.25284 7.54288,10.67171 7.62178,10.74461 8.13028,7.51172 0.61655,-3.91984 0.14916,-16.94079 -0.70466,-19.63094 -0.33476,-1.05472 -1.49374,-2.14914 -2.57553,-2.43203 -1.08178,-0.28289 -1.96688,-1.23148 -1.96688,-2.10797 0,-1.30268 1.24751,-1.59362 6.83333,-1.59362 3.75834,0 7.13745,0.30412 7.50915,0.67581 0.3717,0.3717 -0.3408,1.75644 -1.58333,3.0772 -2.12416,2.2579 -2.28903,3.45742 -2.75915,20.07419 l -0.5,17.6728 h -2.5 c -1.88819,0 -3.35653,-1.25745 -6,-5.13825 -7.347743,-10.78701 -18.238013,-24.33269 -19.122963,-23.78576 -0.5304,0.32781 -0.69378,5.54218 -0.38374,12.24743 0.50773,10.98059 0.68824,11.78608 3.02846,13.51374 1.3687,1.01044 2.23467,2.24794 1.92437,2.75 -0.31029,0.50206 -3.68761,0.91284 -7.50515,0.91284 -5.24301,0 -6.94098,-0.33841 -6.94098,-1.38337 z m 180.000003,0.41855 c 0,-0.53065 0.9,-1.44648 2,-2.03518 1.87763,-1.00488 2,-2.09382 2,-17.79806 0,-16.10941 -0.079,-16.76417 -2.13657,-17.71481 -4.83135,-2.23216 -2.05594,-2.99311 11.90737,-3.26471 15.95743,-0.31039 16.13916,-0.23004 14.56213,6.43836 -1.15805,4.8967 -2.5795,5.14239 -4.64859,0.80346 -1.63977,-3.43862 -1.88217,-3.56158 -6.4441,-3.26863 l -4.74024,0.30439 v 7.5 7.5 l 6.31382,0.29937 c 5.31428,0.25198 6.26254,0.5686 5.98995,2 -0.25601,1.34435 -1.63112,1.763 -6.56381,1.99835 l -6.23996,0.29771 v 6.9237 6.92369 l 3.18198,0.82453 c 1.75009,0.45349 3.36259,1.36636 3.58333,2.02859 0.29431,0.88291 -2.15477,1.20406 -9.18198,1.20406 -5.48924,0 -9.58333,-0.41218 -9.58333,-0.96482 z m 76,0.0194 c 0,-0.51999 1.2375,-1.53856 2.75,-2.26348 l 2.75,-1.31804 v -16.48653 -16.48653 h -3.99213 c -3.63255,0 -4.15117,0.33777 -5.75787,3.75 -2.57699,5.4729 -3.90077,4.72709 -3.5499,-2 l 0.2999,-5.75 h 17.5 17.5 l 0.25865,5.82499 c 0.22621,5.09436 0.0381,5.78294 -1.5,5.48978 -0.96726,-0.18436 -1.89629,-1.29611 -2.06452,-2.47056 -0.48066,-3.35567 -3.57063,-5.52669 -7.35059,-5.16454 -1.83895,0.17618 -3.23104,0.65783 -3.09354,1.07033 0.1375,0.4125 0.25,7.96114 0.25,16.77475 v 16.02475 l 2.5,0.9505 c 5.0558,1.92221 2.54095,3 -7,3 -5.30114,0 -9.5,-0.41787 -9.5,-0.94543 z m 43,-0.31402 c 0,-0.6927 0.7875,-1.75137 1.75,-2.3526 1.48363,-0.92675 1.72771,-2.52353 1.60355,-10.49055 -0.0805,-5.16857 -0.19304,-12.58767 -0.25,-16.48688 -0.0962,-6.58733 -0.28462,-7.17199 -2.65994,-8.25426 -4.33906,-1.97702 -1.70262,-3.15627 7.05639,-3.15627 8.75901,0 11.39545,1.17925 7.05639,3.15626 -1.40602,0.64062 -2.62006,1.43004 -2.69788,1.75426 -0.58287,2.42835 -0.44815,11.78612 0.18124,12.58948 0.47184,0.60226 4.29883,0.80113 9.62185,0.5 l 8.8384,-0.5 0.32699,-3.43282 c 0.55774,-5.85517 -0.62529,-9.65425 -3.4,-10.91849 -4.26351,-1.94259 -1.85017,-2.94869 7.07301,-2.94869 8.93437,0 11.33621,1.00625 7.05639,2.95626 -2.32759,1.06052 -2.55962,1.70979 -2.59253,7.25426 -0.0199,3.34921 -0.17809,10.58948 -0.35158,16.08948 -0.35872,11.37221 -0.13364,12.5 2.49471,12.5 1.04115,0 1.89301,0.675 1.89301,1.5 0,1.21569 -1.61111,1.5 -8.5,1.5 -4.675,0 -8.5,-0.39825 -8.5,-0.88499 0,-0.48674 1.14425,-1.63473 2.54278,-2.55108 2.38599,-1.56336 2.52472,-2.10758 2.25,-8.82618 l -0.29278,-7.16008 -8.5,-0.0939 c -4.675,-0.0517 -9.0625,0.0915 -9.75,0.31815 -0.83871,0.27649 -1.25,2.67251 -1.25,7.28204 0,6.22447 0.23489,7.02386 2.5,8.50802 1.375,0.90093 2.5,2.03631 2.5,2.52305 0,0.48674 -3.6,0.88499 -8,0.88499 -5.76536,0 -8,-0.3518 -8,-1.25945 z m 176,0.32137 c 0,-0.54536 0.9,-1.47322 2,-2.06192 1.87551,-1.00374 2,-2.09382 2,-17.51213 0,-16.41929 -0.003,-16.444 -2.49141,-18.0742 -1.37028,-0.89784 -2.24372,-2.03322 -1.94099,-2.52305 0.30274,-0.48984 4.34888,-0.89062 8.99142,-0.89062 8.66199,0 10.62136,1.04943 5.94098,3.18195 -1.375,0.6265 -2.5171,1.40435 -2.53801,1.72857 -0.0209,0.32421 -0.1076,7.50712 -0.19267,15.96201 -0.1409,14.0048 0.013,15.49509 1.72914,16.75 4.464,3.26416 10.62522,1.02487 12.91317,-4.69328 2.20236,-5.50424 3.80475,-4.00455 3.39558,3.17796 l -0.30721,5.39278 -14.75,0.27673 c -9.26892,0.1739 -14.75,-0.0917 -14.75,-0.71481 z m 46,0.39759 c 0,-0.29727 0.96924,-1.85146 2.15387,-3.45376 2.05705,-2.7823 2.12371,-3.57836 1.48294,-17.7095 -0.65689,-14.48703 -0.72712,-14.84227 -3.3603,-16.99842 -3.77029,-3.08726 -2.2784,-3.40895 14.27165,-3.07736 13.84331,0.27736 13.95446,0.29805 14.28856,2.66052 0.55656,3.93556 -0.79744,9.119 -2.38203,9.119 -0.80008,0 -1.45469,-0.79987 -1.45469,-1.77749 0,-0.97763 -0.70052,-2.77763 -1.5567,-4 -1.2454,-1.77805 -2.52821,-2.22251 -6.41468,-2.22251 h -4.85797 l -0.33532,6.60237 c -0.18443,3.63131 -0.0602,7.04451 0.27615,7.58489 0.33631,0.54038 3.03631,0.83182 6,0.64763 5.17039,-0.32133 5.38852,-0.23369 5.38852,2.16511 0,2.60407 -0.14079,2.63269 -6.58874,1.33952 -3.85134,-0.7724 -5.91126,1.85536 -5.91126,7.54078 0,6.48294 1.5335,8.27824 7.14351,8.36305 5.75044,0.0869 6.53356,-0.43345 7.99554,-5.31313 1.68637,-5.62858 3.30927,-4.34258 3.65867,2.89915 l 0.29771,6.17063 H 612.044 c -8.27625,0 -15.04772,-0.24322 -15.04772,-0.54049 z M 299.51531,291.30358 c -0.83547,-0.92318 -1.51903,-2.18944 -1.51903,-2.81391 0,-1.33203 23.81996,-1.79122 90.28686,-1.74052 46.36563,0.0354 46.23749,0.0226 45.44815,4.5334 -0.23,1.3144 -8.4556,1.51234 -66.47972,1.59977 -60.79676,0.0916 -66.34157,-0.0376 -67.73626,-1.57874 z M 93.005707,289.96235 c -7.93959,-1.57898 -7.51585,2.78495 -7.46011,-76.82918 0.0596,-85.07513 -1.74534,-77.12783 17.450683,-76.83843 5.775,0.0871 10.95,0.11486 11.5,0.0618 0.55,-0.0531 2.89527,-0.22422 5.2117,-0.38028 2.31644,-0.15606 4.52894,-0.60097 4.91667,-0.98871 1.42564,-1.42564 2.50981,-0.6185 4.01812,2.99141 1.19615,2.86278 1.36234,5.17432 0.73692,10.25 -0.44413,3.6045 -0.71801,7.22863 -0.60862,8.05363 0.71993,5.42955 0.16972,16.44869 -1.08219,21.67288 -1.79601,7.49472 -2.27098,8.32708 -4.75162,8.32708 -1.06754,0 -1.94098,0.45 -1.94098,1 0,2.12139 -1.85284,0.8609 -2.82226,-1.91998 -0.66492,-1.90738 -1.82588,-3.03442 -3.34782,-3.25 -2.31316,-0.32765 -2.3307,-0.43545 -2.43847,-14.99022 -0.0597,-8.06311 -0.38308,-15.37561 -0.71862,-16.25 -0.88218,-2.29893 -7.38382,-2.1688 -8.00422,0.1602 -0.25639,0.9625 -0.39922,29.65 -0.31739,63.75 l 0.14878,62 h 4.34463 c 2.38954,0 4.52828,-0.29653 4.75275,-0.65895 0.22446,-0.36243 0.4502,-6.88546 0.50164,-14.49563 0.0934,-13.81941 0.77016,-17.34542 3.32917,-17.34542 0.74681,0 1.59787,-0.62552 1.89125,-1.39005 0.4744,-1.23628 6.69811,-5.00489 7.20744,-4.36429 2.56635,3.22784 2.99547,6.70455 3.30481,26.77542 0.31231,20.26319 0.21826,21.62374 -1.60894,23.27733 -1.62894,1.47418 -4.20114,1.79202 -16.01487,1.97892 -7.74084,0.12247 -15.930143,-0.14642 -18.198453,-0.59753 z m 51.470533,-0.42672 c -1.63898,-0.84909 -3.30205,-2.04089 -3.69571,-2.64844 -1.11639,-1.72296 -0.92361,-141.10789 0.19924,-144.06123 0.6307,-1.65885 1.73074,-2.54341 3.16302,-2.54341 1.2078,0 2.93597,-0.66966 3.84037,-1.48812 0.90439,-0.81847 3.07733,-1.77472 4.82874,-2.125 2.65981,-0.53197 3.19639,-0.32801 3.25729,1.23812 0.0401,1.03125 0.0257,30.675 -0.032,65.875 -0.0577,35.2 0.18927,66.3857 0.54876,69.30155 l 0.65362,5.30156 4.12833,-0.30156 4.12838,-0.30155 0.5,-22.5 c 0.275,-12.375 0.275,-28.35 0,-35.5 -0.275,-7.15 -0.275,-26.98617 0,-44.08037 l 0.5,-31.08038 4.77027,-4.76884 c 2.95686,-2.95598 5.33277,-4.55298 6.25,-4.20101 0.85983,0.32995 1.47973,-0.003 1.47973,-0.7938 0,-1.84014 2.74299,-2.78591 3.71797,-1.28193 0.43012,0.66348 0.7853,35.54794 0.7893,77.52101 0.006,66.75987 -0.18159,76.4856 -1.50111,77.67975 -2.4071,2.17839 -33.56961,2.80839 -37.5262,0.75865 z m 55.34944,-0.92345 -4.68425,-2.17037 -0.0178,-72.15855 c -0.0103,-41.57884 0.37227,-73.18457 0.90268,-74.57963 0.50627,-1.33159 1.4389,-2.42108 2.07252,-2.42108 0.63362,0 4.02862,-1.41614 7.54445,-3.14697 3.51582,-1.73084 6.72105,-2.81841 7.12271,-2.41682 0.40167,0.40159 0.82567,32.94853 0.94223,72.32653 0.11655,39.37801 0.43993,72.19058 0.71861,72.91682 0.63942,1.66631 7.73242,1.75749 9.36947,0.12044 0.82156,-0.82156 1.2,-5.71438 1.2,-15.5147 v -14.3147 l 3.25,-1.98156 c 1.7875,-1.08986 4.2625,-1.98325 5.5,-1.9853 1.2375,-0.002 2.25,-0.45374 2.25,-1.00374 0,-0.55 0.43417,-1 0.96482,-1 2.51917,0 3.2086,5.11161 3.51326,26.04834 0.31489,21.63945 0.29465,21.88905 -1.82983,22.56609 -1.18154,0.37654 -9.34518,0.72983 -18.14142,0.78509 -14.43048,0.0907 -16.45088,-0.11159 -20.67743,-2.06989 z m 64.78462,1.95106 c -0.39562,-0.39562 -2.29547,-0.77404 -4.22189,-0.84094 -7.29865,-0.25345 -6.8351,4.21294 -7.39213,-71.22507 l -0.5,-67.71468 -6.80195,-0.75118 c -3.74107,-0.41315 -8.16315,-1.45509 -9.82684,-2.31542 -2.84227,-1.46979 -2.98415,-1.81689 -2.34999,-5.74882 0.99707,-6.18199 1.81504,-6.63241 10.47878,-5.77027 4.125,0.41049 14.18104,0.57872 22.34674,0.37386 9.63028,-0.24161 15.30052,0.004 16.13824,0.69937 0.75218,0.62425 2.93679,0.80874 5.23149,0.44181 5.0246,-0.80347 7.28353,1.20845 7.28353,6.48709 0,5.87091 -2.08172,7.08356 -12.16009,7.08356 h -8.50261 l -0.1749,60.75 c -0.0962,33.4125 -0.46142,62.75071 -0.81159,65.19602 -0.81472,5.68925 -3.89148,12.66374 -5.93196,13.44675 -1.97047,0.75614 -1.9352,0.75754 -2.80483,-0.11208 z m 305.93812,-0.53069 c -0.2118,-0.6875 -0.67945,-2.57993 -1.03922,-4.20539 -0.35977,-1.62546 -0.62686,-31.69403 -0.59354,-66.81903 0.0524,-55.18679 -0.14534,-64.26185 -1.45508,-66.79461 -1.58061,-3.05657 -4.21167,-3.7836 -6.2643,-1.73097 -0.90674,0.90674 -1.2,15.90232 -1.2,61.36043 0,33.08823 -0.29153,62.28735 -0.64784,64.88691 -0.46054,3.36003 -1.19895,4.93036 -2.55413,5.43167 -1.04847,0.38785 -2.45916,1.81124 -3.13488,3.16309 -0.67572,1.35184 -1.98408,2.46312 -2.90747,2.46951 -0.92339,0.006 -2.23617,0.56888 -2.91729,1.25 -3.72835,3.72835 -3.78089,3.02372 -4.06403,-54.51161 -0.1509,-30.6625 -0.0494,-64.89984 0.22564,-76.08299 0.61178,-24.87851 -0.35094,-23.44103 15.3926,-22.98354 9.29445,0.27009 11.05507,0.586 12,2.15315 3.20979,5.32342 3.31911,5.36668 6.09942,2.41338 1.4239,-1.5125 3.13321,-2.80304 3.79845,-2.86787 5.84502,-0.56962 9.23925,-0.48555 15.70953,0.38913 4.125,0.55764 8.0625,1.45483 8.75,1.99376 0.97943,0.76777 1.25,16.62016 1.25,73.23498 0,80.10629 0.47643,74.70123 -6.60627,74.94719 -1.93015,0.067 -3.88303,0.72648 -4.33974,1.46545 -1.60692,2.60005 -2.89134,-3.7e-4 -3.54113,-7.16931 -0.36109,-3.98383 -0.7367,-35.36833 -0.83469,-69.74333 l -0.17817,-62.5 -2.36534,-0.33466 c -1.30093,-0.18407 -2.84455,0.14455 -3.43027,0.73027 -0.73476,0.73476 -1.00986,20.83683 -0.8873,64.83467 0.0977,35.07334 -0.10234,65.26472 -0.44456,67.09193 -0.4113,2.19611 -1.39437,3.6158 -2.90023,4.18832 -1.25291,0.47636 -2.57329,1.34386 -2.93418,1.92779 -0.36088,0.58392 -1.7546,1.06168 -3.09714,1.06168 -1.34254,0 -2.44098,0.45 -2.44098,1 0,1.438 -1.99046,1.23472 -2.44786,-0.25 z m 49.47837,-0.71949 c -1.87482,-1.87482 -2.03837,-3.35316 -2.13306,-19.28051 -0.0777,-13.06383 -0.66664,-52.90735 -0.87215,-59 -0.0139,-0.4125 -0.68296,-0.75 -1.48676,-0.75 -1.5274,0 -3.90312,-6.89723 -3.34736,-9.71812 0.16985,-0.86213 1.20882,-2.06575 2.30882,-2.6747 1.1,-0.60895 2.33061,-1.55718 2.73469,-2.10718 0.40408,-0.55 0.74158,-13.21265 0.75,-28.13922 0.0182,-32.20647 -0.20243,-31.47752 9.51744,-31.4495 3.29883,0.01 6.67287,0.13335 7.49787,0.27519 0.825,0.14184 4.71556,-0.10804 8.64568,-0.5553 7.22997,-0.82279 9.52766,-0.31497 12.63516,2.79253 1.14852,1.14851 1.35611,4.10922 1.03467,14.75654 -0.22117,7.32587 -0.42601,17.7265 -0.4552,23.11252 -0.0496,9.14213 -0.27922,10.22661 -3.45669,16.32266 -4.01795,7.70851 -4.1153,8.68668 -1.15362,11.59099 1.2375,1.21353 3.2625,3.55095 4.5,5.19428 2.23925,2.97359 2.25,3.16522 2.25,40.10246 0,29.42651 -0.27733,37.49386 -1.33882,38.94554 -1.18632,1.62238 -3.29022,1.87545 -18.46949,2.22164 -16.16369,0.36864 -17.24529,0.27607 -19.16118,-1.63982 z m 26.22173,-27.03051 c 0.42719,-7.09866 0.32987,-16.63156 -0.22522,-22.06143 -0.5376,-5.25878 -0.71783,-11.78378 -0.4005,-14.5 0.31732,-2.71621 0.16507,-6.51357 -0.33835,-8.43857 -0.85051,-3.25223 -1.19397,-3.5 -4.85174,-3.5 h -3.93643 l -0.16012,5 c -0.64216,20.05175 -0.948,55.55855 -0.48258,56.02397 0.31253,0.31253 2.60999,0.43499 5.10547,0.27213 l 4.53723,-0.2961 z m -5.04146,-77.14237 c 1.10046,-4.88526 2.4584,-26.60335 1.9761,-31.60442 -0.23932,-2.48161 -0.89048,-3.3917 -2.76299,-3.86167 -4.87439,-1.22339 -5.1332,-0.0432 -4.90199,22.35325 0.11785,11.41536 0.27363,20.96771 0.34618,21.22743 0.46341,1.65886 4.5337,-4.52318 5.3427,-8.11459 z M 451.99628,289.62446 c -0.825,-0.33159 -2.28756,-1.28897 -3.25014,-2.12751 -1.62229,-1.41326 -1.75801,-5.33031 -1.85785,-53.61952 -0.0592,-28.65218 -0.12566,-57.04488 -0.14762,-63.09488 -0.0465,-12.81306 1.01782,-24.235 2.33408,-25.0485 0.50684,-0.31324 0.92153,-1.58312 0.92153,-2.82196 0,-2.87912 3.55007,-6.73942 5.50716,-5.98842 0.82106,0.31507 1.49284,0.0747 1.49284,-0.53413 0,-1.94637 3.84072,-1.18419 4.5,0.89301 0.57946,1.82572 1.69855,2.4505 3.77783,2.10915 0.4278,-0.0702 1.01828,0.49893 1.31218,1.26482 0.2939,0.76588 0.61888,31.48256 0.72218,68.25927 0.1855,66.04395 0.21242,66.86991 2.18781,67.12249 4.27884,0.54711 4.76832,-0.86956 5.14357,-14.88692 l 0.35702,-13.33606 3.43911,-3.43911 c 2.91783,-2.91784 3.67565,-3.2428 4.9997,-2.14393 1.30507,1.08311 1.5606,1.02952 1.5606,-0.32727 0,-0.89234 0.65694,-1.62244 1.45986,-1.62244 2.88165,0 3.77403,7.0349 3.40041,26.80641 -0.31595,16.71963 -0.58568,19.34764 -2.14602,20.90842 -1.54575,1.54621 -3.95517,1.81494 -17.99945,2.00757 -8.91814,0.12231 -16.8898,-0.0489 -17.7148,-0.38049 z m 48.41784,-0.69542 c -0.28566,-0.74442 -0.60904,-18.61862 -0.71861,-39.72044 l -0.19923,-38.36693 -2.44565,-1.21932 c -3.3338,-1.66211 -5.39367,-8.41034 -3.42512,-11.22084 0.7636,-1.09019 2.3969,-2.12544 3.62957,-2.30056 l 2.2412,-0.3184 0.5,-29.5 0.5,-29.5 8,-0.69599 c 4.4,-0.3828 11.6,-0.50596 16,-0.2737 6.4459,0.34025 8.31694,0.8085 9.63149,2.41042 1.47158,1.79326 1.64106,8.76246 1.72921,71.10556 0.10271,72.6449 0.0908,72.85935 -4.29123,77.24139 -1.27971,1.27971 -2.17591,1.45813 -3.57177,0.71109 -1.50803,-0.80707 -1.99573,-0.58033 -2.55727,1.18892 -0.66996,2.11085 -0.7412,2.12147 -2.06715,0.30812 -1.10779,-1.51499 -1.37328,-9.2841 -1.37328,-40.18694 v -38.30887 h -3.88852 -3.88852 l 0.53309,35.3559 c 0.29321,19.44575 0.26255,36.43325 -0.0681,37.75 -0.34336,1.36729 -2.15107,3.22843 -4.21484,4.33941 -3.0928,1.66494 -3.75037,1.73701 -4.56237,0.5 -0.80896,-1.23239 -1.14632,-1.1875 -2.28997,0.30469 -1.61023,2.10097 -2.50627,2.21189 -3.20291,0.39649 z m 21.35139,-116.07559 c 0.20756,-17.6763 -0.0215,-23.11364 -1,-23.73468 -1.8057,-1.14609 -6.53385,-1.02609 -7.28224,0.18483 -0.90831,1.46968 -0.93376,31.14758 -0.0341,39.78294 l 0.76095,7.30399 3.64308,-0.30399 3.64308,-0.30399 z m -222.4618,103.96238 -3.19257,-1.38844 0.43347,-12.82242 c 0.63337,-18.73507 1.08976,-21.23433 4.08568,-22.37337 1.37291,-0.52198 5.62803,-0.94905 9.45584,-0.94905 6.63572,0 7.00729,0.12529 7.98306,2.69178 1.0737,2.82404 0.58734,33.4309 -0.56075,35.28855 -0.92706,1.5 -14.49373,1.16685 -18.20473,-0.44705 z m 11.00616,-12.98848 c 0.33153,-3.55036 0.33123,-8.74809 -6.7e-4,-11.55051 -0.52783,-4.45672 -0.86725,-5.05765 -2.70819,-4.7948 -1.97738,0.28233 -2.12184,0.98123 -2.38748,11.55051 l -0.28275,11.25 h 2.38814 c 2.20864,0 2.43346,-0.48522 2.99095,-6.4552 z m 12.38827,13.7052 c -0.72508,-1.30669 -0.86766,-32.74122 -0.16127,-35.55568 0.66066,-2.6323 0.85214,-2.69421 8.31782,-2.68935 6.66973,0.004 8.02313,0.32174 10.64159,2.4957 2.95413,2.45266 2.96942,2.51455 1,4.04794 -1.47858,1.15123 -3.21025,1.39246 -6.64215,0.92529 -5.04018,-0.68609 -6.40813,0.21695 -5.35501,3.53505 0.46269,1.45781 1.51513,1.99105 3.92969,1.99105 3.54102,0 8.90702,3.47056 8.28648,5.35944 -0.20609,0.62731 -3.03968,1.36556 -6.29686,1.64056 l -5.92215,0.5 -0.29834,7.47468 c -0.20452,5.12398 -0.80362,8.033 -1.90499,9.25 -1.63214,1.80349 -4.83709,2.39084 -5.59481,1.02532 z m 41.60716,-0.5 c -0.44496,-0.6875 -0.80902,-7.76326 -0.80902,-15.72391 v -14.47391 l -3.85416,-0.6356 c -3.99704,-0.65917 -5.83164,-2.33506 -5.38217,-4.91658 0.21447,-1.2318 2.72112,-1.54977 14.01926,-1.77835 12.07068,-0.24422 13.83641,-0.0742 14.39672,1.38592 1.10517,2.88001 -1.09812,4.87167 -5.76507,5.21134 -2.40995,0.1754 -4.72686,0.8504 -5.14869,1.5 -0.42183,0.6496 -0.69718,7.41155 -0.61189,15.02656 0.12239,10.92714 -0.14097,14.03291 -1.24946,14.73469 -2.01758,1.27733 -4.65589,1.12166 -5.59552,-0.33016 z m 21.02877,0 c -0.51126,-0.70452 -0.67379,-9.09559 -0.37245,-19.22849 l 0.53466,-17.9785 2.80888,-0.98525 c 3.60128,-1.2632 4.85598,0.50624 4.03248,5.68682 -0.66158,4.16191 0.77653,6.75542 3.7459,6.75542 2.36881,0 3.91274,-2.92597 3.91274,-7.41521 0,-2.9483 0.42142,-3.65246 2.49776,-4.17358 5.39271,-1.35349 5.50224,-0.98357 5.50224,18.58216 v 18.05613 l -2.75,1.05315 c -4.7849,1.83245 -5.55804,0.38821 -5.33063,-9.95769 l 0.20382,-9.27303 -3.81159,0.31403 -3.8116,0.31404 -0.29368,8.45016 c -0.16152,4.64759 -0.77912,9.03509 -1.37244,9.75 -1.36982,1.65054 -4.31511,1.67725 -5.49609,0.0498 z m 30.16221,0.52353 c -4.4461,-1.08651 -4.59108,-1.73977 -4.42596,-19.94309 0.0913,-10.06322 0.56878,-17.60969 1.13645,-17.96053 1.78642,-1.10407 17.3067,-0.69867 19.56718,0.5111 1.22228,0.65415 2.22233,2.05381 2.22233,3.11036 0,1.69102 -0.86801,1.95619 -7.25,2.21482 l -7.25,0.29381 v 3 c 0,2.8795 0.21567,3.02632 5.36963,3.65534 5.7325,0.69963 8.77252,2.72886 7.81731,5.2181 -0.42165,1.0988 -2.35774,1.61258 -6.88674,1.82754 l -6.3002,0.29902 v 5 5 l 5.46969,0.30988 c 6.23624,0.35331 8.03031,1.42849 8.03031,4.81256 0,2.25645 -0.32693,2.37756 -6.41821,2.37756 -3.53002,0 -7.01752,0.17151 -7.75,0.38114 -0.73249,0.20962 -2.23179,0.1612 -3.33179,-0.10761 z M 299.30429,228.0698 c -0.85282,-0.94202 -1.28512,-2.40452 -0.96068,-3.25 0.52251,-1.36164 8.17606,-1.53725 66.99884,-1.53725 70.85466,0 69.39739,-0.0995 68.47777,4.67567 -0.3224,1.67411 -3.99572,1.7732 -66.65328,1.79804 -61.35477,0.0243 -66.428,-0.10175 -67.86265,-1.68646 z M 60.246277,221.62027 c -0.80232,-0.32374 -1.25,-2.62339 -1.25,-6.42105 0,-5.88517 -0.01571,-5.91667 -2.9501,-5.91667 -2.88998,0 -2.9562,0.11717 -3.25,5.75 -0.28095,5.38669 -0.45786,5.75 -2.7999,5.75 -2.29804,0 -2.51458,-0.39162 -2.68047,-4.8476 -0.23462,-6.3024 -0.93346,-8.01453 -2.95471,-7.2389 -1.8578,0.71291 -4.36482,-1.0161 -4.36482,-3.01026 0,-0.74354 1.35,-2.04999 3,-2.90324 2.583,-1.33572 3,-2.11345 3,-5.59523 0,-3.62111 0.23511,-4.01046 2.24887,-3.72432 1.75159,0.24889 2.44638,1.25933 3.14208,4.56955 0.83623,3.97889 1.10742,4.25 4.25113,4.25 h 3.35792 v -6 c 0,-4.1415 0.38719,-5.99526 1.25,-5.98469 3.10429,0.038 5.75,4.14185 5.75,8.91895 v 3.06574 h 6.5 6.5 v 3 c 0,2.98851 -0.0222,3 -5.8,3 -3.19,0 -6.34,0.54 -7,1.2 -0.66,0.66 -1.2,3.27 -1.2,5.8 0,2.53 -0.54,5.14 -1.2,5.8 -1.27897,1.27897 -1.59452,1.32677 -3.55,0.53772 z m 618.309373,-2.58772 c -0.29219,-1.7875 -0.65008,-4.6 -0.79531,-6.25 -0.25571,-2.90515 -0.46958,-3.02516 -6.76406,-3.79575 -6.81365,-0.83414 -9.67327,-2.50735 -8.68532,-5.08192 0.43829,-1.14217 2.44641,-1.60787 7.8804,-1.82754 l 7.29223,-0.29479 0.82538,-5.20452 c 0.61925,-3.90473 1.32645,-5.36356 2.83171,-5.84131 2.78845,-0.88502 3.17529,-0.19976 3.27141,5.79497 l 0.0842,5.25086 h 3.48304 c 3.26654,0 3.52197,-0.23956 4.10951,-3.85416 0.60733,-3.7364 2.48087,-6.02752 4.10706,-5.02247 0.43731,0.27027 1.08198,2.2854 1.4326,4.47807 0.48612,3.04002 1.31783,4.33849 3.50264,5.4683 1.57583,0.81489 2.86515,2.08996 2.86515,2.8335 0,1.89406 -2.69906,3.92622 -4.36541,3.28678 -2.31864,-0.88974 -3.63459,1.45454 -3.63459,6.4748 0,3.60961 -0.44775,5.00444 -1.8468,5.75319 -2.81226,1.50507 -4.1532,-0.59403 -4.1532,-6.50138 0,-4.31001 -0.33079,-5.26987 -1.96323,-5.69676 -3.00855,-0.78676 -4.117,1.41568 -3.38827,6.73235 0.48385,3.53003 0.29205,4.97191 -0.74906,5.63109 -2.89279,1.83159 -4.79514,1.00037 -5.34007,-2.33331 z m -361.2511,-8.06023 c -0.4039,-0.65352 -0.80831,-31.93637 -0.89869,-69.51743 -0.13691,-56.92385 0.0635,-68.416652 1.2007,-68.853033 3.66796,-1.407529 18.41959,11.745383 29.77174,26.545213 5.37548,7.00802 11.77013,18.23731 14.39974,25.28657 2.17899,5.8413 4.17307,6.84934 5.28971,2.67406 0.99631,-3.72534 8.64179,-18.579 11.80605,-22.93683 12.47271,-17.17744 30.62465,-34.786152 33.20222,-32.208583 1.09285,1.092855 1.51731,137.545193 0.43331,139.299143 -0.90663,1.46696 -94.29474,1.18337 -95.20478,-0.28911 z m 55.66364,-21.27407 c 2.9342,-0.87136 7.17837,-2.72309 9.4315,-4.11494 4.33393,-2.67726 12.59659,-10.20006 12.59659,-11.46866 0,-0.41332 -1.83532,-2.45713 -4.0785,-4.54179 -10.19735,-9.47679 -21.46471,-13.64884 -30.63286,-11.34265 -7.21027,1.8137 -15.79193,6.78981 -20.4793,11.87501 l -4.18647,4.54178 5.32033,4.76522 c 7.21994,6.46662 17.69579,11.47801 24.6253,11.78014 1.13767,0.0496 4.46921,-0.62274 7.40341,-1.49411 z m -11.53763,-10.94861 c -1.44991,-3.79654 -1.54023,-5.17011 -0.55595,-8.45533 0.64635,-2.15733 1.92483,-4.67207 2.84107,-5.5883 1.55451,-1.55451 1.78087,-1.52388 3.38582,0.45815 2.70425,3.33962 3.26499,9.15268 1.3456,13.9497 -2.27843,5.69435 -4.75178,5.56596 -7.01654,-0.36422 z m -157.43428,-56.7611 c -1.375,-0.69548 -3.13026,-2.57899 -3.90057,-4.18557 -1.24937,-2.60569 -1.19539,-3.297 0.5,-6.40324 3.43148,-6.28708 11.15908,-6.19445 14.20964,0.17033 1.77215,3.69747 0.0772,8.98765 -3.38505,10.56516 -3.17628,1.4472 -4.31745,1.42466 -7.42402,-0.14668 z m 315.5,0.0862 c -7.04239,-4.0388 -5.47463,-13.28607 2.59167,-15.28672 3.40377,-0.84422 8.90833,3.56339 8.90833,7.13309 0,6.93424 -6.09323,11.25441 -11.5,8.15363 z M 363.14435,95.96097 c -0.67042,-0.80781 -1.20397,-7.70824 -1.37244,-17.75 l -0.27563,-16.42842 -7.35677,-0.656766 c -7.85669,-0.701396 -9.53814,-1.54181 -8.97736,-4.487014 0.29922,-1.571451 1.57926,-1.932927 8.34378,-2.35622 7.34741,-0.459768 8.01606,-0.681046 8.3099,-2.75 0.30786,-2.167676 0.0334,-2.25056 -7.5,-2.265313 -8.89147,-0.01741 -10.63455,-0.72064 -10.15704,-4.097777 0.31888,-2.255273 0.80626,-2.414485 8.83749,-2.88691 l 8.5,-0.5 0.0814,-5.5 c 0.1176,-7.95026 0.13849,-8 3.35963,-8 3.76629,0 4.47607,1.255558 4.52175,7.998717 l 0.0372,5.501283 8.5,0.5 c 8.03123,0.472425 8.51861,0.631637 8.83749,2.88691 0.45763,3.236596 -0.83232,3.806781 -9.0833,4.015007 -7.85581,0.198252 -9.00501,0.577618 -8.55956,2.825612 0.23398,1.180761 2.04953,1.628927 7.7655,1.916893 7.96381,0.401211 9.43146,1.062434 8.87698,3.999358 -0.28225,1.495002 -1.71134,2.020694 -7.34378,2.701418 -3.84633,0.464858 -7.55583,1.013235 -8.24333,1.218615 -0.93605,0.27963 -1.25,4.624119 -1.25,17.297817 0,14.51034 -0.22562,17.01097 -1.58179,17.53138 -2.30529,0.88463 -3.04574,0.76071 -4.27014,-0.7146 z M 246.33688,84.44129 c -3.76233,-3.27416 -9.9845,-9.15533 -13.82705,-13.069253 -5.75235,-5.859208 -6.79958,-7.412479 -5.92856,-8.79334 0.58184,-0.92241 1.5986,-1.857343 2.25946,-2.07763 1.32984,-0.443281 27.65555,26.331843 27.65555,28.127673 0,2.87011 -3.89379,1.26518 -10.1594,-4.18745 z m 228.20638,3.76525 c 0.36576,-0.59181 4.32981,-4.96874 8.80902,-9.72651 4.4792,-4.75777 10.26094,-10.911065 12.84832,-13.673986 l 4.70432,-5.023494 2.18925,2.171349 2.18925,2.171349 -8.89357,8.849571 c -12.0867,12.026901 -17.37953,16.307731 -20.16294,16.307731 -1.42174,0 -2.08621,-0.42466 -1.68365,-1.07601 z M 437.6811,77.18532 c -0.77391,-2.959437 -0.0977,-4.217804 8.16313,-15.19008 4.47557,-5.944617 7.12352,-10.344647 6.77384,-11.255908 -0.31576,-0.822855 -2.17146,-2.438563 -4.12379,-3.590462 -4.42082,-2.608351 -6.10721,-5.42734 -4.44495,-7.430242 1.79085,-2.157837 3.7528,-1.757907 8.04217,1.63934 2.13567,1.69148 4.63539,2.92898 5.55494,2.75 0.91954,-0.17898 3.23538,-3.175332 5.14629,-6.65856 3.47623,-6.336471 6.70242,-8.956875 9.63978,-7.829702 0.95912,0.368047 1.56377,1.814653 1.56377,3.74125 0,2.373304 -1.22227,4.47853 -5,8.611972 -2.75,3.008938 -5,6.02321 -5,6.698382 0,1.072442 4.85792,5.222383 8.85701,7.566215 0.85627,0.501853 1.10816,1.579408 0.68261,2.920179 -0.95757,3.017056 -4.43108,2.694032 -9.11148,-0.847334 -2.16048,-1.634699 -4.42258,-2.984699 -5.0269,-3 -0.60432,-0.0153 -3.75432,3.883368 -7,8.663708 -6.27716,9.245198 -11.48659,15.308472 -13.15269,15.308472 -0.55841,0 -1.26208,-0.94375 -1.56373,-2.09723 z M 280.90853,66.890396 c -4.62674,-6.311969 -8.79749,-11.505904 -9.26835,-11.542077 -0.47085,-0.03617 -2.56061,1.284231 -4.6439,2.934231 -4.57826,3.626052 -8.56155,3.956794 -9.56531,0.794232 -0.38504,-1.213172 -0.25925,-2.352713 0.27955,-2.532311 2.25012,-0.750042 9.28576,-6.527559 9.28576,-7.625274 0,-0.654683 -1.81113,-2.978253 -4.02473,-5.16349 -6.78558,-6.698615 -8.56518,-12.265339 -4.42852,-13.852723 3.12559,-1.199403 6.07987,1.23348 9.37066,7.716843 1.82562,3.596772 3.90372,6.763842 4.61799,7.037934 0.71427,0.274091 3.37075,-1.115994 5.90329,-3.089079 4.06085,-3.16378 4.8973,-3.454076 7.08297,-2.458218 1.36309,0.621065 2.47834,1.55379 2.47834,2.072724 0,1.08642 -7.94863,8.099362 -9.18,8.099362 -1.67274,0 -0.74029,3.783858 1.74691,7.088971 12.00029,15.946532 14.37486,20.925709 10.34534,21.692889 -1.03762,0.19755 -4.50245,-3.674053 -10,-11.174014 z m 28.08775,-27.812377 c -2.475,-4.459416 -5.73822,-10.175203 -7.25161,-12.701749 -4.18742,-6.990755 -6.88501,-13.295299 -6.31944,-14.769161 0.27955,-0.728508 1.59329,-1.324559 2.9194,-1.324559 2.04575,0 3.10211,1.401717 6.97101,9.25 2.50793,5.0875 5.96113,12.809844 7.67378,17.160764 2.55679,6.495436 2.88069,8.141736 1.81038,9.201749 -1.0684,1.058125 -2.1152,-0.17149 -5.80352,-6.817044 z m 106,5.007028 c 0,-1.97 2.91067,-9.072045 7.58195,-18.5 7.72733,-15.5959199 9.39052,-17.4504539 12.39899,-13.825469 1.00519,1.211185 -0.11732,3.955963 -6.23665,15.25 -10.28394,18.980375 -11.07249,20.259458 -12.49429,20.266649 -0.7407,0.0037 -1.25,-1.296472 -1.25,-3.19118 z m -52.5,-28.957229 c -4.31177,-2.358355 -5.8382,-7.4762929 -3.52111,-11.8058259 2.5125,-4.694655 11.65757,-4.327499 13.88327,0.557386 1.80278,3.95666 1.35375,6.3411049 -1.78524,9.4800949 -3.09553,3.095535 -5.31413,3.552953 -8.57692,1.768345 z"
       id="path1"
       sodipodi:nodetypes="ssssssssscsssssssssssssssssssscssssssssssssssssssssssssssssssssssssssssssssssssssssssssssssssssssscsssssssssscsssscsssssscssssssssssssssssssssssssssssssssssssssssssssssssssscsssssssssssssssscccssscccsssssscccssscccsssssscsssssssssssssscsssssssssssscssssscssssssssssssssccsssssssssssscssssssssscssssssssssssssssssssssssssscssssssssssssssssssscccssscsssssssccssssssssscsssssssssssscssssssssscssssssssssssscsssssssssssssscssssssssssssssssscssssssssssscssssscssscssssssssssssssssssssscsssssssssscssscccssssssssscccsssscscsssscsssscsssssssssscsssscssssssscssssscssssssssssscsssssscsscccsssssssssscsssscccssscsssssssssssssssssssssscssscccssssssssssscssscssssssssssssssssssssscsssssssscssssssssssssssssssssscssssssscssscssssssssssssscscssssscscsssssssssssssssssssssssssssssssssssssssssssssssssssss" />
  </g>
</svg>
