<?xml version="1.0" encoding="UTF-8" standalone="no"?>
<!-- Created with Inkscape (http://www.inkscape.org/) -->

<svg
   version="1.1"
   id="svg1"
   width="500"
   height="500"
   viewBox="0 0 500 500"
   sodipodi:docname="menu.svg"
   inkscape:version="1.3 (0e150ed6c4, 2023-07-21)"
   xmlns:inkscape="http://www.inkscape.org/namespaces/inkscape"
   xmlns:sodipodi="http://sodipodi.sourceforge.net/DTD/sodipodi-0.dtd"
   xmlns="http://www.w3.org/2000/svg"
   xmlns:svg="http://www.w3.org/2000/svg">
  <defs
     id="defs1" />
  <sodipodi:namedview
     id="namedview1"
     pagecolor="#ffffff"
     bordercolor="#000000"
     borderopacity="0.25"
     inkscape:showpageshadow="2"
     inkscape:pageopacity="0.0"
     inkscape:pagecheckerboard="0"
     inkscape:deskcolor="#d1d1d1"
     inkscape:zoom="1.184"
     inkscape:cx="249.5777"
     inkscape:cy="250"
     inkscape:window-width="1440"
     inkscape:window-height="830"
     inkscape:window-x="-6"
     inkscape:window-y="-6"
     inkscape:window-maximized="1"
     inkscape:current-layer="g1" />
  <g
     inkscape:groupmode="layer"
     inkscape:label="Image"
     id="g1">
    <g
       id="g2">
      <path
         style="fill:#b9b9b9;fill-opacity:1"
         d="m 97.8125,489.31689 c 0.721875,-0.28887 1.584375,-0.25335 1.916667,0.0789 0.332293,0.33229 -0.258334,0.56864 -1.3125,0.52522 -1.164943,-0.048 -1.4019,-0.28494 -0.604167,-0.60416 z m 235.92083,-0.44098 c 0.67834,-0.68342 1.48524,-0.99067 1.79313,-0.68278 0.30789,0.30789 -0.24711,0.86705 -1.23333,1.24258 -1.4252,0.54268 -1.54006,0.42782 -0.5598,-0.5598 z m 40.6,-23.33192 c 0,-0.80081 0.38234,-1.21971 0.84965,-0.9309 0.4673,0.28881 0.59075,0.94401 0.27431,1.45601 -0.80862,1.30838 -1.12396,1.16106 -1.12396,-0.52511 z m -2.6,-57.66808 c 0.67834,-0.68342 1.48524,-0.99067 1.79313,-0.68278 0.30789,0.30789 -0.24711,0.86705 -1.23333,1.24258 -1.4252,0.54268 -1.54006,0.42782 -0.5598,-0.5598 z M 388.25218,391.5 c 0.0111,-2.2 0.21589,-2.98225 0.45508,-1.73834 0.23919,1.24391 0.23011,3.04391 -0.0202,4 -0.25029,0.95609 -0.446,-0.0617 -0.4349,-2.26166 z M 334,385.60699 c 0,-0.21616 0.69837,-0.661 1.55194,-0.98855 0.88992,-0.34149 1.29132,-0.17385 0.94098,0.39301 C 335.90566,385.96166 334,386.4169 334,385.60699 Z M 385.5,374 c -0.33992,-0.55 -0.14148,-1 0.44098,-1 0.58246,0 1.05902,0.45 1.05902,1 0,0.55 -0.19844,1 -0.44098,1 -0.24254,0 -0.7191,-0.45 -1.05902,-1 z m 3.732,-12 c 0,-1.925 0.2058,-2.7125 0.45733,-1.75 0.25152,0.9625 0.25152,2.5375 0,3.5 -0.25153,0.9625 -0.45733,0.175 -0.45733,-1.75 z m 0.84695,-19.58333 c 0.048,-1.16495 0.28494,-1.4019 0.60416,-0.60417 0.28887,0.72187 0.25335,1.58438 -0.0789,1.91667 -0.33229,0.33229 -0.56864,-0.25834 -0.52522,-1.3125 z M 292,320.94098 c 0,-0.58246 0.45,-0.7809 1,-0.44098 0.55,0.33992 1,0.81648 1,1.05902 0,0.24254 -0.45,0.44098 -1,0.44098 -0.55,0 -1,-0.47656 -1,-1.05902 z M 288,308 c -0.90129,-0.58246 -1.02463,-0.97549 -0.30902,-0.98469 0.65504,-0.008 1.4691,0.43469 1.80902,0.98469 0.7673,1.24153 0.42112,1.24153 -1.5,0 z m -89.5,-13 c -0.33992,-0.55 -0.14148,-1 0.44098,-1 0.58246,0 1.05902,0.45 1.05902,1 0,0.55 -0.19844,1 -0.44098,1 -0.24254,0 -0.7191,-0.45 -1.05902,-1 z m 193.57895,-2.58333 c 0.048,-1.16495 0.28494,-1.4019 0.60416,-0.60417 0.28887,0.72187 0.25335,1.58438 -0.0789,1.91667 -0.33229,0.33229 -0.56864,-0.25834 -0.52522,-1.3125 z M 351,274.94098 c 0,-0.58246 0.45,-0.7809 1,-0.44098 0.55,0.33992 1,0.81648 1,1.05902 0,0.24254 -0.45,0.44098 -1,0.44098 -0.55,0 -1,-0.47656 -1,-1.05902 z m 44.07895,-19.52431 c 0.048,-1.16495 0.28494,-1.4019 0.60416,-0.60417 0.28887,0.72187 0.25335,1.58438 -0.0789,1.91667 -0.33229,0.33229 -0.56864,-0.25834 -0.52522,-1.3125 z m -203.34562,-1.54076 c 0.67834,-0.68342 1.48524,-0.99067 1.79313,-0.68278 0.30789,0.30789 -0.24711,0.86705 -1.23333,1.24258 -1.4252,0.54268 -1.54006,0.42782 -0.5598,-0.5598 z m 68.86968,-6.70924 c -0.28327,-0.45834 0.12038,-0.83334 0.89699,-0.83334 0.77661,0 1.18026,0.375 0.89699,0.83334 C 262.11373,247.625 261.71008,248 261.5,248 c -0.21008,0 -0.61373,-0.375 -0.89699,-0.83333 z M 396.15789,239 c 0,-1.375 0.22698,-1.9375 0.50439,-1.25 0.27741,0.6875 0.27741,1.8125 0,2.5 -0.27741,0.6875 -0.50439,0.125 -0.50439,-1.25 z m 1.03706,-19.5 c 0.0204,-1.65 0.2445,-2.20394 0.49804,-1.23097 0.25354,0.97297 0.23687,2.32297 -0.0371,3 -0.27393,0.67703 -0.48137,-0.11903 -0.46099,-1.76903 z m -141.58186,-1.68298 c 0.28881,-0.4673 0.94401,-0.59075 1.45601,-0.27431 1.30838,0.80862 1.16106,1.12396 -0.52511,1.12396 -0.80081,0 -1.21971,-0.38234 -0.9309,-0.84965 z m -92.87976,-5.94111 c 0.67834,-0.68342 1.48524,-0.99067 1.79313,-0.68278 0.30789,0.30789 -0.24711,0.86705 -1.23333,1.24258 -1.4252,0.54268 -1.54006,0.42782 -0.5598,-0.5598 z M 374,208.05902 c 0,-0.51754 0.44485,-1.21592 0.98855,-1.55194 0.56686,-0.35034 0.7345,0.0511 0.39301,0.94098 C 374.71677,209.18048 374,209.49745 374,208.05902 Z M 348.5,204 c 0.33992,-0.55 0.81648,-1 1.05902,-1 0.24254,0 0.44098,0.45 0.44098,1 0,0.55 -0.47656,1 -1.05902,1 -0.58246,0 -0.7809,-0.45 -0.44098,-1 z m 49.75218,-8.5 c 0.0111,-2.2 0.21589,-2.98225 0.45508,-1.73834 0.23919,1.24391 0.23011,3.04391 -0.0202,4 -0.25029,0.95609 -0.446,-0.0617 -0.4349,-2.26166 z m -212.63909,-8.68298 c 0.28881,-0.4673 0.94401,-0.59075 1.45601,-0.27431 1.30838,0.80862 1.16106,1.12396 -0.52511,1.12396 -0.80081,0 -1.21971,-0.38234 -0.9309,-0.84965 z M 389,183.60699 c 0,-0.21616 0.69837,-0.661 1.55194,-0.98855 0.88992,-0.34149 1.29132,-0.17385 0.94098,0.39301 C 390.90566,183.96166 389,184.4169 389,183.60699 Z m -71.38691,-1.78997 c 0.28881,-0.4673 0.94401,-0.59075 1.45601,-0.27431 1.30838,0.80862 1.16106,1.12396 -0.52511,1.12396 -0.80081,0 -1.21971,-0.38234 -0.9309,-0.84965 z M 234,174.94098 c 0,-0.58246 0.45,-0.7809 1,-0.44098 0.55,0.33992 1,0.81648 1,1.05902 0,0.24254 -0.45,0.44098 -1,0.44098 -0.55,0 -1,-0.47656 -1,-1.05902 z M 399.29966,163 c 0,-3.025 0.18747,-4.2625 0.41659,-2.75 0.22913,1.5125 0.22913,3.9875 0,5.5 -0.22912,1.5125 -0.41659,0.275 -0.41659,-2.75 z M 265.5,145 c 0.33992,-0.55 0.81648,-1 1.05902,-1 0.24254,0 0.44098,0.45 0.44098,1 0,0.55 -0.47656,1 -1.05902,1 -0.58246,0 -0.7809,-0.45 -0.44098,-1 z m 109,-18 c -0.33992,-0.55 -0.14148,-1 0.44098,-1 0.58246,0 1.05902,0.45 1.05902,1 0,0.55 -0.19844,1 -0.44098,1 -0.24254,0 -0.7191,-0.45 -1.05902,-1 z M 303.27236,13 c 0,-2.475 0.19502,-3.4875 0.43337,-2.25 0.23836,1.2375 0.23836,3.2625 0,4.5 -0.23835,1.2375 -0.43337,0.225 -0.43337,-2.25 z"
         id="path8" />
      <path
         style="fill:#a3a3a3;fill-opacity:1"
         d="m 191.8125,497.31689 c 0.72187,-0.28887 1.58437,-0.25335 1.91667,0.0789 0.33229,0.33229 -0.25834,0.56864 -1.3125,0.52522 -1.16495,-0.048 -1.4019,-0.28494 -0.60417,-0.60416 z m -11,-1 c 0.72187,-0.28887 1.58437,-0.25335 1.91667,0.0789 0.33229,0.33229 -0.25834,0.56864 -1.3125,0.52522 -1.16495,-0.048 -1.4019,-0.28494 -0.60417,-0.60416 z m -12,-1 c 0.72187,-0.28887 1.58437,-0.25335 1.91667,0.0789 0.33229,0.33229 -0.25834,0.56864 -1.3125,0.52522 -1.16495,-0.048 -1.4019,-0.28494 -0.60417,-0.60416 z m -12,-1 c 0.72187,-0.28887 1.58437,-0.25335 1.91667,0.0789 0.33229,0.33229 -0.25834,0.56864 -1.3125,0.52522 -1.16495,-0.048 -1.4019,-0.28494 -0.60417,-0.60416 z m -12,-1 c 0.72187,-0.28887 1.58437,-0.25335 1.91667,0.0789 0.33229,0.33229 -0.25834,0.56864 -1.3125,0.52522 -1.16495,-0.048 -1.4019,-0.28494 -0.60417,-0.60416 z m -12,-1 c 0.72187,-0.28887 1.58437,-0.25335 1.91667,0.0789 0.33229,0.33229 -0.25834,0.56864 -1.3125,0.52522 -1.16495,-0.048 -1.4019,-0.28494 -0.60417,-0.60416 z m -11,-1 c 0.72187,-0.28887 1.58437,-0.25335 1.91667,0.0789 0.33229,0.33229 -0.25834,0.56864 -1.3125,0.52522 -1.16495,-0.048 -1.4019,-0.28494 -0.60417,-0.60416 z m -11,-1 c 0.72187,-0.28887 1.58437,-0.25335 1.91667,0.0789 0.33229,0.33229 -0.25834,0.56864 -1.3125,0.52522 -1.16495,-0.048 -1.4019,-0.28494 -0.60417,-0.60416 z m -22,-2 c 0.721875,-0.28887 1.584375,-0.25335 1.916667,0.0789 0.332291,0.33229 -0.258334,0.56864 -1.3125,0.52522 -1.164943,-0.048 -1.4019,-0.28494 -0.604167,-0.60416 z m -13,-1 c 0.721875,-0.28887 1.584375,-0.25335 1.916667,0.0789 0.332291,0.33229 -0.258334,0.56864 -1.3125,0.52522 -1.164943,-0.048 -1.4019,-0.28494 -0.604167,-0.60416 z M 72.399941,472.5 c 0.0014,-8.25 0.156287,-11.49193 0.34419,-7.20429 0.187904,4.28763 0.186758,11.03763 -0.0025,15 C 72.55228,484.25807 72.39854,480.75 72.399941,472.5 Z M 392.5,482 c -0.33992,-0.55 -0.14148,-1 0.44098,-1 0.58246,0 1.05902,0.45 1.05902,1 0,0.55 -0.19844,1 -0.44098,1 -0.24254,0 -0.7191,-0.45 -1.05902,-1 z m -52.05385,-7.08713 c -0.36954,-0.59793 -0.26752,-1.4915 0.2267,-1.98572 0.53144,-0.53144 0.89858,-0.0873 0.89858,1.08714 0,2.27223 -0.18501,2.41996 -1.12528,0.89858 z m 83.06093,-6.90142 c -0.35034,-0.56686 0.0511,-0.7345 0.94098,-0.39301 1.73242,0.66479 2.04939,1.38156 0.61096,1.38156 -0.51754,0 -1.21592,-0.44485 -1.55194,-0.98855 z m -155,-4 c -0.35034,-0.56686 0.0511,-0.7345 0.94098,-0.39301 1.73242,0.66479 2.04939,1.38156 0.61096,1.38156 -0.51754,0 -1.21592,-0.44485 -1.55194,-0.98855 z M 417.87244,447.25 c -1.24387,-1.58606 -1.2085,-1.62143 0.37756,-0.37756 1.66575,1.30637 2.19548,2.12756 1.37244,2.12756 -0.20765,0 -0.99515,-0.7875 -1.75,-1.75 z m -6,-7 c -1.24387,-1.58606 -1.2085,-1.62143 0.37756,-0.37756 0.9625,0.75485 1.75,1.54235 1.75,1.75 0,0.82304 -0.82119,0.29331 -2.12756,-1.37244 z m -6,-7 c -1.24387,-1.58606 -1.2085,-1.62143 0.37756,-0.37756 1.66575,1.30637 2.19548,2.12756 1.37244,2.12756 -0.20765,0 -0.99515,-0.7875 -1.75,-1.75 z m -6,-7 c -1.24387,-1.58606 -1.2085,-1.62143 0.37756,-0.37756 1.66575,1.30637 2.19548,2.12756 1.37244,2.12756 -0.20765,0 -0.99515,-0.7875 -1.75,-1.75 z M 333,384.05902 c 0,-0.51754 0.44485,-1.21592 0.98855,-1.55194 0.56686,-0.35034 0.7345,0.0511 0.39301,0.94098 C 333.71677,385.18048 333,385.49745 333,384.05902 Z M 346.5,376 c 3.26557,-3.3 6.16239,-6 6.43739,-6 0.275,0 -2.17182,2.7 -5.43739,6 -3.26557,3.3 -6.16239,6 -6.43739,6 -0.275,0 2.17182,-2.7 5.43739,-6 z M 182.33333,320.54399 c 0,-0.80081 0.38234,-1.21971 0.84965,-0.9309 0.4673,0.28881 0.59075,0.94401 0.27431,1.45601 -0.80862,1.30838 -1.12396,1.16106 -1.12396,-0.52511 z M 287,310.60699 c 0,-0.21616 0.69837,-0.661 1.55194,-0.98855 0.88992,-0.34149 1.29132,-0.17385 0.94098,0.39301 C 288.90566,310.96166 287,311.4169 287,310.60699 Z m 103.56429,-10.31386 c -0.54268,-1.4252 -0.42782,-1.54006 0.5598,-0.5598 0.68342,0.67834 0.99067,1.48524 0.68278,1.79313 -0.30789,0.30789 -0.86705,-0.24711 -1.24258,-1.23333 z M 230,257.94098 c 0,-0.58246 0.45,-0.7809 1,-0.44098 0.55,0.33992 1,0.81648 1,1.05902 0,0.24254 -0.45,0.44098 -1,0.44098 -0.55,0 -1,-0.47656 -1,-1.05902 z m 30.8125,-13.62409 c 0.72187,-0.28887 1.58438,-0.25335 1.91667,0.0789 0.33229,0.33229 -0.25834,0.56864 -1.3125,0.52522 -1.16495,-0.048 -1.4019,-0.28494 -0.60417,-0.60416 z m 59.64638,-53.38342 c -1.02606,-1.66021 -0.10511,-1.89043 1.33055,-0.33261 0.70918,0.76953 0.84824,1.39914 0.30901,1.39914 -0.53922,0 -1.27702,-0.47994 -1.63956,-1.06653 z M 380.5,187 c 0.33992,-0.55 0.81648,-1 1.05902,-1 0.24254,0 0.44098,0.45 0.44098,1 0,0.55 -0.47656,1 -1.05902,1 -0.58246,0 -0.7809,-0.45 -0.44098,-1 z m -123,-18 c -0.33992,-0.55 -0.14148,-1 0.44098,-1 0.58246,0 1.05902,0.45 1.05902,1 0,0.55 -0.19844,1 -0.44098,1 -0.24254,0 -0.7191,-0.45 -1.05902,-1 z m -134.6875,-8.68311 c 0.72187,-0.28887 1.58437,-0.25335 1.91667,0.0789 0.33229,0.33229 -0.25834,0.56864 -1.3125,0.52522 -1.16495,-0.048 -1.4019,-0.28494 -0.60417,-0.60416 z m 11,-1 c 0.72187,-0.28887 1.58437,-0.25335 1.91667,0.0789 0.33229,0.33229 -0.25834,0.56864 -1.3125,0.52522 -1.16495,-0.048 -1.4019,-0.28494 -0.60417,-0.60416 z m -3.0625,-3.97917 c 0.6875,-0.27741 1.8125,-0.27741 2.5,0 0.6875,0.27741 0.125,0.50439 -1.25,0.50439 -1.375,0 -1.9375,-0.22698 -1.25,-0.50439 z m 253.70888,-18.40425 c -0.36253,-0.58659 -0.44468,-1.281 -0.18255,-1.54313 0.26212,-0.26213 0.74306,0.21781 1.06875,1.06653 0.67618,1.76211 0.0999,2.07206 -0.8862,0.4766 z M 362,79 c 0,-0.55 0.47656,-1 1.05902,-1 0.58246,0 0.7809,0.45 0.44098,1 -0.33992,0.55 -0.81648,1 -1.05902,1 C 362.19844,80 362,79.55 362,79 Z m -4,-37.5 c -4.09747,-4.125 -7.22494,-7.5 -6.94994,-7.5 0.275,0 3.85247,3.375 7.94994,7.5 4.09747,4.125 7.22494,7.5 6.94994,7.5 -0.275,0 -3.85247,-3.375 -7.94994,-7.5 z M 141.95821,40.75 c 2.45201,-2.6125 4.58951,-4.75 4.75,-4.75 0.75088,0 -0.043,0.897827 -4.45821,5.041792 L 137.5,45.5 Z"
         id="path7" />
      <path
         style="fill:#ea3322;fill-opacity:1"
         d="m 206.5,498.8968 c -6.78832,-0.81493 -15.3074,-1.57697 -88.5,-7.91636 -18.975,-1.64347 -36.8625,-3.24378 -39.75,-3.55624 L 73,486.85609 V 471.86447 456.87285 L 84.5,438.91461 96,420.95638 V 284.02267 147.08896 l 10.06429,7.10261 10.06428,7.10261 12.52305,-1.15213 c 6.88768,-0.63367 12.86554,-0.94046 13.28414,-0.68175 0.4186,0.25871 2.46991,4.54537 4.55846,9.52591 2.08855,4.98055 3.96834,8.88456 4.17731,8.67559 0.20898,-0.20897 -0.86628,-5.44846 -2.38946,-11.6433 l -2.76941,-11.26335 -14.12215,0.69949 -14.12215,0.69949 -9.63418,-12.24166 c -5.2988,-6.73291 -9.62713,-12.95509 -9.618512,-13.82706 0.03504,-3.54568 4.118252,-20.69012 6.917792,-29.0462 3.83826,-11.456422 11.20929,-26.111949 19.15313,-38.081406 C 131.62429,51.60032 153.0851,29.699195 163.5,22.735755 171.21858,17.575086 179.65167,14.654026 213,5.5899253 l 19.5,-5.30011485 12,1.33946275 c 25.12685,2.8047064 55.07005,6.4920295 56.75,6.988416 1.56867,0.463506 1.75,2.1151298 1.75,15.9393228 v 15.422237 l -13.89232,9.275146 -13.89232,9.275147 3.75723,8.985229 c 2.06647,4.941876 4.49892,10.741822 5.40544,12.888769 2.79636,6.622715 2.64733,3.549751 -0.40903,-8.433984 -1.60887,-6.308256 -2.93507,-11.557524 -2.94711,-11.66504 -0.012,-0.107516 5.94061,-3.830471 13.22811,-8.273233 l 13.25,-8.077748 4.92298,-15.476768 C 315.13061,19.964545 317.84151,13 318.44719,13 c 1.71099,0 16.16841,8.474874 22.42636,13.146239 7.42645,5.543603 23.06858,20.798336 29.21799,28.494364 2.69861,3.377332 7.37951,10.07954 10.40199,14.893796 5.08526,8.099883 5.36522,8.852997 3.75095,10.090394 -1.52591,1.169656 -1.55654,1.463561 -0.24448,2.345699 0.825,0.554675 2.0065,0.82384 2.62554,0.598146 1.21305,-0.442252 3.37446,3.49675 3.37446,6.149674 0,0.893314 0.62476,2.33464 1.38837,3.202947 C 392.78978,93.514842 398.32229,108 397.52953,108 c -0.23511,0 0.22456,1.56055 1.0215,3.46788 0.96817,2.31717 1.44897,7.12857 1.44897,14.5 C 400,136.33333 399.87914,137 398,137 c -1.1,0 -2,0.6 -2,1.33333 0,2.06948 1.18213,2.76041 2.64527,1.54611 1.09602,-0.90962 1.26171,0.89059 0.94421,10.25867 -0.21179,6.24904 -0.43107,14.20095 -0.48728,17.67091 -0.0636,3.92812 -0.47958,6.07578 -1.1022,5.69098 -0.55,-0.33992 -1,-0.17898 -1,0.35765 0,0.53663 0.49428,1.14044 1.09841,1.34182 1.22569,0.40856 -0.23325,41.72393 -2.65904,75.30053 -0.75497,10.45 -1.4127,19.675 -1.46162,20.5 -0.66176,11.16103 -2.323,27.61214 -2.82745,28 -0.35766,0.275 -0.78424,5.20894 -0.94796,10.96432 -0.16371,5.75538 -0.434,10.60067 -0.60064,10.76731 -0.88982,0.88982 -21.20396,-3.14481 -21.90139,-4.34987 C 366.76434,314.76453 363,314.50786 363,316.06127 c 0,0.68644 -1.54351,0.82981 -4.37018,0.40593 l -4.37018,-0.65535 1.46346,9.34407 c 0.8049,5.13925 2.46739,15.53578 3.69442,23.10341 l 2.23097,13.75933 -10.36758,9.614 c -5.70217,5.2877 -10.16325,9.81834 -9.9135,10.06808 0.24974,0.24975 6.61214,-3.66741 14.13866,-8.7048 10.89845,-7.29418 13.58499,-9.53973 13.19541,-11.02947 -0.26904,-1.02882 0.0256,-2.08289 0.65468,-2.34239 0.84341,-0.34789 0.82984,-0.69546 -0.0517,-1.32328 -1.08463,-0.77251 -5.02712,-30.91396 -4.15682,-31.78015 0.19377,-0.19286 5.97732,0.40453 12.85232,1.32753 l 12.5,1.67819 -0.0486,5.48682 c -0.0267,3.01774 -0.65676,21.12672 -1.40013,40.24217 -1.19541,30.73939 -1.17847,34.95696 0.14656,36.5 0.82397,0.95955 1.73856,2.41964 2.03241,3.24464 0.61554,1.72813 32.20085,38.86354 34.46054,40.51587 2.05486,1.50255 0.81589,12.89255 -1.31353,12.07542 C 423.61978,467.3006 423,467.46115 423,467.94805 c 0,0.48691 0.51444,1.05676 1.1432,1.26635 0.83723,0.27908 0.68355,3.58006 -0.57417,12.33333 -0.94456,6.57375 -2.0215,12.22726 -2.3932,12.56336 -0.37171,0.3361 -7.75429,1.81085 -16.40574,3.27722 l -15.72991,2.66612 -55.20482,-0.0887 c -50.57345,-0.0813 -55.31249,-0.23038 -56.48828,-1.77722 -1.19906,-1.57745 -1.28556,-1.5734 -1.31528,0.0615 -0.0297,1.63151 -2.14765,1.7411 -31.2818,1.61857 -17.1875,-0.0723 -34.4,-0.50958 -38.25,-0.97177 z m 58.00437,-7.90386 c 0.34231,-0.55389 -0.10054,-1.28448 -0.98412,-1.62354 -1.91464,-0.73472 -2.98171,0.0749 -2.06137,1.56407 0.83038,1.34358 2.23491,1.37101 3.04549,0.0595 z M 337,490.55902 c 0,-1.95514 -1.93837,-3.02065 -3.2,-1.75902 -0.56415,0.56415 -0.72339,1.51494 -0.35385,2.11287 0.98021,1.58602 3.55385,1.32977 3.55385,-0.35385 z m 5.80833,-1.63402 c -0.19708,-0.59125 -0.78583,-1.075 -1.30833,-1.075 -0.5225,0 -1.11125,0.48375 -1.30833,1.075 -0.19709,0.59125 0.39166,1.075 1.30833,1.075 0.91667,0 1.50542,-0.48375 1.30833,-1.075 z M 374,483 c 0,-0.55 -0.45,-1 -1,-1 -0.55,0 -1,0.45 -1,1 0,0.55 0.45,1 1,1 0.55,0 1,-0.45 1,-1 z m 43,0 c 0,-0.55 -0.19844,-1 -0.44098,-1 -0.24254,0 -0.7191,0.45 -1.05902,1 -0.33992,0.55 -0.14148,1 0.44098,1 0.58246,0 1.05902,-0.45 1.05902,-1 z m -23,-1 c 0,-0.55 -0.45,-1 -1,-1 -0.55,0 -1,0.45 -1,1 0,0.55 0.45,1 1,1 0.55,0 1,-0.45 1,-1 z m -81,-2 c 0,-0.55 -0.19844,-1 -0.44098,-1 -0.24254,0 -0.7191,0.45 -1.05902,1 -0.33992,0.55 -0.14148,1 0.44098,1 0.58246,0 1.05902,-0.45 1.05902,-1 z m -21,-4 c 0,-0.55 -0.45,-1 -1,-1 -0.55,0 -1,0.45 -1,1 0,0.55 0.45,1 1,1 0.55,0 1,-0.45 1,-1 z m 51.42997,-0.88669 c 0.30141,-0.48768 -0.082,-1.40954 -0.85195,-2.04856 -1.55873,-1.29363 -3.15488,0.19286 -2.07802,1.93525 0.7652,1.23812 2.20049,1.29363 2.92997,0.11331 z M 324,470.44098 c 0,-0.85746 -0.45734,-1.27636 -1.01631,-0.9309 -0.55897,0.34546 -0.75742,1.04702 -0.44098,1.55902 0.85723,1.38704 1.45729,1.12841 1.45729,-0.62812 z m 64.41821,-3.04797 c 2.23775,-0.8587 1.97877,-1.94398 -1.15799,-4.85254 C 383.96649,459.48635 382,459.2843 382,462 c 0,1.1 0.45,2 1,2 0.55,0 1,0.6375 1,1.41667 0,0.77916 0.5625,1.64364 1.25,1.92105 0.6875,0.27741 1.3257,0.53991 1.41821,0.58333 0.0925,0.0434 0.88002,-0.19419 1.75,-0.52804 z m -12.971,-2.47842 c -0.32197,-0.52097 -1.01165,-0.68378 -1.53262,-0.3618 -0.52097,0.32197 -0.68378,1.01165 -0.3618,1.53262 0.32197,0.52097 1.01165,0.68378 1.53262,0.3618 0.52097,-0.32197 0.68378,-1.01165 0.3618,-1.53262 z M 271,463.5 c 0,-0.825 -0.42344,-1.5 -0.94098,-1.5 -1.26098,0 -2.1641,1.56159 -1.36517,2.36052 C 269.82004,465.4867 271,465.04641 271,463.5 Z m 59,-1.5 c 0,-0.55 -0.70156,-1 -1.55902,-1 -0.85746,0 -1.2809,0.45 -0.94098,1 0.33992,0.55 1.04148,1 1.55902,1 0.51754,0 0.94098,-0.45 0.94098,-1 z m 69.77083,-1.8125 C 399.98854,459.53437 399.45417,459 398.58333,459 397.7125,459 397,459.7125 397,460.58333 c 0,1.76593 2.15276,1.45839 2.77083,-0.39583 z M 403,460 c 0,-0.55 -0.19844,-1 -0.44098,-1 -0.24254,0 -0.7191,0.45 -1.05902,1 -0.33992,0.55 -0.14148,1 0.44098,1 0.58246,0 1.05902,-0.45 1.05902,-1 z m 11,0 c 0,-0.55 -0.19844,-1 -0.44098,-1 -0.24254,0 -0.7191,0.45 -1.05902,1 -0.33992,0.55 -0.14148,1 0.44098,1 0.58246,0 1.05902,-0.45 1.05902,-1 z m -105.5,-2 c 0.33992,-0.55 0.14148,-1 -0.44098,-1 -0.58246,0 -1.05902,0.45 -1.05902,1 0,0.55 0.19844,1 0.44098,1 0.24254,0 0.7191,-0.45 1.05902,-1 z m 110,-7 c 0.33992,-0.55 -0.0835,-1 -0.94098,-1 -0.85746,0 -1.55902,0.45 -1.55902,1 0,0.55 0.42344,1 0.94098,1 0.51754,0 1.2191,-0.45 1.55902,-1 z m -6,-5 c 0.33992,-0.55 -0.11008,-1 -1,-1 -0.88992,0 -1.33992,0.45 -1,1 0.33992,0.55 0.78992,1 1,1 0.21008,0 0.66008,-0.45 1,-1 z M 392,430 c 0,-0.55 -0.45,-1 -1,-1 -0.55,0 -1,0.45 -1,1 0,0.55 0.45,1 1,1 0.55,0 1,-0.45 1,-1 z m -22,-3.5 c 0,-0.825 -0.45,-1.5 -1,-1.5 -0.55,0 -1,0.675 -1,1.5 0,0.825 0.45,1.5 1,1.5 0.55,0 1,-0.675 1,-1.5 z m -40.55279,-9.58541 c -0.32197,-0.52097 -1.01165,-0.68378 -1.53262,-0.3618 -0.52097,0.32197 -0.68378,1.01165 -0.3618,1.53262 0.32197,0.52097 1.01165,0.68378 1.53262,0.3618 0.52097,-0.32197 0.68378,-1.01165 0.3618,-1.53262 z M 350,418.55902 c 0,-0.24254 -0.45,-0.7191 -1,-1.05902 -0.55,-0.33992 -1,-0.14148 -1,0.44098 0,0.58246 0.45,1.05902 1,1.05902 0.55,0 1,-0.19844 1,-0.44098 z M 366.84188,416 c 1.76917,-2.39294 1.90841,-3 0.68806,-3 -0.84147,0 -1.52994,0.68912 -1.52994,1.53138 0,0.84227 -0.675,1.79041 -1.5,2.10699 -0.825,0.31659 -1.5,0.97746 -1.5,1.46862 0,1.75469 1.65982,0.8444 3.84188,-2.10699 z M 280,410 c 0,-0.55 -0.675,-1 -1.5,-1 -0.825,0 -1.5,0.45 -1.5,1 0,0.55 0.675,1 1.5,1 0.825,0 1.5,-0.45 1.5,-1 z m 94,-1.08333 c 0,-2.43705 -2.33677,-2.09257 -2.82332,0.4162 -0.19138,0.98676 0.31876,1.66713 1.25,1.66713 C 373.35431,411 374,410.145 374,408.91667 Z M 270.5,409 c 0.33992,-0.55 0.14148,-1 -0.44098,-1 -0.58246,0 -1.05902,0.45 -1.05902,1 0,0.55 0.19844,1 0.44098,1 0.24254,0 0.7191,-0.45 1.05902,-1 z M 384,402 c 0,-0.55 -0.45,-1 -1,-1 -0.55,0 -1,0.45 -1,1 0,0.55 0.45,1 1,1 0.55,0 1,-0.45 1,-1 z m 3,-2 c 0,-0.55 -0.45,-1 -1,-1 -0.55,0 -1,0.45 -1,1 0,0.55 0.45,1 1,1 0.55,0 1,-0.45 1,-1 z m -6,-9.11803 c 0,-0.55 -0.45,-0.72189 -1,-0.38197 -0.55,0.33992 -1,1.06803 -1,1.61803 0,0.55 0.45,0.72189 1,0.38197 0.55,-0.33992 1,-1.06803 1,-1.61803 z M 306,390 c 0,-0.55 -0.19844,-1 -0.44098,-1 -0.24254,0 -0.7191,0.45 -1.05902,1 -0.33992,0.55 -0.14148,1 0.44098,1 0.58246,0 1.05902,-0.45 1.05902,-1 z m -21,-4 c 0,-0.55 -0.45,-1 -1,-1 -0.55,0 -1,0.45 -1,1 0,0.55 0.45,1 1,1 0.55,0 1,-0.45 1,-1 z m 51.42997,-0.88669 c 0.30141,-0.48768 -0.082,-1.40954 -0.85195,-2.04856 -1.55873,-1.29363 -3.15488,0.19286 -2.07802,1.93525 0.7652,1.23812 2.20049,1.29363 2.92997,0.11331 z M 342,385 c 0,-0.55 -0.45,-1 -1,-1 -0.55,0 -1,0.45 -1,1 0,0.55 0.45,1 1,1 0.55,0 1,-0.45 1,-1 z m 41,-0.44098 c 0,-0.24254 -0.45,-0.7191 -1,-1.05902 -0.55,-0.33992 -1,-0.14148 -1,0.44098 0,0.58246 0.45,1.05902 1,1.05902 0.55,0 1,-0.19844 1,-0.44098 z M 356.5,380 c 0,-0.80994 -0.7875,-1.62427 -1.75,-1.80963 -1.22785,-0.23646 -1.75,0.30348 -1.75,1.80963 0,1.50615 0.52215,2.04609 1.75,1.80963 0.9625,-0.18536 1.75,-0.99969 1.75,-1.80963 z m 12.5,-3 c 0,-0.55 -0.45,-1 -1,-1 -0.55,0 -1,0.45 -1,1 0,0.55 0.45,1 1,1 0.55,0 1,-0.45 1,-1 z m 5.5,-2 c 0.33992,-0.55 0.14148,-1 -0.44098,-1 -0.58246,0 -1.05902,0.45 -1.05902,1 0,0.55 0.19844,1 0.44098,1 0.24254,0 0.7191,-0.45 1.05902,-1 z m 12.5,-1 c 0,-0.55 -0.45,-1 -1,-1 -0.55,0 -1,0.45 -1,1 0,0.55 0.45,1 1,1 0.55,0 1,-0.45 1,-1 z m -64.8,-2.2 c -0.64167,-0.64167 -1.49863,-0.8347 -1.90437,-0.42896 -0.40574,0.40574 -0.0888,1.13877 0.70437,1.62896 1.86759,1.15423 2.71091,0.31091 1.2,-1.2 z m -13.39167,-3.875 c -0.19708,-0.59125 -0.78583,-1.075 -1.30833,-1.075 -0.5225,0 -1.11125,0.48375 -1.30833,1.075 -0.19709,0.59125 0.39166,1.075 1.30833,1.075 0.91667,0 1.50542,-0.48375 1.30833,-1.075 z M 250,367 c 0,-0.55 -0.45,-1 -1,-1 -0.55,0 -1,0.45 -1,1 0,0.55 0.45,1 1,1 0.55,0 1,-0.45 1,-1 z m 124,-19.83333 c 0,-1.30208 -1.18877,-2.16804 -2.15579,-1.57039 C 370.80999,346.23547 371.70176,348 373.05902,348 373.57656,348 374,347.625 374,347.16667 Z M 351,345 c 0,-0.55 -0.45,-1 -1,-1 -0.55,0 -1,0.45 -1,1 0,0.55 0.45,1 1,1 0.55,0 1,-0.45 1,-1 z m -108,-5.33333 c 0,-0.73334 -0.2961,-1.62943 -0.65799,-1.99133 -0.90433,-0.90433 -3.45253,1.33682 -2.77198,2.43797 0.85211,1.37874 3.42997,1.04306 3.42997,-0.44664 z m 145.44721,-0.75208 c -0.32197,-0.52097 -1.01165,-0.68378 -1.53262,-0.3618 -0.52097,0.32197 -0.68378,1.01165 -0.3618,1.53262 0.32197,0.52097 1.01165,0.68378 1.53262,0.3618 0.52097,-0.32197 0.68378,-1.01165 0.3618,-1.53262 z m -38.63888,0.0104 c -0.19708,-0.59125 -0.78583,-1.075 -1.30833,-1.075 -0.5225,0 -1.11125,0.48375 -1.30833,1.075 -0.19709,0.59125 0.39166,1.075 1.30833,1.075 0.91667,0 1.50542,-0.48375 1.30833,-1.075 z M 320,322 c 0,-0.55 -0.45,-1 -1,-1 -0.55,0 -1,0.45 -1,1 0,0.55 0.45,1 1,1 0.55,0 1,-0.45 1,-1 z m -136.55279,-2.08541 c -0.32197,-0.52097 -1.01165,-0.68378 -1.53262,-0.3618 -0.52097,0.32197 -0.68378,1.01165 -0.3618,1.53262 0.32197,0.52097 1.01165,0.68378 1.53262,0.3618 0.52097,-0.32197 0.68378,-1.01165 0.3618,-1.53262 z M 192,321 c 0,-0.55 -0.19844,-1 -0.44098,-1 -0.24254,0 -0.7191,0.45 -1.05902,1 -0.33992,0.55 -0.14148,1 0.44098,1 0.58246,0 1.05902,-0.45 1.05902,-1 z m 33,0 c 0,-0.55 -0.45,-1 -1,-1 -0.55,0 -1,0.45 -1,1 0,0.55 0.45,1 1,1 0.55,0 1,-0.45 1,-1 z m 69,0 c 0,-0.55 -0.45,-1 -1,-1 -0.55,0 -1,0.45 -1,1 0,0.55 0.45,1 1,1 0.55,0 1,-0.45 1,-1 z m -69,-4.5 c 0,-0.83333 -0.88889,-1.5 -2,-1.5 -1.99224,0 -2.60112,1.06554 -1.33333,2.33333 C 222.8846,318.55126 225,318.02241 225,316.5 Z m 46,-4.5 c 0,-0.55 -0.47656,-1 -1.05902,-1 -0.58246,0 -0.7809,0.45 -0.44098,1 0.33992,0.55 0.81648,1 1.05902,1 0.24254,0 0.44098,-0.45 0.44098,-1 z m 8,-1 c 0,-0.55 -0.45,-1 -1,-1 -0.55,0 -1,0.45 -1,1 0,0.55 0.45,1 1,1 0.55,0 1,-0.45 1,-1 z m 10.55385,-1.08713 c 0.85813,-1.38848 -1.04396,-3.34604 -2.42304,-2.49371 -1.14846,0.70978 -0.41309,3.58084 0.91716,3.58084 0.4587,0 1.13634,-0.48921 1.50588,-1.08713 z M 202.075,306.725 c -0.12369,-1.1957 -1.49529,-0.96414 -1.925,0.325 -0.22,0.66 0.14,1.02 0.8,0.8 0.66,-0.22 1.16625,-0.72625 1.125,-1.125 z M 249,307 c 0,-0.55 -0.70156,-1 -1.55902,-1 -0.85746,0 -1.2809,0.45 -0.94098,1 0.33992,0.55 1.04148,1 1.55902,1 0.51754,0 0.94098,-0.45 0.94098,-1 z m 120.5,-1 c 0.33992,-0.55 0.14148,-1 -0.44098,-1 -0.58246,0 -1.05902,0.45 -1.05902,1 0,0.55 0.19844,1 0.44098,1 0.24254,0 0.7191,-0.45 1.05902,-1 z m -215.69167,-3.075 c -0.19708,-0.59125 -0.78583,-1.075 -1.30833,-1.075 -0.5225,0 -1.11125,0.48375 -1.30833,1.075 -0.19709,0.59125 0.39166,1.075 1.30833,1.075 0.91667,0 1.50542,-0.48375 1.30833,-1.075 z M 369,302 c 0,-0.55 -0.47656,-1 -1.05902,-1 -0.58246,0 -0.7809,0.45 -0.44098,1 0.33992,0.55 0.81648,1 1.05902,1 0.24254,0 0.44098,-0.45 0.44098,-1 z m 9,0 c 0,-0.55 -0.45,-1 -1,-1 -0.55,0 -1,0.45 -1,1 0,0.55 0.45,1 1,1 0.55,0 1,-0.45 1,-1 z m -63.55279,-4.08541 c -0.32197,-0.52097 -1.01165,-0.68378 -1.53262,-0.3618 -0.52097,0.32197 -0.68378,1.01165 -0.3618,1.53262 0.32197,0.52097 1.01165,0.68378 1.53262,0.3618 0.52097,-0.32197 0.68378,-1.01165 0.3618,-1.53262 z M 265.5,297 c 0.33992,-0.55 0.14148,-1 -0.44098,-1 -0.58246,0 -1.05902,0.45 -1.05902,1 0,0.55 0.19844,1 0.44098,1 0.24254,0 0.7191,-0.45 1.05902,-1 z m 88.36534,-2.55103 c 0.31608,-1.6311 0.14754,-1.70455 -1.25,-0.54469 -1.91126,1.5862 -2.14923,3.44015 -0.36534,2.84619 0.6875,-0.22891 1.4144,-1.26459 1.61534,-2.3015 z M 200,295 c 0,-0.55 -0.45,-1 -1,-1 -0.55,0 -1,0.45 -1,1 0,0.55 0.45,1 1,1 0.55,0 1,-0.45 1,-1 z m 102.64039,-6.74954 c 0.0772,-3.16275 0.40891,-13.40046 0.73711,-22.75046 0.82957,-23.63336 0.92127,-65.20757 0.14658,-66.46103 -1.02004,-1.65047 -4.3676,-1.20604 -5.35572,0.71103 -1.48206,2.87538 -2.51349,19.74796 -3.04123,49.75 -0.17479,9.93692 -0.61859,15.94821 -1.06817,14.46847 -0.42303,-1.39234 -1.20821,-3.41734 -1.74485,-4.5 -0.53664,-1.08266 -1.72685,-3.46744 -2.64491,-5.29951 -0.91806,-1.83207 -1.6692,-4.36299 -1.6692,-5.62427 0,-1.26128 -0.72666,-4.26231 -1.61479,-6.66896 -0.88813,-2.40665 -1.97111,-5.95073 -2.40661,-7.87573 -0.4355,-1.925 -2.66507,-8.9 -4.95459,-15.5 -2.28953,-6.6 -4.47916,-13.8 -4.86583,-16 -0.58421,-3.32383 -1.13634,-4.05081 -3.26621,-4.30056 -4.60039,-0.53944 -5.19441,1.53121 -6.0597,21.12286 -0.91073,20.6208 -1.4772,24.6777 -3.44577,24.6777 -1.72645,0 -1.83785,2.88996 -0.1365,3.54136 0.77887,0.29821 1.16957,2.07667 1.0366,4.71862 -1.47977,29.40101 -1.43247,36.45129 0.25586,38.13963 1.13211,1.1321 2.92636,1.60434 5.33192,1.40334 L 271.5,291.5 l 0.19796,-6 c 0.10888,-3.3 0.26255,-17.025 0.3415,-30.5 0.0789,-13.475 0.4971,-23.6 0.92921,-22.5 1.13813,2.8972 4.70562,14.53472 5.43804,17.73943 0.34435,1.50669 1.95974,5.55669 3.58975,9 1.63002,3.44331 4.51955,11.0944 6.42118,17.00241 1.90163,5.908 4.16902,11.758 5.03863,13 1.26909,1.81251 5.71586,4.24965 8.54373,4.68255 0.275,0.0421 0.56317,-2.51117 0.64039,-5.67393 z M 350,292.63929 c 0,-0.8872 1.73969,-1.56675 4.99932,-1.9528 9.70948,-1.14995 12.50945,-5.76425 13.46281,-22.18649 1.5908,-27.40274 2.11565,-55.72585 1.20193,-64.86108 -0.61987,-6.19728 -1.79175,-7.4405 -5.01979,-5.3254 -2.4593,1.61139 -3.01868,4.53009 -3.9881,20.80891 -0.10651,1.78856 -0.59703,2.45334 -1.54262,2.09065 -0.88553,-0.33965 -1.20166,-0.0226 -0.875,0.87757 0.2813,0.77514 1.05115,1.2857 1.71078,1.13457 0.65963,-0.15112 0.96779,0.0999 0.68479,0.55776 -0.28299,0.4579 -0.78057,9.58155 -1.10572,20.27478 -0.78158,25.70344 -1.66107,33.83487 -3.83119,35.42169 -2.43129,1.77781 -12.05545,2.71504 -15.2822,1.48824 l -2.71954,-1.03397 0.65747,-16.71686 c 0.36161,-9.19427 0.90333,-22.56686 1.20382,-29.71686 0.6674,-15.88037 0.68544,-14.39053 -0.28606,-23.61516 C 338.44579,202.05208 336.99426,199 334.09402,199 c -1.34715,0 -1.98811,2.12621 -3.39137,11.25 -0.95166,6.1875 -1.75959,13.95 -1.79542,17.25 -0.0358,3.3 -0.2921,5.4375 -0.56951,4.75 -0.27741,-0.6875 -0.91689,-1.25 -1.42105,-1.25 -1.43569,0 -1.07428,2.69954 0.58333,4.35714 2.25503,2.25504 2.13254,20.28643 -0.15499,22.81412 -1.48638,1.64244 -1.49974,2.00702 -0.13115,3.57874 0.99363,1.14111 1.7411,4.88145 2.14827,10.75 0.85781,12.36368 0.91877,12.68073 2.81218,14.6273 2.78176,2.85986 5.46507,3.8727 10.25995,3.8727 3.39177,0 4.56574,0.38569 4.56574,1.5 0,0.825 0.675,1.5 1.5,1.5 0.825,0 1.5,-0.61232 1.5,-1.36071 z m -211.18073,-1.92152 c 1.25417,-1.51119 1.42964,-10.43609 0.62358,-31.71777 -0.61609,-16.26627 0.26767,-18.71355 2.52784,-7 0.68981,3.575 2.14092,10.1 3.22469,14.5 1.08377,4.4 2.43272,9.88061 2.99768,12.17914 1.41658,5.76341 4.6566,8.70872 8.12816,7.38883 1.67922,-0.63844 2.83317,-1.99938 3.20728,-3.7826 0.32139,-1.53195 0.98721,-4.58537 1.47958,-6.78537 0.49238,-2.2 1.15423,-6.025 1.47078,-8.5 0.31655,-2.475 1.4391,-7.2 2.49456,-10.5 l 1.91903,-6 0.15386,8 c 0.0846,4.4 0.0718,11.67897 -0.0285,16.17549 -0.13273,5.95033 0.28377,9.15779 1.53026,11.78458 2.2168,4.67155 5.09914,6.32129 7.26325,4.15718 1.38143,-1.38143 1.61239,-7.12134 1.85412,-46.07807 0.26835,-43.24616 0.22117,-44.5295 -1.67414,-45.54383 -3.2505,-1.73962 -6.5121,-0.2091 -8.32867,3.90826 -0.91445,2.07264 -1.66263,4.49486 -1.66263,5.38272 0,0.88786 -0.7874,2.05494 -1.74978,2.59352 -1.21476,0.67981 -1.78578,2.31401 -1.86751,5.34455 -0.16233,6.01966 -1.16579,8.79607 -2.9339,8.11758 -0.89468,-0.34332 -1.44881,0.0587 -1.44881,1.05103 0,0.88385 0.50107,1.60699 1.1135,1.60699 1.22979,0 1.15337,0.60014 -1.97999,15.55109 -1.15856,5.52811 -2.05341,12.40646 -1.98855,15.28523 0.0649,2.87877 -0.16623,5.51828 -0.51352,5.86557 -0.34729,0.34729 -0.63467,-0.68106 -0.63861,-2.28522 -0.01,-3.92032 -12.27135,-54.00446 -14.81908,-60.52998 -1.5767,-4.03839 -7.48888,-4.61988 -8.68409,-0.85411 -1.21527,3.82898 -0.79117,82.52379 0.46525,86.33079 1.64552,4.98597 5.54727,7.14632 7.86436,4.3544 z m 87.45678,-0.60113 c 12.0039,-1.65817 14.39207,-3.94122 7.45791,-7.12963 -2.21655,-1.01919 -5.8097,-1.40532 -11.42124,-1.22736 l -8.18728,0.25964 -0.69873,-4.65947 c -0.67127,-4.47636 -0.14486,-15.84121 1.18223,-25.52337 l 0.63122,-4.60529 6.12992,-0.69207 C 230.92661,245.46015 233,244.8724 233,243.2423 c 0,-1.91942 -3.65927,-5.11868 -6.73869,-5.89156 -2.10301,-0.52782 -6.10809,-0.20908 -10.12114,0.80547 -1.08962,0.27548 -1.44716,-2.76817 -1.79929,-15.31673 -0.29766,-10.6075 -0.0901,-15.87642 0.6432,-16.32964 0.59546,-0.36801 4.55514,-0.9186 8.79929,-1.22353 C 231.89252,204.70369 234,203.83704 234,201.08496 c 0,-1.13525 -1.44581,-2.05685 -4.51435,-2.87756 -4.90684,-1.31238 -22.29797,-1.63144 -24.09685,-0.44209 -2.26136,1.49512 -3.03309,17.38129 -1.991,40.98469 0.29746,6.7375 0.21714,12.25138 -0.17848,12.25306 -1.38828,0.006 -1.18959,29.39789 0.22657,33.51723 2.6212,7.62455 4.61303,8.1128 22.83016,5.59635 z M 387.15,287.5 c 0,-0.5225 -0.48375,-1.11125 -1.075,-1.30833 -0.59125,-0.19709 -1.075,0.39166 -1.075,1.30833 0,0.91667 0.48375,1.50542 1.075,1.30833 0.59125,-0.19708 1.075,-0.78583 1.075,-1.30833 z m -74.32735,-2.82936 c 0.225,-1.16012 -0.15332,-1.48098 -1.25,-1.06014 -1.84865,0.70939 -2.16131,3.75217 -0.32265,3.13997 0.6875,-0.22891 1.39519,-1.16483 1.57265,-2.07983 z M 375,284.5 c 0,-0.83333 -0.88889,-1.5 -2,-1.5 -1.99224,0 -2.60112,1.06554 -1.33333,2.33333 C 372.8846,286.55126 375,286.02241 375,284.5 Z m -66.73557,-2.09777 C 309.23758,281.42909 307.90144,279 306.39301,279 305.62686,279 305,279.9 305,281 c 0,1.88258 1.94753,2.71914 3.26443,1.40223 z m -87.22205,-6.75985 c -1.3352,-1.3352 -3.57419,0.68812 -2.56622,2.31905 0.51879,0.83942 1.08103,0.82103 2.15525,-0.0705 1.0083,-0.83681 1.13415,-1.52538 0.41097,-2.24856 z m 31.70748,-0.22585 c -0.95295,-0.95296 -2.86349,0.5906 -2.1533,1.7397 0.42212,0.683 0.98146,0.66575 1.69964,-0.0524 0.58876,-0.58876 0.79291,-1.34803 0.45366,-1.68727 z M 353,275 c 0,-0.55 -0.45,-1 -1,-1 -0.55,0 -1,0.45 -1,1 0,0.55 0.45,1 1,1 0.55,0 1,-0.45 1,-1 z M 220,272.94098 C 220,272.42344 219.325,272 218.5,272 c -1.54641,0 -1.9867,1.17996 -0.86052,2.30615 C 218.43841,275.10508 220,274.20196 220,272.94098 Z M 185,273 c 0,-0.55 -0.47656,-1 -1.05902,-1 -0.58246,0 -0.7809,0.45 -0.44098,1 0.33992,0.55 0.81648,1 1.05902,1 0.24254,0 0.44098,-0.45 0.44098,-1 z m 191,-3 c 0,-0.55 -0.19844,-1 -0.44098,-1 -0.24254,0 -0.7191,0.45 -1.05902,1 -0.33992,0.55 -0.14148,1 0.44098,1 0.58246,0 1.05902,-0.45 1.05902,-1 z m -30.5,-2 c 0.33992,-0.55 0.14148,-1 -0.44098,-1 -0.58246,0 -1.05902,0.45 -1.05902,1 0,0.55 0.19844,1 0.44098,1 0.24254,0 0.7191,-0.45 1.05902,-1 z m 7.5,-3.05902 C 353,264.42344 352.325,264 351.5,264 c -1.54641,0 -1.9867,1.17996 -0.86052,2.30615 0.79893,0.79893 2.36052,-0.10419 2.36052,-1.36517 z m -92.17668,-5.27385 C 261.01039,258.70256 260.50849,258 259.63234,258 c -1.85773,0 -2.97896,1.63015 -2.09972,3.05279 0.90454,1.46356 2.90118,0.62281 3.2907,-1.38566 z M 222.1038,257.7038 c -1.28349,-1.28349 -2.58505,-0.2915 -1.63484,1.24598 0.36808,0.59556 1.12735,0.79971 1.68727,0.45366 0.683,-0.42212 0.66575,-0.98146 -0.0524,-1.69964 z M 232,258 c 0,-0.55 -0.45,-1 -1,-1 -0.55,0 -1,0.45 -1,1 0,0.55 0.45,1 1,1 0.55,0 1,-0.45 1,-1 z m -37.5,-3.0137 c 0,-2.1435 -2.90567,-1.8339 -3.32712,0.35451 -0.25736,1.3364 0.14991,1.74367 1.48631,1.48631 1.01244,-0.19498 1.84081,-1.02335 1.84081,-1.84082 z m 116.82466,-0.64429 c 0.90433,-0.90433 -1.33682,-3.45253 -2.43797,-2.77198 -1.37874,0.85211 -1.04306,3.42997 0.44664,3.42997 0.73334,0 1.62943,-0.2961 1.99133,-0.65799 z m 77.27951,-2.07118 c -1.01652,-1.01651 -1.85525,0.51389 -1.02122,1.86338 0.63003,1.01942 0.86558,1.02021 1.2043,0.004 0.2316,-0.69479 0.14921,-1.53513 -0.18308,-1.86742 z m -3.27951,-0.92882 c 0.90433,-0.90433 -1.33682,-3.45253 -2.43797,-2.77198 -1.37874,0.85211 -1.04306,3.42997 0.44664,3.42997 0.73334,0 1.62943,-0.2961 1.99133,-0.65799 z M 291,248 c 0,-0.55 -0.45,-1 -1,-1 -0.55,0 -1,0.45 -1,1 0,0.55 0.45,1 1,1 0.55,0 1,-0.45 1,-1 z m -106.20174,-5.66583 c 0.3594,-2.42111 -2.18567,-4.78322 -4.28553,-3.97743 -1.9742,0.75757 -1.92717,3.08596 0.10334,5.11647 2.00165,2.00165 3.78819,1.51508 4.18219,-1.13904 z m 51.97257,-1.52167 C 236.15276,238.95828 234,238.65074 234,240.41667 234,241.2875 234.7125,242 235.58333,242 c 0.87084,0 1.40521,-0.53438 1.1875,-1.1875 z m 149.57851,-1.34453 C 385.76466,237.94432 383,237.39295 383,238.8 c 0,1.27636 2.24298,3.16786 3.11641,2.62806 0.43793,-0.27066 0.54275,-1.1527 0.23293,-1.96009 z M 114,237 c 0,-0.55 -0.45,-1 -1,-1 -0.55,0 -1,0.45 -1,1 0,0.55 0.45,1 1,1 0.55,0 1,-0.45 1,-1 z m 127.44721,-1.08541 c -0.32197,-0.52097 -1.01165,-0.68378 -1.53262,-0.3618 -0.52097,0.32197 -0.68378,1.01165 -0.3618,1.53262 0.32197,0.52097 1.01165,0.68378 1.53262,0.3618 0.52097,-0.32197 0.68378,-1.01165 0.3618,-1.53262 z M 375.5,234 c 0.33992,-0.55 0.14148,-1 -0.44098,-1 -0.58246,0 -1.05902,0.45 -1.05902,1 0,0.55 0.19844,1 0.44098,1 0.24254,0 0.7191,-0.45 1.05902,-1 z M 253,232.41667 c 0,-0.87084 -0.53438,-1.40521 -1.1875,-1.1875 C 249.95828,231.84724 249.65074,234 251.41667,234 252.2875,234 253,233.2875 253,232.41667 Z m -55.18816,-3.67815 C 198.04294,227.53852 197.50442,227 196.07332,227 194.64223,227 194,227.64223 194,229.07332 c 0,2.56265 3.30983,2.27193 3.81184,-0.3348 z M 246.5,230 c 0.33992,-0.55 -0.0835,-1 -0.94098,-1 -0.85746,0 -1.55902,0.45 -1.55902,1 0,0.55 0.42344,1 0.94098,1 0.51754,0 1.2191,-0.45 1.55902,-1 z M 122,226 c 0,-0.55 -0.47656,-1 -1.05902,-1 -0.58246,0 -0.7809,0.45 -0.44098,1 0.33992,0.55 0.81648,1 1.05902,1 0.24254,0 0.44098,-0.45 0.44098,-1 z m 135.44721,-8.08541 c -0.32197,-0.52097 -1.01165,-0.68378 -1.53262,-0.3618 -0.52097,0.32197 -0.68378,1.01165 -0.3618,1.53262 0.32197,0.52097 1.01165,0.68378 1.53262,0.3618 0.52097,-0.32197 0.68378,-1.01165 0.3618,-1.53262 z M 349,213 c 0,-0.55 -0.47656,-1 -1.05902,-1 -0.58246,0 -0.7809,0.45 -0.44098,1 0.33992,0.55 0.81648,1 1.05902,1 0.24254,0 0.44098,-0.45 0.44098,-1 z m -56,-1 c 0,-0.55 -0.45,-1 -1,-1 -0.55,0 -1,0.45 -1,1 0,0.55 0.45,1 1,1 0.55,0 1,-0.45 1,-1 z m 97.1038,-3.2962 c -1.28349,-1.28349 -2.58505,-0.2915 -1.63484,1.24598 0.36808,0.59556 1.12735,0.79971 1.68727,0.45366 0.683,-0.42212 0.66575,-0.98146 -0.0524,-1.69964 z m -12.54995,0.20907 c 1.03052,-1.66742 -1.28721,-3.57951 -2.66672,-2.2 C 373.73321,207.86679 374.45541,210 376,210 c 0.48508,0 1.18431,-0.48921 1.55385,-1.08713 z M 193.93922,205.42676 C 192.66449,203.89081 190,204.63275 190,206.52366 c 0,1.74868 2.1903,2.45274 3.76233,1.20939 0.91896,-0.72682 0.96707,-1.35417 0.17689,-2.30629 z M 395.75,206.75 c -0.22917,-0.6875 -1.01667,-1.25 -1.75,-1.25 -0.73333,0 -1.52083,0.5625 -1.75,1.25 -0.24786,0.74359 0.46111,1.25 1.75,1.25 1.28889,0 1.99786,-0.50641 1.75,-1.25 z M 385,204.5 c 0,-0.825 -0.45,-1.5 -1,-1.5 -0.55,0 -1,0.675 -1,1.5 0,0.825 0.45,1.5 1,1.5 0.55,0 1,-0.675 1,-1.5 z m -35,-0.44098 c 0,-0.51754 -0.45,-1.2191 -1,-1.55902 -0.55,-0.33992 -1,0.0835 -1,0.94098 0,0.85746 0.45,1.55902 1,1.55902 0.55,0 1,-0.42344 1,-0.94098 z m -63,-2.61804 c 0,-1.69692 -2.5769,-1.93459 -3.5691,-0.32918 -0.75384,1.21975 1.49206,3.05385 2.77135,2.2632 C 286.64101,203.10383 287,202.23352 287,201.44098 Z m 91,0.059 c 0,-0.825 -0.45,-1.5 -1,-1.5 -0.55,0 -1,0.675 -1,1.5 0,0.825 0.45,1.5 1,1.5 0.55,0 1,-0.675 1,-1.5 z m -85.25014,-2.08347 c -0.95295,-0.95296 -2.86349,0.5906 -2.1533,1.7397 0.42212,0.683 0.98146,0.66575 1.69964,-0.0524 0.58876,-0.58876 0.79291,-1.34803 0.45366,-1.68727 z m -52.29257,0.65257 c 0.31644,-0.512 0.11799,-1.21356 -0.44098,-1.55902 -0.55897,-0.34546 -1.01631,0.0734 -1.01631,0.9309 0,1.75653 0.60006,2.01516 1.45729,0.62812 z M 395.05282,199.5 c -0.0784,-1.48429 -2.31562,-1.2116 -2.83465,0.3455 -0.28038,0.84112 0.17677,1.21599 1.21948,1 0.9174,-0.19002 1.64422,-0.7955 1.61517,-1.3455 z M 303.5,196 c 0.33992,-0.55 0.16803,-1 -0.38197,-1 -0.55,0 -1.27811,0.45 -1.61803,1 -0.33992,0.55 -0.16803,1 0.38197,1 0.55,0 1.27811,-0.45 1.61803,-1 z m 65.5,-1 c 0,-0.55 -0.92656,-1 -2.05902,-1 -1.13246,0 -1.7809,0.45 -1.44098,1 0.33992,0.55 1.26648,1 2.05902,1 0.79254,0 1.44098,-0.45 1.44098,-1 z m 11,-0.5 c 0,-0.825 -0.675,-1.5 -1.5,-1.5 -0.825,0 -1.5,0.675 -1.5,1.5 0,0.825 0.675,1.5 1.5,1.5 0.825,0 1.5,-0.675 1.5,-1.5 z M 324,194 c 0,-0.55 -0.45,-1 -1,-1 -0.55,0 -1,0.45 -1,1 0,0.55 0.45,1 1,1 0.55,0 1,-0.45 1,-1 z m 11.44721,-2.08541 c -0.32197,-0.52097 -1.01165,-0.68378 -1.53262,-0.3618 -0.52097,0.32197 -0.68378,1.01165 -0.3618,1.53262 0.32197,0.52097 1.01165,0.68378 1.53262,0.3618 0.52097,-0.32197 0.68378,-1.01165 0.3618,-1.53262 z M 281.5,190.9863 c 0,-2.1435 -2.90567,-1.8339 -3.32712,0.35451 -0.25736,1.3364 0.14991,1.74367 1.48631,1.48631 1.01244,-0.19498 1.84081,-1.02335 1.84081,-1.84082 z M 236,190.44098 c 0,-0.85746 -0.45734,-1.27636 -1.01631,-0.9309 -0.55897,0.34546 -0.75742,1.04702 -0.44098,1.55902 0.85723,1.38704 1.45729,1.12841 1.45729,-0.62812 z m 87.55385,0.47189 c 1.03052,-1.66742 -1.28721,-3.57951 -2.66672,-2.2 C 319.73321,189.86679 320.45541,192 322,192 c 0.48508,0 1.18431,-0.48921 1.55385,-1.08713 z M 379,190.5 c 0,-0.825 -0.45,-1.5 -1,-1.5 -0.55,0 -1,0.675 -1,1.5 0,0.825 0.45,1.5 1,1.5 0.55,0 1,-0.675 1,-1.5 z m -191.55279,-3.58541 c -0.32197,-0.52097 -1.01165,-0.68378 -1.53262,-0.3618 -0.52097,0.32197 -0.68378,1.01165 -0.3618,1.53262 0.32197,0.52097 1.01165,0.68378 1.53262,0.3618 0.52097,-0.32197 0.68378,-1.01165 0.3618,-1.53262 z M 382,187 c 0,-0.55 -0.19844,-1 -0.44098,-1 -0.24254,0 -0.7191,0.45 -1.05902,1 -0.33992,0.55 -0.14148,1 0.44098,1 0.58246,0 1.05902,-0.45 1.05902,-1 z m -180,-1 c 0,-0.55 -0.19844,-1 -0.44098,-1 -0.24254,0 -0.7191,0.45 -1.05902,1 -0.33992,0.55 -0.14148,1 0.44098,1 0.58246,0 1.05902,-0.45 1.05902,-1 z m 99,-1 c 0,-0.55 -0.45,-1 -1,-1 -0.55,0 -1,0.45 -1,1 0,0.55 0.45,1 1,1 0.55,0 1,-0.45 1,-1 z m 15.41667,-0.75 c 0.4125,-0.4125 1.1625,-0.75 1.66666,-0.75 0.50417,0 0.91667,-0.3375 0.91667,-0.75 0,-0.4125 -0.225,-0.75 -0.5,-0.75 -0.275,0 -1.4,0 -2.5,0 -1.11111,0 -2,0.66667 -2,1.5 0,1.60621 1.19088,1.97579 2.41667,0.75 z M 327,184 c 0,-0.55 -0.45,-1 -1,-1 -0.55,0 -1,0.45 -1,1 0,0.55 0.45,1 1,1 0.55,0 1,-0.45 1,-1 z m 64.5,-2.83333 c 0,-3.09065 -1.93564,-2.74858 -2.32694,0.41122 -0.2284,1.84433 0.073,2.50675 1,2.19776 0.72982,-0.24328 1.32694,-1.41732 1.32694,-2.60898 z M 274,182 c 0,-0.55 -0.45,-1 -1,-1 -0.55,0 -1,0.45 -1,1 0,0.55 0.45,1 1,1 0.55,0 1,-0.45 1,-1 z m 6.44721,-1.08541 c -0.32197,-0.52097 -1.01165,-0.68378 -1.53262,-0.3618 -0.52097,0.32197 -0.68378,1.01165 -0.3618,1.53262 0.32197,0.52097 1.01165,0.68378 1.53262,0.3618 0.52097,-0.32197 0.68378,-1.01165 0.3618,-1.53262 z M 377,180.94098 c 0,-1.13246 -0.3375,-1.87684 -0.75,-1.65419 -0.4125,0.22265 -1.56602,0.69603 -2.56338,1.05196 C 371.45054,181.13672 372.41143,183 375.05902,183 376.35188,183 377,182.31246 377,180.94098 Z M 219,181 c 0,-0.55 -0.45,-1 -1,-1 -0.55,0 -1,0.45 -1,1 0,0.55 0.45,1 1,1 0.55,0 1,-0.45 1,-1 z m 45.56729,-4.76604 c -0.90636,-0.90637 -3.69481,0.7507 -3.04164,1.80754 0.44804,0.72494 1.10197,0.68251 2.08754,-0.13544 0.78933,-0.65508 1.21867,-1.40753 0.9541,-1.6721 z M 225.08179,177 C 225.5868,177 226,176.27622 226,175.39159 c 0,-1.21629 -0.60948,-1.45544 -2.5,-0.98095 -1.64263,0.41228 -2.5,0.20939 -2.5,-0.59159 0,-0.92335 -0.28079,-0.93826 -1.15762,-0.0614 -1.50782,1.50782 0.84199,4.57747 2.89962,3.78789 C 223.52387,177.24548 224.57677,177 225.08179,177 Z M 325,177 c 0,-0.55 -0.45,-1 -1,-1 -0.55,0 -1,0.45 -1,1 0,0.55 0.45,1 1,1 0.55,0 1,-0.45 1,-1 z m 41,-1.55902 c 0,-0.85746 -0.45,-1.2809 -1,-0.94098 -0.55,0.33992 -1,1.04148 -1,1.55902 0,0.51754 0.45,0.94098 1,0.94098 0.55,0 1,-0.70156 1,-1.55902 z M 216,175 c 0,-0.55 -0.45,-1 -1,-1 -0.55,0 -1,0.45 -1,1 0,0.55 0.45,1 1,1 0.55,0 1,-0.45 1,-1 z m 20,0 c 0,-0.55 -0.45,-1 -1,-1 -0.55,0 -1,0.45 -1,1 0,0.55 0.45,1 1,1 0.55,0 1,-0.45 1,-1 z m 99.5691,-0.1118 c 0.86201,-1.39478 -1.74093,-3.11637 -2.92361,-1.93369 C 331.68357,173.91643 332.61026,176 334,176 c 0.48508,0 1.19118,-0.50031 1.5691,-1.1118 z M 239.5,172 c 0.33992,-0.55 0.14148,-1 -0.44098,-1 -0.58246,0 -1.05902,0.45 -1.05902,1 0,0.55 0.19844,1 0.44098,1 0.24254,0 0.7191,-0.45 1.05902,-1 z m 140.4682,0.25 c -0.0575,-1.35548 -2.66489,-4.25 -3.82844,-4.25 -1.40814,0 -1.42834,0.59227 -0.10458,3.06574 0.98867,1.84735 3.99958,2.75395 3.93302,1.18426 z M 259,169 c 0,-0.55 -0.45,-1 -1,-1 -0.55,0 -1,0.45 -1,1 0,0.55 0.45,1 1,1 0.55,0 1,-0.45 1,-1 z m 104,-3 c 0,-0.55 -0.47656,-1 -1.05902,-1 -0.58246,0 -0.7809,0.45 -0.44098,1 0.33992,0.55 0.81648,1 1.05902,1 0.24254,0 0.44098,-0.45 0.44098,-1 z m 0,-5 c 0,-0.55 -0.45,-1 -1,-1 -0.55,0 -1,0.45 -1,1 0,0.55 0.45,1 1,1 0.55,0 1,-0.45 1,-1 z m 9,-2.58333 c 0,-0.87084 -0.53438,-1.40521 -1.1875,-1.1875 C 368.95828,157.84724 368.65074,160 370.41667,160 371.2875,160 372,159.2875 372,158.41667 Z M 345,158 c 0,-0.55 -0.47656,-1 -1.05902,-1 -0.58246,0 -0.7809,0.45 -0.44098,1 0.33992,0.55 0.81648,1 1.05902,1 0.24254,0 0.44098,-0.45 0.44098,-1 z m 8,-2.5 c 0,-0.825 -0.45,-1.5 -1,-1.5 -0.55,0 -1,0.675 -1,1.5 0,0.825 0.45,1.5 1,1.5 0.55,0 1,-0.675 1,-1.5 z m 15,-0.55902 C 368,154.42344 367.325,154 366.5,154 c -1.54641,0 -1.9867,1.17996 -0.86052,2.30615 C 366.43841,157.10508 368,156.20196 368,154.94098 Z M 242.5,154 c 0.33992,-0.55 0.14148,-1 -0.44098,-1 -0.58246,0 -1.05902,0.45 -1.05902,1 0,0.55 0.19844,1 0.44098,1 0.24254,0 0.7191,-0.45 1.05902,-1 z m 118.94721,-3.08541 c -0.32197,-0.52097 -1.01165,-0.68378 -1.53262,-0.3618 -0.52097,0.32197 -0.68378,1.01165 -0.3618,1.53262 0.32197,0.52097 1.01165,0.68378 1.53262,0.3618 0.52097,-0.32197 0.68378,-1.01165 0.3618,-1.53262 z M 264,145.5 c 0,-0.825 -0.42344,-1.5 -0.94098,-1.5 -1.26098,0 -2.1641,1.56159 -1.36517,2.36052 C 262.82004,147.4867 264,147.04641 264,145.5 Z m 84,0.5 c 0,-0.55 -0.45,-1 -1,-1 -0.55,0 -1,0.45 -1,1 0,0.55 0.45,1 1,1 0.55,0 1,-0.45 1,-1 z m -81,-1 c 0,-0.55 -0.45,-1 -1,-1 -0.55,0 -1,0.45 -1,1 0,0.55 0.45,1 1,1 0.55,0 1,-0.45 1,-1 z m 67.41821,0.39301 C 336.62727,144.54531 336.39532,143 334.05902,143 c -2.08723,0 -3.40776,1.31793 -2.36517,2.36052 0.78176,0.78175 0.77211,0.78164 2.72436,0.0325 z M 311,144 c 0,-0.55 -0.45,-1 -1,-1 -0.55,0 -1,0.45 -1,1 0,0.55 0.45,1 1,1 0.55,0 1,-0.45 1,-1 z m 35.75047,-2.75 C 346.99459,140.51682 346.30531,140 345.08333,140 343.855,140 343,140.64569 343,141.57332 c 0,1.83788 3.12044,1.56887 3.75047,-0.32332 z M 395,142.55902 c 0,-0.24254 -0.45,-0.7191 -1,-1.05902 -0.55,-0.33992 -1,-0.14148 -1,0.44098 0,0.58246 0.45,1.05902 1,1.05902 0.55,0 1,-0.19844 1,-0.44098 z m -130.90428,-3.17436 c 1.15986,-1.39754 1.08641,-1.56608 -0.54469,-1.25 -1.03691,0.20094 -2.07259,0.92784 -2.3015,1.61534 -0.59396,1.78389 1.25999,1.54592 2.84619,-0.36534 z M 320.15,137.5 c 0,-0.5225 -0.48375,-1.11125 -1.075,-1.30833 -0.59125,-0.19709 -1.075,0.39166 -1.075,1.30833 0,0.91667 0.48375,1.50542 1.075,1.30833 0.59125,-0.19708 1.075,-0.78583 1.075,-1.30833 z m 18.40385,-0.58713 c 1.03052,-1.66742 -1.28721,-3.57951 -2.66672,-2.2 C 334.73321,135.86679 335.45541,138 337,138 c 0.48508,0 1.18431,-0.48921 1.55385,-1.08713 z m 49.43633,-0.40104 c 1.00286,-1.20837 0.91924,-1.60936 -0.44477,-2.13278 -1.97026,-0.75606 -4.07104,0.96145 -3.09926,2.53382 0.92279,1.49311 2.08078,1.36207 3.54403,-0.40104 z M 389.15,131.5 c 0,-0.5225 -0.48375,-1.11125 -1.075,-1.30833 -0.59125,-0.19709 -1.075,0.39166 -1.075,1.30833 0,0.91667 0.48375,1.50542 1.075,1.30833 0.59125,-0.19708 1.075,-0.78583 1.075,-1.30833 z M 304,131 c 0,-0.55 -0.45,-1 -1,-1 -0.55,0 -1,0.45 -1,1 0,0.55 0.45,1 1,1 0.55,0 1,-0.45 1,-1 z m -19,-1 c 0,-0.55 -0.45,-1 -1,-1 -0.55,0 -1,0.45 -1,1 0,0.55 0.45,1 1,1 0.55,0 1,-0.45 1,-1 z m 73,-1 c 0,-0.55 -0.47656,-1 -1.05902,-1 -0.58246,0 -0.7809,0.45 -0.44098,1 0.33992,0.55 0.81648,1 1.05902,1 0.24254,0 0.44098,-0.45 0.44098,-1 z m 18,-2 c 0,-0.55 -0.45,-1 -1,-1 -0.55,0 -1,0.45 -1,1 0,0.55 0.45,1 1,1 0.55,0 1,-0.45 1,-1 z m 13,-3 c 0,-0.55 -0.675,-1 -1.5,-1 -0.825,0 -1.5,0.45 -1.5,1 0,0.55 0.675,1 1.5,1 0.825,0 1.5,-0.45 1.5,-1 z m -87,-2 c 0,-0.55 -0.45,-1 -1,-1 -0.55,0 -1,0.45 -1,1 0,0.55 0.45,1 1,1 0.55,0 1,-0.45 1,-1 z m 94,-0.83333 c 0,-1.30208 -1.18877,-2.16804 -2.15579,-1.57039 C 392.80999,120.23547 393.70176,122 395.05902,122 395.57656,122 396,121.625 396,121.16667 Z m -11.30279,-1.95838 c 0.72007,-0.45775 0.86427,-1.2998 0.36181,-2.1128 -0.98608,-1.5955 -3.05902,-0.60375 -3.05902,1.46353 0,1.59333 0.87923,1.80498 2.69721,0.64927 z M 394,110 c 0,-0.55 -0.45,-1 -1,-1 -0.55,0 -1,0.45 -1,1 0,0.55 0.45,1 1,1 0.55,0 1,-0.45 1,-1 z m -16.26974,-5.75 c -0.0109,-1.5125 -0.21684,-2.18827 -0.45776,-1.50172 -0.26591,0.75781 -1.34492,1.02066 -2.74617,0.66897 -1.26948,-0.31862 -2.60879,-0.0928 -2.97625,0.50172 -0.41231,0.66713 0.31166,1.08103 1.8909,1.08103 1.40746,0 2.55902,0.45 2.55902,1 0,0.55 0.39375,1 0.875,1 0.48125,0 0.86612,-1.2375 0.85526,-2.75 z m 6.69553,-4.582783 C 383.64068,97.621257 380,97.442827 380,99.45031 c 0,1.75577 3.18827,3.73197 4.28278,2.65463 0.43053,-0.42378 0.49489,-1.52075 0.14301,-2.437723 z M 358,100 c 0,-0.55 -0.45,-1 -1,-1 -0.55,0 -1,0.45 -1,1 0,0.55 0.45,1 1,1 0.55,0 1,-0.45 1,-1 z m -5,-4.5 c 0,-0.825 -0.45,-1.5 -1,-1.5 -0.55,0 -1,0.675 -1,1.5 0,0.825 0.45,1.5 1,1.5 0.55,0 1,-0.675 1,-1.5 z M 377,94 c 0,-0.55 -0.45,-1 -1,-1 -0.55,0 -1,0.45 -1,1 0,0.55 0.45,1 1,1 0.55,0 1,-0.45 1,-1 z m -21,-7 c 0,-0.55 -0.45,-1 -1,-1 -0.55,0 -1,0.45 -1,1 0,0.55 0.45,1 1,1 0.55,0 1,-0.45 1,-1 z m 8,-8 c 0,-0.55 -0.45,-1 -1,-1 -0.55,0 -1,0.45 -1,1 0,0.55 0.45,1 1,1 0.55,0 1,-0.45 1,-1 z"
         id="path6" />
      <path
         style="fill:#767676;fill-opacity:1"
         d="m 354.8125,290.31689 c 0.72187,-0.28887 1.58438,-0.25335 1.91667,0.0789 0.33229,0.33229 -0.25834,0.56864 -1.3125,0.52522 -1.16495,-0.048 -1.4019,-0.28494 -0.60417,-0.60416 z M 271.15789,283 c 0,-1.375 0.22698,-1.9375 0.50439,-1.25 0.27741,0.6875 0.27741,1.8125 0,2.5 -0.27741,0.6875 -0.50439,0.125 -0.50439,-1.25 z m -103.88553,-3 c 0,-2.475 0.19502,-3.4875 0.43337,-2.25 0.23836,1.2375 0.23836,3.2625 0,4.5 -0.23835,1.2375 -0.43337,0.225 -0.43337,-2.25 z m 45.88553,0 c 0,-1.375 0.22698,-1.9375 0.50439,-1.25 0.27741,0.6875 0.27741,1.8125 0,2.5 -0.27741,0.6875 -0.50439,0.125 -0.50439,-1.25 z m 134.65461,1.31689 c 0.72187,-0.28887 1.58438,-0.25335 1.91667,0.0789 0.33229,0.33229 -0.25834,0.56864 -1.3125,0.52522 -1.16495,-0.048 -1.4019,-0.28494 -0.60417,-0.60416 z M 129.15789,279 c 0,-1.375 0.22698,-1.9375 0.50439,-1.25 0.27741,0.6875 0.27741,1.8125 0,2.5 -0.27741,0.6875 -0.50439,0.125 -0.50439,-1.25 z m 48.03706,-0.5 c 0.0204,-1.65 0.2445,-2.20394 0.49804,-1.23097 0.25354,0.97297 0.23687,2.32297 -0.0371,3 -0.27393,0.67703 -0.48137,-0.11903 -0.46099,-1.76903 z m 25.11492,-8 c 0.006,-3.3 0.1923,-4.52944 0.41486,-2.73209 0.22256,1.79735 0.21797,4.49735 -0.0102,6 -0.22818,1.50265 -0.41027,0.0321 -0.40466,-3.26791 z m -41.23092,1.91667 c 0.048,-1.16495 0.28494,-1.4019 0.60416,-0.60417 0.28887,0.72187 0.25335,1.58438 -0.0789,1.91667 -0.3323,0.33229 -0.56864,-0.25834 -0.52522,-1.3125 z M 337.25218,268.5 c 0.0111,-2.2 0.21589,-2.98225 0.45508,-1.73834 0.23919,1.24391 0.23011,3.04391 -0.0202,4 -0.25029,0.95609 -0.446,-0.0617 -0.4349,-2.26166 z m 20.82677,0.91667 c 0.048,-1.16495 0.28494,-1.4019 0.60416,-0.60417 0.28887,0.72187 0.25335,1.58438 -0.0789,1.91667 -0.33229,0.33229 -0.56864,-0.25834 -0.52522,-1.3125 z M 177.15789,268 c 0,-1.375 0.22698,-1.9375 0.50439,-1.25 0.27741,0.6875 0.27741,1.8125 0,2.5 -0.27741,0.6875 -0.50439,0.125 -0.50439,-1.25 z m 191.15198,-6.5 c 0.006,-3.3 0.1923,-4.52944 0.41486,-2.73209 0.22256,1.79735 0.21797,4.49735 -0.0102,6 -0.22818,1.50265 -0.41027,0.0321 -0.40466,-3.26791 z M 167.33621,259 c 0,-4.125 0.17651,-5.8125 0.39226,-3.75 0.21574,2.0625 0.21574,5.4375 0,7.5 -0.21575,2.0625 -0.39226,0.375 -0.39226,-3.75 z m 94.74274,-1.58333 c 0.048,-1.16495 0.28494,-1.4019 0.60416,-0.60417 0.28887,0.72187 0.25335,1.58438 -0.0789,1.91667 -0.33229,0.33229 -0.56864,-0.25834 -0.52522,-1.3125 z M 303.15789,254 c 0,-1.375 0.22698,-1.9375 0.50439,-1.25 0.27741,0.6875 0.27741,1.8125 0,2.5 -0.27741,0.6875 -0.50439,0.125 -0.50439,-1.25 z m -88.96294,-3.5 c 0.0204,-1.65 0.2445,-2.20394 0.49804,-1.23097 0.25354,0.97297 0.23687,2.32297 -0.0371,3 -0.27393,0.67703 -0.48137,-0.11903 -0.46099,-1.76903 z m 80.96294,-1.5 c 0,-1.375 0.22698,-1.9375 0.50439,-1.25 0.27741,0.6875 0.27741,1.8125 0,2.5 -0.27741,0.6875 -0.50439,0.125 -0.50439,-1.25 z m 7.92106,0.41667 c 0.048,-1.16495 0.28494,-1.4019 0.60416,-0.60417 0.28887,0.72187 0.25335,1.58437 -0.0789,1.91667 -0.33229,0.33229 -0.56864,-0.25834 -0.52522,-1.3125 z M 139.5,244 c -0.33992,-0.55 -0.14148,-1 0.44098,-1 0.58246,0 1.05902,0.45 1.05902,1 0,0.55 -0.19844,1 -0.44098,1 -0.24254,0 -0.7191,-0.45 -1.05902,-1 z m 155.79966,-6 c 0,-3.025 0.18747,-4.2625 0.41659,-2.75 0.22913,1.5125 0.22913,3.9875 0,5.5 -0.22912,1.5125 -0.41659,0.275 -0.41659,-2.75 z m -166.14177,0 c 0,-1.375 0.22698,-1.9375 0.50439,-1.25 0.27741,0.6875 0.27741,1.8125 0,2.5 -0.27741,0.6875 -0.50439,0.125 -0.50439,-1.25 z m 48.14177,-5 c 0,-3.025 0.18747,-4.2625 0.41659,-2.75 0.22913,1.5125 0.22913,3.9875 0,5.5 -0.22912,1.5125 -0.41659,0.275 -0.41659,-2.75 z m 36.93234,-1 c 0,-1.925 0.2058,-2.7125 0.45733,-1.75 0.25152,0.9625 0.25152,2.5375 0,3.5 -0.25153,0.9625 -0.45733,0.175 -0.45733,-1.75 z m -85.15305,-1.58333 c 0.048,-1.16495 0.28494,-1.4019 0.60416,-0.60417 0.28887,0.72187 0.25335,1.58437 -0.0789,1.91667 -0.3323,0.33229 -0.56864,-0.25834 -0.52522,-1.3125 z m 143,-1 c 0.048,-1.16495 0.28494,-1.4019 0.60416,-0.60417 0.28887,0.72187 0.25335,1.58437 -0.0789,1.91667 -0.33229,0.33229 -0.56864,-0.25834 -0.52522,-1.3125 z M 304.15789,228 c 0,-1.375 0.22698,-1.9375 0.50439,-1.25 0.27741,0.6875 0.27741,1.8125 0,2.5 -0.27741,0.6875 -0.50439,0.125 -0.50439,-1.25 z m 35.03706,-1.5 c 0.0204,-1.65 0.2445,-2.20394 0.49804,-1.23097 0.25354,0.97297 0.23687,2.32297 -0.0371,3 -0.27393,0.67703 -0.48137,-0.11903 -0.46099,-1.76903 z m -9.89529,-3.5 c 0,-3.025 0.18747,-4.2625 0.41659,-2.75 0.22913,1.5125 0.22913,3.9875 0,5.5 -0.22912,1.5125 -0.41659,0.275 -0.41659,-2.75 z m -115.22071,2.41667 c 0.048,-1.16495 0.28494,-1.4019 0.60416,-0.60417 0.28887,0.72187 0.25335,1.58437 -0.0789,1.91667 -0.3323,0.33229 -0.56864,-0.25834 -0.52522,-1.3125 z m 156,-6 c 0.048,-1.16495 0.28494,-1.4019 0.60416,-0.60417 0.28887,0.72187 0.25335,1.58437 -0.0789,1.91667 -0.33229,0.33229 -0.56864,-0.25834 -0.52522,-1.3125 z M 339.15789,217 c 0,-1.375 0.22698,-1.9375 0.50439,-1.25 0.27741,0.6875 0.27741,1.8125 0,2.5 -0.27741,0.6875 -0.50439,0.125 -0.50439,-1.25 z m -174.07894,-5.58333 c 0.048,-1.16495 0.28494,-1.4019 0.60416,-0.60417 0.28887,0.72187 0.25335,1.58437 -0.0789,1.91667 -0.3323,0.33229 -0.56864,-0.25834 -0.52522,-1.3125 z M 297.232,206 c 0,-1.925 0.2058,-2.7125 0.45733,-1.75 0.25152,0.9625 0.25152,2.5375 0,3.5 -0.25153,0.9625 -0.45733,0.175 -0.45733,-1.75 z M 367,198 c -0.90129,-0.58246 -1.02463,-0.97549 -0.30902,-0.98469 0.65504,-0.008 1.4691,0.43469 1.80902,0.98469 0.7673,1.24153 0.42112,1.24153 -1.5,0 z m -155.71349,-0.74008 c 3.18258,-0.19905 8.13258,-0.1972 11,0.004 2.86742,0.20131 0.26349,0.36417 -5.78651,0.36191 -6.05,-0.002 -8.39607,-0.16696 -5.21349,-0.36601 z"
         id="path5" />
      <path
         style="fill:#606060;fill-opacity:1"
         d="m 350.75,290.33772 c 0.6875,-0.27741 1.8125,-0.27741 2.5,0 0.6875,0.27741 0.125,0.50439 -1.25,0.50439 -1.375,0 -1.9375,-0.22698 -1.25,-0.50439 z M 261.232,285 c 0,-1.925 0.2058,-2.7125 0.45733,-1.75 0.25152,0.9625 0.25152,2.5375 0,3.5 -0.25153,0.9625 -0.45733,0.175 -0.45733,-1.75 z M 232,283 c -0.90129,-0.58246 -1.02463,-0.97549 -0.30902,-0.98469 0.65504,-0.008 1.4691,0.43469 1.80902,0.98469 0.7673,1.24153 0.42112,1.24153 -1.5,0 z m -7.1875,-1.68311 c 0.72187,-0.28887 1.58437,-0.25335 1.91667,0.0789 0.33229,0.33229 -0.25834,0.56864 -1.3125,0.52522 -1.16495,-0.048 -1.4019,-0.28494 -0.60417,-0.60416 z M 261.15789,278 c 0,-1.375 0.22698,-1.9375 0.50439,-1.25 0.27741,0.6875 0.27741,1.8125 0,2.5 -0.27741,0.6875 -0.50439,0.125 -0.50439,-1.25 z m 42.03706,-2.5 c 0.0204,-1.65 0.2445,-2.20394 0.49804,-1.23097 0.25354,0.97297 0.23687,2.32297 -0.0371,3 -0.27393,0.67703 -0.48137,-0.11903 -0.46099,-1.76903 z m -156.116,-1.08333 c 0.048,-1.16495 0.28494,-1.4019 0.60416,-0.60417 0.28887,0.72187 0.25335,1.58438 -0.0789,1.91667 -0.3323,0.33229 -0.56864,-0.25834 -0.52522,-1.3125 z M 212.15789,274 c 0,-1.375 0.22698,-1.9375 0.50439,-1.25 0.27741,0.6875 0.27741,1.8125 0,2.5 -0.27741,0.6875 -0.50439,0.125 -0.50439,-1.25 z m 146,-1 c 0,-1.375 0.22698,-1.9375 0.50439,-1.25 0.27741,0.6875 0.27741,1.8125 0,2.5 -0.27741,0.6875 -0.50439,0.125 -0.50439,-1.25 z m -97,-3 c 0,-1.375 0.22698,-1.9375 0.50439,-1.25 0.27741,0.6875 0.27741,1.8125 0,2.5 -0.27741,0.6875 -0.50439,0.125 -0.50439,-1.25 z m 97.92106,-16.58333 c 0.048,-1.16495 0.28494,-1.4019 0.60416,-0.60417 0.28887,0.72187 0.25335,1.58437 -0.0789,1.91667 -0.33229,0.33229 -0.56864,-0.25834 -0.52522,-1.3125 z m -192.42829,-2.88464 c -0.30982,-0.80739 -0.13297,-1.73395 0.39301,-2.05902 0.52598,-0.32508 0.95633,0.33551 0.95633,1.46797 0,2.41457 -0.55611,2.65816 -1.34934,0.59105 z m -25.57171,-3.11536 c 0.048,-1.16495 0.28494,-1.4019 0.60416,-0.60417 0.28887,0.72187 0.25335,1.58437 -0.0789,1.91667 -0.3323,0.33229 -0.56864,-0.25834 -0.52522,-1.3125 z M 303.15789,246 c 0,-1.375 0.22698,-1.9375 0.50439,-1.25 0.27741,0.6875 0.27741,1.8125 0,2.5 -0.27741,0.6875 -0.50439,0.125 -0.50439,-1.25 z m 57.20734,-12.5 c 0.003,-5.5 0.17053,-7.62242 0.37317,-4.71648 0.20265,2.90594 0.20052,7.40594 -0.005,10 C 360.52842,241.37758 360.36263,239 360.36523,233.5 Z M 329.15789,230 c 0,-1.375 0.22698,-1.9375 0.50439,-1.25 0.27741,0.6875 0.27741,1.8125 0,2.5 -0.27741,0.6875 -0.50439,0.125 -0.50439,-1.25 z m -151.96294,-4.5 c 0.0204,-1.65 0.2445,-2.20394 0.49804,-1.23097 0.25354,0.97297 0.23687,2.32297 -0.0371,3 -0.27393,0.67703 -0.48137,-0.11903 -0.46099,-1.76903 z m 25.884,-6.08333 c 0.048,-1.16495 0.28494,-1.4019 0.60416,-0.60417 0.28887,0.72187 0.25335,1.58437 -0.0789,1.91667 -0.3323,0.33229 -0.56864,-0.25834 -0.52522,-1.3125 z M 265.25218,209.5 c 0.0111,-2.2 0.21589,-2.98225 0.45508,-1.73834 0.23919,1.24391 0.23011,3.04391 -0.0202,4 -0.25029,0.95609 -0.446,-0.0617 -0.4349,-2.26166 z m -32.17323,-8.08333 c 0.048,-1.16495 0.28494,-1.4019 0.60416,-0.60417 0.28887,0.72187 0.25335,1.58437 -0.0789,1.91667 -0.3323,0.33229 -0.56864,-0.25834 -0.52522,-1.3125 z m 70,0 c 0.048,-1.16495 0.28494,-1.4019 0.60416,-0.60417 0.28887,0.72187 0.25335,1.58437 -0.0789,1.91667 -0.33229,0.33229 -0.56864,-0.25834 -0.52522,-1.3125 z"
         id="path4" />
      <path
         style="fill:#494949;fill-opacity:1"
         d="m 176.15789,287 c 0,-1.375 0.22698,-1.9375 0.50439,-1.25 0.27741,0.6875 0.27741,1.8125 0,2.5 -0.27741,0.6875 -0.50439,0.125 -0.50439,-1.25 z m -36.85823,-5 c 0,-3.025 0.18747,-4.2625 0.41659,-2.75 0.22913,1.5125 0.22913,3.9875 0,5.5 -0.22912,1.5125 -0.41659,0.275 -0.41659,-2.75 z m 11.57278,2.25 c -1.24387,-1.58606 -1.2085,-1.62143 0.37756,-0.37756 0.9625,0.75485 1.75,1.54235 1.75,1.75 0,0.82304 -0.82119,0.29331 -2.12756,-1.37244 z m 67.94006,-1.93311 c 0.72187,-0.28887 1.58437,-0.25335 1.91667,0.0789 0.33229,0.33229 -0.25834,0.56864 -1.3125,0.52522 -1.16495,-0.048 -1.4019,-0.28494 -0.60417,-0.60416 z M 159.15789,280 c 0,-1.375 0.22698,-1.9375 0.50439,-1.25 0.27741,0.6875 0.27741,1.8125 0,2.5 -0.27741,0.6875 -0.50439,0.125 -0.50439,-1.25 z m 170.92106,-0.58333 c 0.048,-1.16495 0.28494,-1.4019 0.60416,-0.60417 0.28887,0.72187 0.25335,1.58438 -0.0789,1.91667 -0.33229,0.33229 -0.56864,-0.25834 -0.52522,-1.3125 z M 367.28601,273.5 c 0.008,-2.75 0.20172,-3.75631 0.43157,-2.23625 0.22986,1.52006 0.22371,3.77006 -0.0136,5 -0.23736,1.22994 -0.42542,-0.0138 -0.41792,-2.76375 z m -105.09106,-11 c 0.0204,-1.65 0.2445,-2.20394 0.49804,-1.23097 0.25354,0.97297 0.23687,2.32297 -0.0371,3 -0.27393,0.67703 -0.48137,-0.11903 -0.46099,-1.76903 z m 97.10471,-2.5 c 0,-3.025 0.18747,-4.2625 0.41659,-2.75 0.22913,1.5125 0.22913,3.9875 0,5.5 -0.22912,1.5125 -0.41659,0.275 -0.41659,-2.75 z M 203.232,261 c 0,-1.925 0.2058,-2.7125 0.45733,-1.75 0.25152,0.9625 0.25152,2.5375 0,3.5 -0.25153,0.9625 -0.45733,0.175 -0.45733,-1.75 z m 9.96295,-3.5 c 0.0204,-1.65 0.2445,-2.20394 0.49804,-1.23097 0.25354,0.97297 0.23687,2.32297 -0.0371,3 -0.27393,0.67703 -0.48137,-0.11903 -0.46099,-1.76903 z m -58.116,-1.08333 c 0.048,-1.16495 0.28494,-1.4019 0.60416,-0.60417 0.28887,0.72187 0.25335,1.58438 -0.0789,1.91667 -0.3323,0.33229 -0.56864,-0.25834 -0.52522,-1.3125 z M 338.28601,250.5 c 0.008,-2.75 0.20172,-3.75631 0.43157,-2.23625 0.22986,1.52006 0.22371,3.77006 -0.0136,5 -0.23736,1.22994 -0.42542,-0.0137 -0.41792,-2.76375 z m 29.87188,2.5 c 0,-1.375 0.22698,-1.9375 0.50439,-1.25 0.27741,0.6875 0.27741,1.8125 0,2.5 -0.27741,0.6875 -0.50439,0.125 -0.50439,-1.25 z m -191.90571,-3.5 c 0.0111,-2.2 0.21589,-2.98225 0.45508,-1.73834 0.23919,1.24391 0.23011,3.04391 -0.0202,4 -0.25029,0.95609 -0.446,-0.0617 -0.4349,-2.26166 z m 101.82677,-1.08333 c 0.048,-1.16495 0.28494,-1.4019 0.60416,-0.60417 0.28887,0.72187 0.25335,1.58437 -0.0789,1.91667 -0.33229,0.33229 -0.56864,-0.25834 -0.52522,-1.3125 z M 223.75,245.33772 c 0.6875,-0.27741 1.8125,-0.27741 2.5,0 0.6875,0.27741 0.125,0.50439 -1.25,0.50439 -1.375,0 -1.9375,-0.22698 -1.25,-0.50439 z M 338.29966,236 c 0,-3.025 0.18747,-4.2625 0.41659,-2.75 0.22913,1.5125 0.22913,3.9875 0,5.5 -0.22912,1.5125 -0.41659,0.275 -0.41659,-2.75 z m -125.22071,0.41667 c 0.048,-1.16495 0.28494,-1.4019 0.60416,-0.60417 0.28887,0.72187 0.25335,1.58437 -0.0789,1.91667 -0.3323,0.33229 -0.56864,-0.25834 -0.52522,-1.3125 z m 83.116,-6.91667 c 0.0204,-1.65 0.2445,-2.20394 0.49804,-1.23097 0.25354,0.97297 0.23687,2.32297 -0.0371,3 -0.27393,0.67703 -0.48137,-0.11903 -0.46099,-1.76903 z m -93.116,-0.0833 c 0.048,-1.16495 0.28494,-1.4019 0.60416,-0.60417 0.28887,0.72187 0.25335,1.58437 -0.0789,1.91667 -0.3323,0.33229 -0.56864,-0.25834 -0.52522,-1.3125 z M 213.32007,213 c 0,-3.575 0.1815,-5.0375 0.40333,-3.25 0.22182,1.7875 0.22182,4.7125 0,6.5 -0.22183,1.7875 -0.40333,0.325 -0.40333,-3.25 z m -10,-1 c 0,-3.575 0.1815,-5.0375 0.40333,-3.25 0.22182,1.7875 0.22182,4.7125 0,6.5 -0.22183,1.7875 -0.40333,0.325 -0.40333,-3.25 z m 157.75888,4.41667 c 0.048,-1.16495 0.28494,-1.4019 0.60416,-0.60417 0.28887,0.72187 0.25335,1.58437 -0.0789,1.91667 -0.33229,0.33229 -0.56864,-0.25834 -0.52522,-1.3125 z M 330.15789,215 c 0,-1.375 0.22698,-1.9375 0.50439,-1.25 0.27741,0.6875 0.27741,1.8125 0,2.5 -0.27741,0.6875 -0.50439,0.125 -0.50439,-1.25 z m 8.12812,-5.5 c 0.008,-2.75 0.20172,-3.75631 0.43157,-2.23625 0.22986,1.52006 0.22371,3.77006 -0.0136,5 -0.23736,1.22994 -0.42542,-0.0137 -0.41792,-2.76375 z m 30.87188,-2.5 c 0,-1.375 0.22698,-1.9375 0.50439,-1.25 0.27741,0.6875 0.27741,1.8125 0,2.5 -0.27741,0.6875 -0.50439,0.125 -0.50439,-1.25 z m -36.96294,-3.5 c 0.0204,-1.65 0.2445,-2.20394 0.49804,-1.23097 0.25354,0.97297 0.23687,2.32297 -0.0371,3 -0.27393,0.67703 -0.48137,-0.11903 -0.46099,-1.76903 z m -104.92592,0.80701 c 0.97297,-0.25354 2.32297,-0.23687 3,0.0371 0.67703,0.27393 -0.11903,0.48137 -1.76903,0.46099 -1.65,-0.0204 -2.20394,-0.2445 -1.23097,-0.49804 z"
         id="path3" />
      <path
         style="fill:#0f0f0f;fill-opacity:1"
         d="m 265.25,290.88122 -3.25,-0.9384 -0.11842,-7.72141 c -0.0651,-4.24678 -0.0317,-8.15932 0.0744,-8.69454 0.10604,-0.53522 0.40337,-7.51022 0.66073,-15.5 0.25736,-7.98978 0.89102,-17.00187 1.40813,-20.02687 0.51711,-3.025 1.18963,-11.5626 1.49447,-18.97244 0.73739,-17.92354 1.7029,-21.61733 5.30383,-20.29106 2.19089,0.80693 3.14272,2.27437 3.16158,4.87424 0.0146,2.01579 6.10167,21.70176 8.00515,25.88926 0.50002,1.1 2.23813,6.725 3.86246,12.5 2.69114,9.56777 3.63666,12.41444 7.58927,22.84887 1.89356,4.99877 2.30778,2.43895 2.57109,-15.88903 0.49179,-34.23106 1.39194,-46.77592 3.56767,-49.72063 1.05506,-1.42796 1.52078,-1.5068 2.60235,-0.44059 1.54574,1.52381 1.79299,30.83531 0.56262,66.70138 -0.41508,12.1 -0.75762,23.0125 -0.7612,24.25 -0.005,1.71103 -0.58557,2.25 -2.42387,2.25 -4.35424,0 -6.33146,-2.9574 -10.13808,-15.16392 -1.42979,-4.58484 -4.3103,-12.38608 -6.40115,-17.33608 -2.09084,-4.95 -5.40326,-14.4 -7.36092,-21 l -3.55939,-12 -0.30034,22.5 c -0.16519,12.375 -0.30357,26.55 -0.30751,31.5 -0.007,8.41867 -0.65355,11.62495 -2.30186,11.40981 -0.38004,-0.0496 -2.15348,-0.51247 -3.94098,-1.02859 z M 133.22022,289.75 c -2.62289,-3.19967 -3.13498,-10.80611 -3.19732,-47.49205 -0.0357,-21.03313 0.21421,-39.35451 0.55547,-40.71417 0.34125,-1.35966 1.45872,-2.73817 2.48327,-3.06334 3.91653,-1.24306 5.51985,1.05015 8.19212,11.7172 9.64688,38.50786 11.65141,46.78773 12.2703,50.68335 0.94015,5.91783 2.47106,3.40285 2.36242,-3.88099 -0.0451,-3.025 0.83177,-9.775 1.94863,-15 1.11685,-5.225 2.80729,-13.1 3.75652,-17.5 0.94924,-4.4 2.32944,-8.71043 3.06713,-9.57874 0.73768,-0.86831 1.34124,-2.5805 1.34124,-3.80486 0,-3.44974 3.77366,-10.90979 5.85245,-11.56957 5.74627,-1.8238 6.59174,1.73357 5.53898,23.30553 -0.44684,9.1562 -0.73537,26.54764 -0.64117,38.64764 0.0942,12.1 -0.16702,23.575 -0.58049,25.5 -0.97609,4.5444 -3.86355,4.68849 -6.41481,0.32013 -1.63471,-2.79901 -1.8508,-5.40405 -1.80416,-21.75 C 167.97994,255.35656 167.81696,247 167.58861,247 c -1.42488,0 -5.80451,17.83785 -8.30493,33.82529 -1.14083,7.29439 -8.19118,6.09746 -10.23801,-1.73809 -2.134,-8.16929 -6.05292,-25.17421 -7.74042,-33.5872 l -1.80525,-9 -0.26607,27.25 -0.26607,27.25 h -2.36149 c -1.29881,0 -2.82258,-0.5625 -3.38615,-1.25 z m 73.04216,-1.14357 c -3.03054,-3.85271 -3.58055,-9.03892 -2.64785,-24.96761 0.45534,-7.77635 0.71512,-14.81382 0.57728,-15.63882 -0.13785,-0.825 -0.25921,-11.77761 -0.2697,-24.33913 -0.0134,-16.0041 0.33136,-23.26135 1.15186,-24.25 0.87417,-1.05331 3.87714,-1.41087 11.84911,-1.41087 10.63009,0 16.0531,1.24563 16.06912,3.69098 0.0123,1.87122 -1.20971,2.23252 -9.55609,2.82553 -4.29984,0.3055 -8.42016,1.05529 -9.15626,1.6662 -1.05063,0.87194 -1.23993,4.4654 -0.88046,16.71402 l 0.45791,15.60327 6.05107,-0.3441 c 4.86839,-0.27684 6.73909,0.0811 9.57135,1.83156 1.93615,1.19661 3.52028,2.5532 3.52028,3.01464 0,0.85668 -0.57221,0.99904 -12.16838,3.02724 l -6.66838,1.16632 -0.77636,8.65217 c -1.02136,11.38254 -1.0831,24.78929 -0.11859,25.7538 0.42256,0.42256 4.16102,0.69909 8.3077,0.61451 7.8829,-0.16078 15.83807,2.02477 15.13855,4.15908 -0.47542,1.45054 -10.01124,3.45402 -20.28509,4.26189 -7.88745,0.62023 -8.11811,0.57416 -10.16707,-2.03068 z m 131.88467,1.15868 c -7.79788,-2.03954 -9.30159,-9.70888 -8.67895,-44.26511 0.25766,-14.3 0.95397,-28.925 1.54734,-32.5 0.59338,-3.575 1.32992,-8.1875 1.63675,-10.25 0.64056,-4.30577 1.29001,-4.57661 3.94282,-1.64432 1.80614,1.99641 1.88104,3.64399 1.44338,31.75 -0.65907,42.32475 -0.62566,47.89038 0.29292,48.80896 1.12641,1.12641 12.54406,0.71344 15.93665,-0.57642 1.52235,-0.57879 3.19063,-2.1642 3.70729,-3.52313 0.86935,-2.28656 2.34018,-26.87127 3.47386,-58.06509 0.60058,-16.52504 0.91605,-18.56262 3.12394,-20.17708 3.3508,-2.45016 3.70523,-1.88726 4.83388,7.67708 0.62212,5.27196 -1.09059,53.35346 -2.37391,66.64339 -0.91842,9.51107 -1.8959,12.112 -5.43109,14.4514 -2.41734,1.59966 -19.16504,2.79234 -23.45488,1.67032 z"
         id="path2" />
    </g>
  </g>
</svg>
